<svg width="194" height="100" viewBox="0 0 194 100" fill="none" xmlns="http://www.w3.org/2000/svg">
<g filter="url(#filter0_d_7_5935)">
<rect x="122.431" y="2" width="72" height="72" rx="24" transform="rotate(15 122.431 2)" fill="#009BFE"/>
<path d="M156.376 53.4176C155.727 55.8388 154.128 57.6878 151.577 58.9645C149.033 60.2154 146.383 60.4716 143.627 59.7331C140.768 58.967 138.704 57.6547 137.435 55.7963C136.185 53.9706 135.847 51.7268 136.423 49.065C137.474 48.8498 138.607 48.7945 139.821 48.899C141.043 48.9777 142.387 49.2138 143.856 49.6072C143.441 51.1527 143.37 52.5002 143.642 53.6497C143.946 54.7804 144.459 55.4423 145.181 55.6356C145.799 55.8012 146.348 55.6584 146.827 55.2072C147.314 54.7303 147.702 53.9509 147.992 52.869C148.406 51.3236 148.229 49.9234 147.461 48.6685C146.719 47.4205 145.438 46.4837 143.618 45.858C143.629 44.7844 143.676 43.941 143.757 43.3279C143.872 42.6959 144.036 41.9806 144.25 41.1821C145.361 40.8451 146.416 40.465 147.412 40.0419C148.435 39.6257 149.4 39.1665 150.308 38.6643C148.753 38.3859 147.156 38.1649 145.516 38.0015C143.883 37.8123 142.223 37.6712 140.536 37.5781C140.472 36.7879 140.5 35.8569 140.622 34.7852C140.769 33.7203 140.988 32.647 141.277 31.5652C143.569 31.4614 146.516 31.6436 150.117 32.1117C153.744 32.5867 157.056 33.2116 160.05 33.9865C160.176 34.9589 160.181 36.023 160.065 37.1789C159.974 38.3418 159.766 39.5285 159.442 40.7391C157.774 41.8107 156.386 42.6121 155.278 43.1433C154.195 43.6813 152.947 44.2166 151.535 44.7492C153.622 46.0262 155.055 47.3764 155.833 48.7996C156.644 50.204 156.825 51.7433 156.376 53.4176Z" fill="white"/>
</g>
<g filter="url(#filter1_d_7_5935)">
<rect x="59.1865" y="3.41711" width="72" height="72" rx="24" fill="#FFDB13"/>
<path d="M103.691 46.6171C103.691 47.8704 103.584 49.0704 103.371 50.2171C103.184 51.3638 102.904 52.3904 102.531 53.2971C99.4376 53.2704 96.0776 53.0171 92.4509 52.5371C88.8509 52.0571 85.9576 51.4704 83.7709 50.7771C83.7709 49.6571 83.8109 48.7904 83.8909 48.1771C83.9709 47.5371 84.1042 46.9504 84.2909 46.4171C88.1576 43.8838 91.1709 41.4171 93.3309 39.0171C95.4909 36.6171 96.5709 34.5504 96.5709 32.8171C96.5709 31.9371 96.4109 31.2704 96.0909 30.8171C95.7976 30.3638 95.3442 30.1371 94.7309 30.1371C94.0109 30.1371 93.4242 30.5371 92.9709 31.3371C92.5442 32.1371 92.1309 33.5638 91.7309 35.6171C90.2109 35.6171 88.8509 35.5104 87.6509 35.2971C86.4509 35.0571 85.3709 34.6971 84.4109 34.2171C85.1576 31.3638 86.4109 29.2438 88.1709 27.8571C89.9576 26.4704 92.3042 25.7771 95.2109 25.7771C98.0376 25.7771 100.344 26.4838 102.131 27.8971C103.918 29.2838 104.811 31.0838 104.811 33.2971C104.811 35.5904 103.958 37.7238 102.251 39.6971C100.571 41.6438 97.5309 44.0304 93.1309 46.8571C97.1309 46.8571 99.6642 46.8438 100.731 46.8171C101.798 46.7638 102.784 46.6971 103.691 46.6171Z" fill="white"/>
</g>
<g filter="url(#filter2_d_7_5935)">
<rect x="2" y="23.9167" width="72" height="72" rx="24" transform="rotate(-15 2 23.9167)" fill="#FE6230"/>
<path d="M53.0667 61.1276C52.6137 61.4975 52.0438 61.8434 51.3571 62.1655C50.6961 62.4806 49.9535 62.7486 49.1293 62.9695C48.6141 63.1075 48.1693 63.1991 47.7949 63.2442C47.4531 63.3082 47.101 63.3335 46.7386 63.3202C46.5904 62.9734 46.4379 62.5587 46.281 62.0762C46.1568 61.6126 45.9566 60.8656 45.6806 59.8353C45.1974 58.0322 44.7508 55.9019 44.3408 53.4443C43.9496 50.954 43.6157 48.2137 43.339 45.2234C43.2943 45.263 42.9229 45.68 42.2248 46.4744C41.5524 47.262 40.9871 47.8828 40.529 48.3368C39.4154 47.8898 38.3702 47.2864 37.3937 46.5266C36.4428 45.7599 35.5768 44.8462 34.7957 43.7856C36.8825 42.0946 38.842 40.341 40.6744 38.5248C42.4999 36.6829 44.1759 34.7983 45.7024 32.8708C46.7125 32.9315 47.6695 33.103 48.5734 33.3853C49.4773 33.6677 50.3151 34.0643 51.087 34.5753C50.8016 37.2192 50.8311 41.0902 51.1756 46.188C51.539 51.2532 52.1694 56.2331 53.0667 61.1276Z" fill="white"/>
</g>
<defs>
<filter id="filter0_d_7_5935" x="102.184" y="4.38792" width="91.4058" height="91.4058" filterUnits="userSpaceOnUse" color-interpolation-filters="sRGB">
<feFlood flood-opacity="0" result="BackgroundImageFix"/>
<feColorMatrix in="SourceAlpha" type="matrix" values="0 0 0 0 0 0 0 0 0 0 0 0 0 0 0 0 0 0 127 0" result="hardAlpha"/>
<feOffset dy="4"/>
<feGaussianBlur stdDeviation="3.5"/>
<feColorMatrix type="matrix" values="0 0 0 0 0 0 0 0 0 0 0 0 0 0 0 0 0 0 0.22 0"/>
<feBlend mode="normal" in2="BackgroundImageFix" result="effect1_dropShadow_7_5935"/>
<feBlend mode="normal" in="SourceGraphic" in2="effect1_dropShadow_7_5935" result="shape"/>
</filter>
<filter id="filter1_d_7_5935" x="52.1865" y="0.417114" width="86" height="86" filterUnits="userSpaceOnUse" color-interpolation-filters="sRGB">
<feFlood flood-opacity="0" result="BackgroundImageFix"/>
<feColorMatrix in="SourceAlpha" type="matrix" values="0 0 0 0 0 0 0 0 0 0 0 0 0 0 0 0 0 0 127 0" result="hardAlpha"/>
<feOffset dy="4"/>
<feGaussianBlur stdDeviation="3.5"/>
<feColorMatrix type="matrix" values="0 0 0 0 0 0 0 0 0 0 0 0 0 0 0 0 0 0 0.22 0"/>
<feBlend mode="normal" in2="BackgroundImageFix" result="effect1_dropShadow_7_5935"/>
<feBlend mode="normal" in="SourceGraphic" in2="effect1_dropShadow_7_5935" result="shape"/>
</filter>
<filter id="filter2_d_7_5935" x="0.387909" y="7.6697" width="91.4058" height="91.4058" filterUnits="userSpaceOnUse" color-interpolation-filters="sRGB">
<feFlood flood-opacity="0" result="BackgroundImageFix"/>
<feColorMatrix in="SourceAlpha" type="matrix" values="0 0 0 0 0 0 0 0 0 0 0 0 0 0 0 0 0 0 127 0" result="hardAlpha"/>
<feOffset dy="4"/>
<feGaussianBlur stdDeviation="3.5"/>
<feColorMatrix type="matrix" values="0 0 0 0 0 0 0 0 0 0 0 0 0 0 0 0 0 0 0.22 0"/>
<feBlend mode="normal" in2="BackgroundImageFix" result="effect1_dropShadow_7_5935"/>
<feBlend mode="normal" in="SourceGraphic" in2="effect1_dropShadow_7_5935" result="shape"/>
</filter>
</defs>
</svg>
