<svg width="218" height="117" viewBox="0 0 218 117" fill="none" xmlns="http://www.w3.org/2000/svg">
<g filter="url(#filter0_d_7_7)">
<path d="M128.183 37.1458C131.614 24.3426 144.774 16.7446 157.577 20.1752L180.759 26.3868C193.562 29.8175 201.16 42.9775 197.73 55.7807L191.518 78.9629C188.087 91.7661 174.927 99.3641 162.124 95.9335L138.942 89.7218C126.139 86.2912 118.541 73.1312 121.971 60.328L128.183 37.1458Z" fill="#009BFE"/>
<path d="M164.12 61.8901C165.204 62.0701 166.294 62.4312 167.391 62.9736C168.521 63.4972 169.291 64.0212 169.703 64.5456C168.703 67.4525 167.004 69.468 164.604 70.592C162.238 71.6971 159.367 71.7976 155.993 70.8934C152.799 70.0376 150.566 68.3764 149.294 65.9099C148.023 63.4434 147.877 60.3814 148.857 56.7237C150.113 52.0358 152.461 48.427 155.899 45.8974C159.338 43.3679 163.014 42.6276 166.93 43.6767C169.325 44.3186 171.057 45.5832 172.125 47.4706C173.2 49.3322 173.497 51.6206 173.018 54.3358C171.494 54.5624 170.219 54.6348 169.192 54.5528C168.165 54.4708 166.904 54.2297 165.41 53.8294C165.859 52.1551 165.985 50.8085 165.789 49.7897C165.618 48.7777 165.146 48.1682 164.374 47.9612C163.292 47.6713 162.125 48.4214 160.872 50.2115C159.619 52.0016 158.617 54.3005 157.864 57.1081C157.133 59.8385 156.892 62.024 157.143 63.6648C157.426 65.2867 158.173 66.2598 159.384 66.5842C160.62 66.9155 161.653 66.6677 162.482 65.8407C163.311 65.0137 163.857 63.6969 164.12 61.8901Z" fill="white"/>
<ellipse cx="151.162" cy="26.9048" rx="6" ry="3" transform="rotate(-9.41532 151.162 26.9048)" fill="white" fill-opacity="0.69"/>
<circle cx="141.062" cy="31.3187" r="3" transform="rotate(30 141.062 31.3187)" fill="white" fill-opacity="0.69"/>
</g>
<g filter="url(#filter1_d_7_7)">
<path d="M71.1501 41.3806C71.1501 28.1257 81.8952 17.3806 95.1501 17.3806L119.15 17.3806C132.405 17.3806 143.15 28.1258 143.15 41.3806V65.3806C143.15 78.6354 132.405 89.3806 119.15 89.3806H95.1501C81.8952 89.3806 71.1501 78.6354 71.1501 65.3806L71.1501 41.3806Z" fill="#FFDB13"/>
<ellipse cx="89.5037" cy="26.0908" rx="6" ry="3" transform="rotate(-39.4153 89.5037 26.0908)" fill="white" fill-opacity="0.69"/>
<circle cx="82.9635" cy="34.9636" r="3" fill="white" fill-opacity="0.69"/>
<path d="M119.218 54.7006C119.218 57.9272 117.978 60.6472 115.498 62.8606C113.045 65.0739 110.032 66.1806 106.458 66.1806C105.152 66.1806 103.818 65.9806 102.458 65.5806C101.125 65.1806 99.8052 64.5806 98.4985 63.7806C98.1518 60.7139 97.8852 57.5406 97.6985 54.2606C97.5385 50.9806 97.4585 47.5139 97.4585 43.8606C97.4585 42.2606 97.4585 41.0606 97.4585 40.2606C97.4852 39.4606 97.5118 38.7139 97.5385 38.0206C99.0585 37.2739 100.645 36.7006 102.298 36.3006C103.952 35.9006 105.592 35.7006 107.218 35.7006C110.472 35.7006 112.952 36.2739 114.658 37.4206C116.365 38.5406 117.218 40.1672 117.218 42.3006C117.218 43.6072 116.925 44.7939 116.338 45.8606C115.778 46.9006 114.938 47.8072 113.818 48.5806C115.525 49.0872 116.845 49.8872 117.778 50.9806C118.738 52.0472 119.218 53.2872 119.218 54.7006ZM109.418 43.4206C109.418 42.3539 109.125 41.5539 108.538 41.0206C107.952 40.4872 107.085 40.2206 105.938 40.2206L105.818 40.2206C105.685 41.7139 105.565 43.1406 105.458 44.5006C105.378 45.8339 105.312 47.1139 105.258 48.3406C106.618 48.0472 107.645 47.4739 108.338 46.6206C109.058 45.7672 109.418 44.7006 109.418 43.4206ZM105.138 60.8206C105.512 61.0072 105.858 61.1539 106.178 61.2606C106.498 61.3406 106.818 61.3806 107.138 61.3806C108.205 61.3806 109.138 60.8606 109.938 59.8206C110.738 58.7806 111.138 57.6072 111.138 56.3006C111.138 55.2072 110.818 54.3806 110.178 53.8206C109.565 53.2339 108.658 52.9406 107.458 52.9406C107.112 52.9406 106.752 52.9806 106.378 53.0606C106.005 53.1406 105.592 53.2739 105.138 53.4606C105.112 53.8339 105.098 54.2339 105.098 54.6606C105.098 55.0606 105.098 55.6872 105.098 56.5406C105.098 57.7406 105.098 58.6339 105.098 59.2206C105.098 59.8072 105.112 60.3406 105.138 60.8206Z" fill="white"/>
</g>
<g filter="url(#filter2_d_7_7)">
<path d="M20.1752 56.0626C16.7446 43.2594 24.3426 30.0993 37.1457 26.6687L60.328 20.4571C73.1312 17.0265 86.2912 24.6245 89.7218 37.4276L95.9335 60.6099C99.3641 73.4131 91.7661 86.5731 78.9629 90.0037L55.7807 96.2154C42.9775 99.646 29.8174 92.048 26.3868 79.2448L20.1752 56.0626Z" fill="#FE6230"/>
<path d="M74.6952 68.5782C73.9524 69.4122 73.0017 70.1915 71.8431 70.916C70.7171 71.6595 69.3188 72.3654 67.6483 73.0339C67.0796 71.5298 66.4293 69.9786 65.6973 68.3803C64.9842 66.7493 64.187 65.1132 63.3055 63.4721C61.6639 63.9395 60.1966 64.3879 58.9037 64.8172C57.6107 65.2465 56.4054 65.6937 55.2877 66.1588C55.1861 67.4283 55.0579 68.6498 54.903 69.8232C54.7481 70.9966 54.569 72.0799 54.3658 73.073C53.0484 73.2051 51.7403 73.1139 50.4413 72.7994C49.1749 72.5038 48.1094 72.0301 47.2445 71.3784C48.241 67.1635 48.9729 62.9919 49.4403 58.8636C49.9009 54.7095 50.167 49.5723 50.2387 43.4519C51.5008 43.1137 52.6514 42.8744 53.6905 42.734C54.7484 42.561 55.937 42.4633 57.2562 42.4411C60.4496 45.3953 63.5262 49.0985 66.4861 53.5508C69.4459 58.0031 72.1823 63.0123 74.6952 68.5782ZM55.8163 51.4405C55.8197 52.7923 55.8051 54.2318 55.7725 55.7589C55.74 57.2861 55.6886 58.8458 55.6184 60.4383C56.4596 60.0748 57.282 59.744 58.0856 59.4459C58.9149 59.1409 59.7511 58.8616 60.5942 58.6081C59.7698 57.2829 58.9627 56.0222 58.1728 54.8259C57.3829 53.6296 56.5974 52.5011 55.8163 51.4405Z" fill="white"/>
<ellipse cx="34.5037" cy="38.0906" rx="6" ry="3" transform="rotate(-39.4153 34.5037 38.0906)" fill="white" fill-opacity="0.69"/>
<circle cx="27.9635" cy="46.9634" r="3" fill="white" fill-opacity="0.69"/>
</g>
<defs>
<filter id="filter0_d_7_7" x="114.148" y="16.3515" width="91.4058" height="91.4058" filterUnits="userSpaceOnUse" color-interpolation-filters="sRGB">
<feFlood flood-opacity="0" result="BackgroundImageFix"/>
<feColorMatrix in="SourceAlpha" type="matrix" values="0 0 0 0 0 0 0 0 0 0 0 0 0 0 0 0 0 0 127 0" result="hardAlpha"/>
<feOffset dy="4"/>
<feGaussianBlur stdDeviation="3.5"/>
<feColorMatrix type="matrix" values="0 0 0 0 0.207167 0 0 0 0 0.470833 0 0 0 0 0 0 0 0 0.22 0"/>
<feBlend mode="normal" in2="BackgroundImageFix" result="effect1_dropShadow_7_7"/>
<feBlend mode="normal" in="SourceGraphic" in2="effect1_dropShadow_7_7" result="shape"/>
</filter>
<filter id="filter1_d_7_7" x="64.1501" y="14.3806" width="86" height="86" filterUnits="userSpaceOnUse" color-interpolation-filters="sRGB">
<feFlood flood-opacity="0" result="BackgroundImageFix"/>
<feColorMatrix in="SourceAlpha" type="matrix" values="0 0 0 0 0 0 0 0 0 0 0 0 0 0 0 0 0 0 127 0" result="hardAlpha"/>
<feOffset dy="4"/>
<feGaussianBlur stdDeviation="3.5"/>
<feColorMatrix type="matrix" values="0 0 0 0 0.207167 0 0 0 0 0.470833 0 0 0 0 0 0 0 0 0.22 0"/>
<feBlend mode="normal" in2="BackgroundImageFix" result="effect1_dropShadow_7_7"/>
<feBlend mode="normal" in="SourceGraphic" in2="effect1_dropShadow_7_7" result="shape"/>
</filter>
<filter id="filter2_d_7_7" x="12.3514" y="16.6333" width="91.4058" height="91.4058" filterUnits="userSpaceOnUse" color-interpolation-filters="sRGB">
<feFlood flood-opacity="0" result="BackgroundImageFix"/>
<feColorMatrix in="SourceAlpha" type="matrix" values="0 0 0 0 0 0 0 0 0 0 0 0 0 0 0 0 0 0 127 0" result="hardAlpha"/>
<feOffset dy="4"/>
<feGaussianBlur stdDeviation="3.5"/>
<feColorMatrix type="matrix" values="0 0 0 0 0.207167 0 0 0 0 0.470833 0 0 0 0 0 0 0 0 0.22 0"/>
<feBlend mode="normal" in2="BackgroundImageFix" result="effect1_dropShadow_7_7"/>
<feBlend mode="normal" in="SourceGraphic" in2="effect1_dropShadow_7_7" result="shape"/>
</filter>
</defs>
</svg>
