<svg width="194" height="100" viewBox="0 0 194 100" fill="none" xmlns="http://www.w3.org/2000/svg">
<g filter="url(#filter0_d_7_5921)">
<rect x="122.431" y="2" width="72" height="72" rx="24" transform="rotate(15 122.431 2)" fill="#009BFE"/>
<path d="M152.156 49.9265C153.24 50.1065 154.33 50.4676 155.427 51.0101C156.557 51.5336 157.328 52.0576 157.739 52.582C156.74 55.4889 155.04 57.5044 152.641 58.6284C150.274 59.7335 147.404 59.834 144.029 58.9298C140.835 58.074 138.602 56.4129 137.331 53.9464C136.059 51.4799 135.913 48.4178 136.894 44.7602C138.15 40.0722 140.497 36.4634 143.936 33.9339C147.374 31.4043 151.051 30.6641 154.966 31.7131C157.362 32.355 159.093 33.6196 160.161 35.507C161.236 37.3686 161.534 39.657 161.055 42.3722C159.531 42.5988 158.255 42.6712 157.228 42.5892C156.201 42.5072 154.941 42.2661 153.447 41.8658C153.895 40.1915 154.021 38.845 153.825 37.8261C153.655 36.8141 153.183 36.2046 152.41 35.9976C151.328 35.7077 150.161 36.4578 148.908 38.2479C147.656 40.0381 146.653 42.3369 145.901 45.1446C145.169 47.8749 144.929 50.0605 145.179 51.7012C145.463 53.3231 146.21 54.2962 147.42 54.6206C148.657 54.9519 149.689 54.7041 150.518 53.8771C151.347 53.0502 151.893 51.7333 152.156 49.9265Z" fill="white"/>
</g>
<g filter="url(#filter1_d_7_5921)">
<rect x="59.1865" y="3.41711" width="72" height="72" rx="24" fill="#FFDB13"/>
<path d="M107.255 40.7371C107.255 43.9638 106.015 46.6838 103.535 48.8971C101.082 51.1104 98.0683 52.2171 94.495 52.2171C93.1883 52.2171 91.855 52.0171 90.495 51.6171C89.1616 51.2171 87.8416 50.6171 86.535 49.8171C86.1883 46.7504 85.9216 43.5771 85.735 40.2971C85.575 37.0171 85.495 33.5504 85.495 29.8971C85.495 28.2971 85.495 27.0971 85.495 26.2971C85.5216 25.4971 85.5483 24.7504 85.575 24.0571C87.095 23.3104 88.6816 22.7371 90.335 22.3371C91.9883 21.9371 93.6283 21.7371 95.255 21.7371C98.5083 21.7371 100.988 22.3104 102.695 23.4571C104.402 24.5771 105.255 26.2038 105.255 28.3371C105.255 29.6438 104.962 30.8304 104.375 31.8971C103.815 32.9371 102.975 33.8438 101.855 34.6171C103.562 35.1238 104.882 35.9238 105.815 37.0171C106.775 38.0838 107.255 39.3238 107.255 40.7371ZM97.455 29.4571C97.455 28.3904 97.1616 27.5904 96.575 27.0571C95.9883 26.5238 95.1216 26.2571 93.975 26.2571L93.855 26.2571C93.7216 27.7504 93.6016 29.1771 93.495 30.5371C93.415 31.8704 93.3483 33.1504 93.295 34.3771C94.655 34.0838 95.6816 33.5104 96.375 32.6571C97.095 31.8038 97.455 30.7371 97.455 29.4571ZM93.175 46.8571C93.5483 47.0438 93.895 47.1904 94.215 47.2971C94.535 47.3771 94.855 47.4171 95.175 47.4171C96.2416 47.4171 97.175 46.8971 97.975 45.8571C98.775 44.8171 99.175 43.6438 99.175 42.3371C99.175 41.2438 98.855 40.4171 98.215 39.8571C97.6016 39.2704 96.695 38.9771 95.495 38.9771C95.1483 38.9771 94.7883 39.0171 94.415 39.0971C94.0416 39.1771 93.6283 39.3104 93.175 39.4971C93.1483 39.8704 93.135 40.2704 93.135 40.6971C93.135 41.0971 93.135 41.7238 93.135 42.5771C93.135 43.7771 93.135 44.6704 93.135 45.2571C93.135 45.8438 93.1483 46.3771 93.175 46.8571Z" fill="white"/>
</g>
<g filter="url(#filter2_d_7_5921)">
<rect x="2" y="23.9167" width="72" height="72" rx="24" transform="rotate(-15 2 23.9167)" fill="#FE6230"/>
<path d="M62.7316 59.6146C61.9889 60.4486 61.0381 61.2279 59.8795 61.9525C58.7536 62.6959 57.3553 63.4018 55.6847 64.0703C55.1161 62.5662 54.4658 61.015 53.7338 59.4167C53.0207 57.7857 52.2234 56.1496 51.342 54.5085C49.7004 54.976 48.2331 55.4243 46.9401 55.8536C45.6472 56.2829 44.4419 56.7301 43.3242 57.1952C43.2226 58.4648 43.0944 59.6862 42.9395 60.8596C42.7846 62.033 42.6055 63.1163 42.4023 64.1094C41.0849 64.2415 39.7767 64.1503 38.4777 63.8358C37.2114 63.5402 36.1458 63.0665 35.281 62.4148C36.2774 58.1999 37.0093 54.0284 37.4768 49.9C37.9373 45.746 38.2034 40.6087 38.2751 34.4883C39.5373 34.1501 40.6879 33.9108 41.7269 33.7704C42.7849 33.5974 43.9734 33.4998 45.2927 33.4776C48.4861 36.4317 51.5627 40.1349 54.5226 44.5872C57.4824 49.0396 60.2188 54.0487 62.7316 59.6146ZM43.8528 42.4769C43.8561 43.8287 43.8415 45.2682 43.809 46.7954C43.7765 48.3225 43.7251 49.8823 43.6548 51.4747C44.4961 51.1112 45.3185 50.7805 46.1221 50.4823C46.9514 50.1773 47.7876 49.898 48.6307 49.6445C47.8063 48.3194 46.9992 47.0586 46.2093 45.8623C45.4194 44.666 44.6339 43.5375 43.8528 42.4769Z" fill="white"/>
</g>
<defs>
<filter id="filter0_d_7_5921" x="102.184" y="4.38792" width="91.4058" height="91.4058" filterUnits="userSpaceOnUse" color-interpolation-filters="sRGB">
<feFlood flood-opacity="0" result="BackgroundImageFix"/>
<feColorMatrix in="SourceAlpha" type="matrix" values="0 0 0 0 0 0 0 0 0 0 0 0 0 0 0 0 0 0 127 0" result="hardAlpha"/>
<feOffset dy="4"/>
<feGaussianBlur stdDeviation="3.5"/>
<feColorMatrix type="matrix" values="0 0 0 0 0 0 0 0 0 0 0 0 0 0 0 0 0 0 0.22 0"/>
<feBlend mode="normal" in2="BackgroundImageFix" result="effect1_dropShadow_7_5921"/>
<feBlend mode="normal" in="SourceGraphic" in2="effect1_dropShadow_7_5921" result="shape"/>
</filter>
<filter id="filter1_d_7_5921" x="52.1865" y="0.417114" width="86" height="86" filterUnits="userSpaceOnUse" color-interpolation-filters="sRGB">
<feFlood flood-opacity="0" result="BackgroundImageFix"/>
<feColorMatrix in="SourceAlpha" type="matrix" values="0 0 0 0 0 0 0 0 0 0 0 0 0 0 0 0 0 0 127 0" result="hardAlpha"/>
<feOffset dy="4"/>
<feGaussianBlur stdDeviation="3.5"/>
<feColorMatrix type="matrix" values="0 0 0 0 0 0 0 0 0 0 0 0 0 0 0 0 0 0 0.22 0"/>
<feBlend mode="normal" in2="BackgroundImageFix" result="effect1_dropShadow_7_5921"/>
<feBlend mode="normal" in="SourceGraphic" in2="effect1_dropShadow_7_5921" result="shape"/>
</filter>
<filter id="filter2_d_7_5921" x="0.387909" y="7.66969" width="91.4058" height="91.4058" filterUnits="userSpaceOnUse" color-interpolation-filters="sRGB">
<feFlood flood-opacity="0" result="BackgroundImageFix"/>
<feColorMatrix in="SourceAlpha" type="matrix" values="0 0 0 0 0 0 0 0 0 0 0 0 0 0 0 0 0 0 127 0" result="hardAlpha"/>
<feOffset dy="4"/>
<feGaussianBlur stdDeviation="3.5"/>
<feColorMatrix type="matrix" values="0 0 0 0 0 0 0 0 0 0 0 0 0 0 0 0 0 0 0.22 0"/>
<feBlend mode="normal" in2="BackgroundImageFix" result="effect1_dropShadow_7_5921"/>
<feBlend mode="normal" in="SourceGraphic" in2="effect1_dropShadow_7_5921" result="shape"/>
</filter>
</defs>
</svg>
