<svg width="194" height="100" viewBox="0 0 194 100" fill="none" xmlns="http://www.w3.org/2000/svg">
<g filter="url(#filter0_d_40_86)">
<rect x="122.431" y="2" width="72" height="72" rx="24" transform="rotate(15 122.431 2)" fill="#009BFE"/>
<path d="M135.499 40.1086C135.984 40.0811 138.335 39.8334 138.746 39.4559C139.867 38.4258 140.516 37.7574 140.612 37.1224C140.702 36.5582 140.258 35.4907 140.248 34.9108C140.238 34.3309 139.253 34.6474 138.915 34.612C138.215 34.5412 138.06 34.9462 137.693 35.0779C137.437 35.1703 136.566 34.7024 135.951 35.1428C135.335 35.5831 135.459 36.3321 135.459 36.3321C135.459 36.3321 134.026 36.9887 134.001 37.7712C133.973 38.6558 134.952 40.1401 135.499 40.1086Z" fill="white"/>
<path opacity="0.3" d="M135.499 40.1086C135.984 40.0811 138.335 39.8334 138.746 39.4559C139.867 38.4258 140.516 37.7574 140.612 37.1224C140.702 36.5582 140.258 35.4907 140.248 34.9108C140.238 34.3309 139.253 34.6474 138.915 34.612C138.215 34.5412 138.06 34.9462 137.693 35.0779C137.437 35.1703 136.566 34.7024 135.951 35.1428C135.335 35.5831 135.459 36.3321 135.459 36.3321C135.459 36.3321 134.026 36.9887 134.001 37.7712C133.973 38.6558 134.952 40.1401 135.499 40.1086Z" fill="white"/>
<path d="M163.104 58.5545C163.817 59.3881 166.733 59.9621 168.445 58.6194C170.157 57.2767 171.174 52.8141 171.128 51.3102C171.083 49.8063 166.687 31.4037 165.437 27.0197C164.187 22.6358 166.223 20.4556 167.657 19.4196C169.09 18.3836 172.121 19.512 172.734 20.1666C173.348 20.8213 173.625 22.5572 173.625 22.5572C173.625 22.5572 173.118 20.9844 172.192 20.4635C171.266 19.9425 169.231 19.5729 168.166 20.1745C167.1 20.7761 165.539 23.4556 166.414 25.7969C167.289 28.1383 172.603 49.3778 172.734 51.3633C172.886 53.7479 171.543 57.949 169.508 59.7636C167.474 61.5781 163.98 61.407 163.611 61.5329C163.241 61.6587 163.186 62.1973 163.186 62.1973L163.104 58.5545Z" fill="white"/>
<path opacity="0.1" d="M163.104 58.5545C163.817 59.3881 166.733 59.9621 168.445 58.6194C170.157 57.2767 171.174 52.8141 171.128 51.3102C171.083 49.8063 166.687 31.4037 165.437 27.0197C164.187 22.6358 166.223 20.4556 167.657 19.4196C169.09 18.3836 172.121 19.512 172.734 20.1666C173.348 20.8213 173.625 22.5572 173.625 22.5572C173.625 22.5572 173.118 20.9844 172.192 20.4635C171.266 19.9425 169.231 19.5729 168.166 20.1745C167.1 20.7761 165.539 23.4556 166.414 25.7969C167.289 28.1383 172.603 49.3778 172.734 51.3633C172.886 53.7479 171.543 57.949 169.508 59.7636C167.474 61.5781 163.98 61.407 163.611 61.5329C163.241 61.6587 163.186 62.1973 163.186 62.1973L163.104 58.5545Z" fill="black"/>
<g opacity="0.2">
<path d="M164.185 59.4097C164.298 60.0893 164.318 60.7811 164.244 61.466H164.322C164.371 61.1334 164.39 60.7974 164.381 60.4615C164.372 60.1053 164.332 59.7507 164.26 59.4018C164.244 59.3291 164.228 59.2564 164.21 59.1836L164.138 59.16C164.149 59.2387 164.171 59.3193 164.185 59.4097Z" fill="black"/>
<path d="M166.737 59.3428L166.76 59.4784C166.818 59.8258 166.856 60.1764 166.872 60.5282C166.872 60.3513 166.886 60.1744 166.872 59.9974C166.858 59.8205 166.853 59.6436 166.827 59.4667L166.809 59.329L166.737 59.3428Z" fill="black"/>
<path d="M166.341 61.2026C166.341 61.2399 166.341 61.2753 166.341 61.3127C166.341 61.2753 166.353 61.238 166.357 61.2006C166.379 61.063 166.398 60.9254 166.41 60.7858C166.41 60.6089 166.434 60.432 166.428 60.2531C166.427 59.9659 166.403 59.6793 166.357 59.3959H166.261C166.31 59.678 166.341 59.963 166.353 60.2491C166.368 60.5669 166.364 60.8853 166.341 61.2026Z" fill="black"/>
<path d="M165.577 60.8015C165.577 60.9797 165.577 61.1586 165.577 61.3382L165.667 61.3244C165.667 61.1475 165.667 60.9725 165.667 60.7976C165.651 60.4431 165.591 60.0919 165.49 59.7517C165.548 60.0986 165.577 60.4498 165.577 60.8015Z" fill="black"/>
<path d="M167.55 59.1227C167.586 59.2878 167.617 59.4549 167.639 59.622C167.691 59.9695 167.718 60.3204 167.719 60.6718C167.719 60.719 167.719 60.7642 167.719 60.8114L167.788 60.7858C167.788 60.7484 167.788 60.7091 167.788 60.6718C167.8 60.3162 167.78 59.9603 167.729 59.6082C167.704 59.4336 167.67 59.2604 167.627 59.0892L167.55 59.1227Z" fill="black"/>
<path d="M169.542 57.2138C169.567 57.2649 169.59 57.316 169.613 57.3671C169.861 57.9143 170.044 58.4891 170.157 59.0794L170.185 59.046C170.185 58.9811 170.169 58.9162 170.159 58.8494C170.128 58.6764 170.1 58.4995 170.053 58.3284C169.965 57.9836 169.848 57.6469 169.703 57.3219C169.67 57.2492 169.634 57.1764 169.599 57.1057L169.542 57.2138Z" fill="black"/>
<path d="M169.261 57.6935C169.322 57.8448 169.375 57.9982 169.422 58.1535C169.525 58.4873 169.602 58.8283 169.654 59.1738C169.678 59.3035 169.697 59.4313 169.711 59.567C169.729 59.5496 169.746 59.5312 169.762 59.5119C169.757 59.3967 169.746 59.2819 169.729 59.1679C169.682 58.8145 169.605 58.4659 169.499 58.126C169.442 57.949 169.379 57.7741 169.302 57.603C169.296 57.6305 169.276 57.662 169.261 57.6935Z" fill="black"/>
<path d="M168.736 58.7767C168.84 59.1137 168.916 59.459 168.962 59.8088C168.978 59.9248 168.991 60.0407 169.001 60.1567L169.084 60.1056C169.072 60.0054 169.056 59.909 169.037 59.8029C168.978 59.45 168.877 59.1055 168.736 58.7767Z" fill="black"/>
<path d="M169.904 56.4746C170.031 56.6471 170.149 56.8262 170.257 57.0113C170.438 57.3123 170.602 57.6234 170.747 57.9431C170.688 57.778 170.631 57.6089 170.55 57.4458C170.47 57.2826 170.403 57.1234 170.314 56.97C170.203 56.7646 170.077 56.5675 169.937 56.3802C169.933 56.4097 169.919 56.4432 169.904 56.4746Z" fill="black"/>
<path d="M170.812 53.6712C170.885 53.7361 170.957 53.801 171.028 53.8678C171.284 54.1096 171.527 54.3649 171.755 54.6326C171.651 54.491 171.559 54.3436 171.437 54.2079C171.315 54.0723 171.207 53.9366 171.079 53.8148C171.001 53.7322 170.918 53.6535 170.833 53.5808C170.833 53.6182 170.818 53.6398 170.812 53.6712Z" fill="black"/>
<path d="M170.68 54.2079C170.855 54.3747 171.02 54.552 171.174 54.7387C171.4 55.0082 171.612 55.2905 171.807 55.584C171.72 55.4287 171.638 55.2715 171.541 55.124C171.445 54.9766 171.345 54.8272 171.233 54.6896C171.073 54.4801 170.897 54.283 170.708 54.0998C170.698 54.1371 170.69 54.1725 170.68 54.2079Z" fill="black"/>
<path d="M170.419 55.1024C170.586 55.271 170.743 55.4489 170.89 55.6352C171.109 55.9084 171.307 56.1982 171.48 56.5021C171.514 56.5572 171.545 56.6122 171.577 56.6673L171.624 56.5572C171.606 56.5218 171.584 56.4864 171.565 56.451C171.385 56.1448 171.179 55.8547 170.949 55.5841C170.789 55.3979 170.616 55.2238 170.43 55.0631L170.419 55.1024Z" fill="black"/>
<path d="M171.062 52.3049C171.402 52.3185 171.741 52.358 172.076 52.4229C172.286 52.4603 172.497 52.5055 172.703 52.5625C172.703 52.533 172.703 52.5035 172.703 52.474C172.506 52.415 172.294 52.3678 172.086 52.3266C171.749 52.2634 171.406 52.2305 171.063 52.2283C171.067 52.2538 171.065 52.2794 171.062 52.3049Z" fill="black"/>
<path d="M170.861 49.71C170.861 49.7415 170.875 49.7729 170.881 49.8044C171.13 49.7906 171.38 49.7906 171.63 49.8044C171.914 49.8139 172.198 49.8402 172.479 49.883C172.48 49.8758 172.48 49.8686 172.479 49.8614C172.375 49.8358 172.272 49.8122 172.166 49.7945C171.991 49.769 171.814 49.7395 171.637 49.7277C171.379 49.7039 171.12 49.698 170.861 49.71Z" fill="black"/>
<path d="M170.951 50.172L170.969 50.2644C171.065 50.2644 171.166 50.2644 171.258 50.2644C171.609 50.2692 171.96 50.3007 172.306 50.3587C172.4 50.3725 172.493 50.3882 172.585 50.4059C172.585 50.3843 172.585 50.3627 172.571 50.341C172.489 50.3194 172.404 50.2998 172.32 50.284C171.971 50.2143 171.616 50.1748 171.26 50.1661C171.158 50.1661 171.054 50.168 170.951 50.172Z" fill="black"/>
<path d="M171.632 51.1117C171.983 51.1216 172.334 51.1604 172.679 51.2277L172.723 51.2375C172.723 51.2139 172.723 51.1864 172.723 51.1589H172.703C172.349 51.1002 171.989 51.0843 171.632 51.1117Z" fill="black"/>
<path d="M170.7 48.9236C170.7 48.9472 170.71 48.9689 170.714 48.9905C170.774 48.9905 170.837 48.9767 170.898 48.9728C171.248 48.9472 171.6 48.9472 171.95 48.9728C172.066 48.9728 172.18 48.9885 172.296 49.0023C172.296 48.9689 172.28 48.9374 172.274 48.906C172.168 48.8942 172.062 48.8843 171.956 48.8765C171.601 48.8542 171.244 48.8634 170.89 48.904L170.7 48.9236Z" fill="black"/>
<path d="M170.167 46.4663C170.167 46.4977 170.181 46.5311 170.189 46.5626C170.519 46.4886 170.855 46.4393 171.193 46.4152C171.364 46.3994 171.537 46.3916 171.708 46.3916L171.696 46.3424C171.527 46.3424 171.358 46.3287 171.187 46.3424C170.844 46.3551 170.503 46.3965 170.167 46.4663Z" fill="black"/>
<path d="M170.267 46.9204C170.267 46.9499 170.281 46.9794 170.287 47.0069C170.482 46.9695 170.679 46.9425 170.877 46.9263C171.19 46.8919 171.505 46.8801 171.82 46.8909C171.82 46.8634 171.807 46.8359 171.801 46.8084C171.489 46.7923 171.177 46.7989 170.867 46.828C170.666 46.8482 170.465 46.8791 170.267 46.9204Z" fill="black"/>
<path d="M171.352 47.7205C171.57 47.6999 171.789 47.692 172.007 47.6969C172.003 47.6783 171.999 47.66 171.993 47.6418C171.778 47.6502 171.564 47.6765 171.352 47.7205Z" fill="black"/>
<path d="M169.579 43.8713C169.579 43.8949 169.579 43.9165 169.595 43.9401C169.913 43.8753 170.238 43.8418 170.562 43.8065C170.385 43.8065 170.208 43.8065 170.031 43.8202C169.854 43.834 169.729 43.8458 169.579 43.8713Z" fill="black"/>
<path d="M169.683 44.3254C169.683 44.3569 169.697 44.3863 169.705 44.4158C169.902 44.3804 170.098 44.3569 170.309 44.3411C170.612 44.3142 170.916 44.305 171.221 44.3136C171.22 44.3084 171.22 44.3031 171.221 44.2979C171.095 44.2841 170.967 44.2704 170.839 44.2645C170.662 44.2645 170.485 44.2527 170.307 44.2645C170.098 44.2727 169.89 44.2931 169.683 44.3254Z" fill="black"/>
<path d="M169.835 45.2317L169.888 45.2199C170.212 45.1513 170.54 45.1086 170.871 45.0921C171.044 45.0921 171.217 45.0784 171.392 45.0803C171.392 45.0509 171.378 45.0214 171.37 44.9919C171.201 44.9919 171.032 45.0017 170.865 45.0174C170.531 45.0465 170.201 45.1125 169.882 45.214L169.835 45.2317Z" fill="black"/>
<path d="M169.383 43.024C169.383 43.0555 169.398 43.0869 169.404 43.1164C169.479 43.0987 169.554 43.0849 169.628 43.0732C169.973 43.0083 170.322 42.9689 170.672 42.9552C170.745 42.9552 170.82 42.9552 170.892 42.9552C170.892 42.9336 170.892 42.91 170.877 42.8884H170.68C170.325 42.8899 169.97 42.9222 169.62 42.9847C169.534 42.9906 169.457 43.0024 169.383 43.024Z" fill="black"/>
<path d="M168.63 39.8058C168.63 39.8255 168.63 39.8451 168.643 39.8648C168.883 39.8216 169.129 39.7921 169.373 39.7626C169.202 39.7626 169.031 39.7626 168.858 39.7803L168.63 39.8058Z" fill="black"/>
<path d="M168.917 41.0227C168.917 41.0503 168.93 41.0778 168.936 41.1034L169.111 41.066C169.456 40.995 169.805 40.9438 170.155 40.9127C169.98 40.9127 169.801 40.9127 169.624 40.9264C169.447 40.9402 169.271 40.9579 169.098 40.9913L168.917 41.0227Z" fill="black"/>
<path d="M168.081 37.4841C168.081 37.5156 168.097 37.5451 168.103 37.5745C168.366 37.489 168.634 37.4194 168.905 37.3662C169.102 37.3229 169.298 37.2914 169.495 37.2679L169.483 37.2246H169.414C169.237 37.2423 169.06 37.2561 168.885 37.2875C168.613 37.3326 168.344 37.3983 168.081 37.4841Z" fill="black"/>
<path d="M168.29 38.3707C168.29 38.4002 168.303 38.4297 168.311 38.4592C168.449 38.4179 168.59 38.3825 168.732 38.353C169.059 38.277 169.392 38.2245 169.727 38.1957L169.709 38.1191C169.373 38.1381 169.039 38.1848 168.71 38.2587C168.569 38.2842 168.429 38.3275 168.29 38.3707Z" fill="black"/>
<path d="M167.491 33.9966C167.822 33.8751 168.162 33.7811 168.508 33.7155L168.592 33.6998C168.592 33.6742 168.579 33.6487 168.573 33.6231L168.492 33.6408C168.146 33.7206 167.81 33.84 167.491 33.9966Z" fill="black"/>
<path d="M167.885 36.7115L167.902 36.7803L167.989 36.7509C168.322 36.6388 168.663 36.5521 169.009 36.4914C169.1 36.4737 169.192 36.4579 169.284 36.4461L169.261 36.3557L168.991 36.395C168.641 36.4593 168.297 36.5547 167.963 36.6801L167.885 36.7115Z" fill="black"/>
<path d="M165.235 26.1881C165.234 26.1966 165.234 26.2052 165.235 26.2137C165.483 26.0945 165.739 25.9914 166.001 25.905C166.135 25.8598 166.273 25.8185 166.408 25.7812C166.397 25.7536 166.387 25.7254 166.379 25.6967C166.243 25.7379 166.107 25.7832 165.986 25.8343C165.726 25.9311 165.475 26.0494 165.235 26.1881Z" fill="black"/>
<path d="M165.699 26.9037C166.018 26.7817 166.347 26.6857 166.682 26.6167C166.682 26.5931 166.666 26.5715 166.66 26.5479C166.327 26.6297 166.004 26.7491 165.699 26.9037Z" fill="black"/>
<path d="M165.59 21.8553C165.856 21.8927 166.121 21.9477 166.377 22.0027C166.208 21.9516 166.039 21.8946 165.866 21.8533L165.608 21.7963C165.608 21.816 165.598 21.8356 165.59 21.8553Z" fill="black"/>
<path d="M165.386 22.3606C165.5 22.3606 165.614 22.3783 165.726 22.392C165.984 22.4184 166.24 22.4584 166.493 22.512C166.492 22.5035 166.492 22.4949 166.493 22.4864C166.412 22.4608 166.33 22.4373 166.249 22.4176C166.076 22.3802 165.903 22.339 165.726 22.3173C165.62 22.2996 165.512 22.2859 165.406 22.278C165.397 22.3051 165.391 22.3327 165.386 22.3606Z" fill="black"/>
<path d="M165.058 24.8041C165.058 24.8238 165.058 24.8434 165.058 24.8651C165.299 24.8081 165.545 24.7648 165.791 24.7216C165.616 24.7353 165.437 24.7451 165.262 24.7707L165.058 24.8041Z" fill="black"/>
<path d="M165.504 23.2551C165.759 23.2579 166.013 23.2776 166.265 23.314C166.265 23.2924 166.265 23.2747 166.279 23.2551C166.021 23.2305 165.762 23.2305 165.504 23.2551Z" fill="black"/>
<path d="M166.273 20.7347C166.469 20.8271 166.654 20.9313 166.835 21.0394C166.939 21.0984 167.031 21.1613 167.138 21.236L167.169 21.1889C167.073 21.1161 166.972 21.0453 166.874 20.9824C166.7 20.8665 166.519 20.7621 166.332 20.6699L166.273 20.7347Z" fill="black"/>
<path d="M167.326 19.9661C167.508 20.0987 167.682 20.2418 167.847 20.3947L167.891 20.3573C167.714 20.2111 167.525 20.0802 167.326 19.9661Z" fill="black"/>
<path d="M169.54 19.0186C169.652 19.2289 169.75 19.4432 169.841 19.6614C169.87 19.7322 169.898 19.8029 169.925 19.8757H170.02C169.984 19.7911 169.949 19.7086 169.911 19.626C169.815 19.4167 169.706 19.2138 169.583 19.0186H169.54Z" fill="black"/>
<path d="M170.293 19.2761C170.402 19.4912 170.497 19.7132 170.578 19.9405L170.647 19.9523C170.55 19.7164 170.432 19.49 170.293 19.2761Z" fill="black"/>
<path d="M171.005 19.2938C171.024 19.4904 171.036 19.6869 171.048 19.8973C171.048 19.7204 171.065 19.5434 171.06 19.3665C171.06 19.3468 171.06 19.3291 171.06 19.3095L171.005 19.2938Z" fill="black"/>
<path d="M171.545 20.1804L171.62 20.1981C171.651 19.9765 171.669 19.7534 171.675 19.5297L171.581 19.4904C171.582 19.7209 171.57 19.9512 171.545 20.1804Z" fill="black"/>
<path d="M172.027 19.8934C172.042 20.0565 172.05 20.2217 172.05 20.3848L172.099 20.4084C172.087 20.2353 172.063 20.0632 172.027 19.8934Z" fill="black"/>
<path d="M167.45 19.5749C167.655 19.7134 167.852 19.8631 168.04 20.0231L168.193 20.1568C168.219 20.1411 168.246 20.1273 168.274 20.1155C168.213 20.0644 168.152 20.0133 168.089 19.9642C167.897 19.8134 167.695 19.6761 167.484 19.5533L167.45 19.5749Z" fill="black"/>
<path d="M166.599 20.3514C166.796 20.4773 166.974 20.6149 167.161 20.7446C167.029 20.6286 166.9 20.5067 166.768 20.3967L166.646 20.3043L166.599 20.3514Z" fill="black"/>
<path d="M167.397 34.6867L167.421 34.781L167.48 34.7594C167.81 34.6388 168.149 34.5435 168.494 34.4744C168.586 34.4527 168.679 34.435 168.773 34.4193C168.773 34.3997 168.773 34.382 168.759 34.3623C168.665 34.3721 168.563 34.3839 168.478 34.4016C168.128 34.4597 167.783 34.5485 167.448 34.667L167.397 34.6867Z" fill="black"/>
<path d="M166.825 32.3689C166.826 32.3826 166.826 32.3964 166.825 32.4102L167.261 32.2844C167.124 32.3119 166.974 32.3355 166.825 32.3689Z" fill="black"/>
<path d="M167.045 33.2496L167.063 33.3302L167.259 33.2751C167.601 33.191 167.947 33.1254 168.296 33.0786C168.121 33.0903 167.942 33.0982 167.767 33.1198C167.592 33.1415 167.415 33.169 167.242 33.2122C167.181 33.2162 167.112 33.2319 167.045 33.2496Z" fill="black"/>
<path d="M165.909 28.7654L165.932 28.8539C166.043 28.8224 166.153 28.7949 166.263 28.7713C166.586 28.6931 166.914 28.6392 167.246 28.6101C167.246 28.5826 167.232 28.5571 167.224 28.5315C166.893 28.5538 166.565 28.6018 166.241 28.675C166.129 28.7025 166.019 28.732 165.909 28.7654Z" fill="black"/>
<path d="M166.607 31.4941L166.63 31.5845C166.829 31.5213 167.031 31.4688 167.236 31.4272C167.477 31.3716 167.721 31.3296 167.967 31.3014C167.966 31.2916 167.966 31.2817 167.967 31.2719C167.896 31.2719 167.828 31.2719 167.757 31.2817C167.582 31.3014 167.405 31.3171 167.23 31.3525C167.019 31.3865 166.811 31.4338 166.607 31.4941Z" fill="black"/>
<path d="M166.115 29.5518C166.115 29.5603 166.115 29.5688 166.115 29.5773L166.375 29.5007L166.115 29.5518Z" fill="black"/>
<path d="M165.891 27.58C166.215 27.4677 166.548 27.3822 166.886 27.3244C166.886 27.3008 166.874 27.2773 166.866 27.2537C166.53 27.3246 166.203 27.4341 165.891 27.58Z" fill="black"/>
<path d="M169.111 41.8504C169.113 41.8638 169.117 41.8769 169.121 41.8897C169.334 41.8294 169.55 41.7808 169.768 41.7442C170.035 41.6954 170.305 41.6613 170.576 41.642C170.576 41.6125 170.562 41.5811 170.554 41.5516C170.285 41.5721 170.018 41.6116 169.754 41.6695C169.536 41.7163 169.322 41.7767 169.111 41.8504Z" fill="black"/>
</g>
<path d="M156.286 66.9862C155.717 66.9084 155.141 66.9005 154.57 66.9626C153.927 67.0214 153.299 67.193 152.716 67.4698C152.545 67.5524 152.395 67.2988 152.566 67.2162C153.752 66.6668 155.075 66.4873 156.365 66.7012C156.551 66.7307 156.471 67.0157 156.286 66.9862Z" fill="#263238"/>
<path d="M156.85 67.0511C156.23 67.1114 155.634 67.319 155.11 67.6565C154.553 67.987 154.065 68.4215 153.671 68.9363C153.563 69.0897 153.308 68.9363 153.418 68.7869C153.835 68.2295 154.361 67.7615 154.963 67.4108C155.531 67.0469 156.178 66.825 156.85 66.764C157.047 66.7542 157.047 67.0491 156.85 67.0589V67.0511Z" fill="#263238"/>
<path d="M143.822 63.8408C143.254 63.763 142.678 63.755 142.108 63.8172C141.465 63.8771 140.837 64.0488 140.252 64.3244C140.083 64.407 139.934 64.1534 140.105 64.0708C141.29 63.5243 142.613 63.3469 143.901 63.5616C144.088 63.5931 144.009 63.8762 143.822 63.8467V63.8408Z" fill="#263238"/>
<path d="M144.396 63.9037C143.776 63.9639 143.179 64.1722 142.656 64.5112C142.099 64.8403 141.61 65.2743 141.217 65.789C141.109 65.9423 140.854 65.789 140.964 65.6396C141.382 65.0826 141.907 64.6147 142.509 64.2635C143.077 63.9004 143.725 63.6786 144.396 63.6167C144.593 63.6069 144.593 63.9017 144.396 63.9116V63.9037Z" fill="#263238"/>
<path d="M151.813 27.4542C151.813 27.4542 156.406 27.3677 159.712 24.6646C162.447 22.4254 163.448 21.3226 164.049 21.873C164.651 22.4235 163.768 31.4469 156.579 33.4718C154.131 34.1579 151.813 29.7366 151.813 29.7366V27.4542Z" fill="white"/>
<path opacity="0.1" d="M151.813 27.4542C151.813 27.4542 156.406 27.3677 159.712 24.6646C162.447 22.4254 163.448 21.3226 164.049 21.873C164.651 22.4235 163.768 31.4469 156.579 33.4718C154.131 34.1579 151.813 29.7366 151.813 29.7366V27.4542Z" fill="black"/>
<path opacity="0.1" d="M151.813 27.4542V29.7306C151.813 29.7306 154.123 34.1559 156.579 33.4658C158.36 32.9689 159.955 31.9558 161.161 30.5544C159.443 29.4318 156.854 27.749 155.399 26.8447C154.233 27.1904 153.029 27.395 151.813 27.4542Z" fill="black"/>
<path d="M157.005 43.0299C157.005 43.0299 159.809 37.7574 159.616 35.1821C159.423 32.6068 156.679 28.2582 154.399 27.1652C152.118 26.0722 141.489 27.6331 137.978 31.2542C137.217 32.0406 137.94 33.4266 138.331 34.1362C138.839 35.0543 140.612 37.1224 142.149 37.722C142.149 37.722 141.874 40.7515 145.098 42.3949C145.098 42.3949 144.003 47.5456 143.004 50.347C142.006 53.1483 139.592 57.8173 141.074 61.1987C142.556 64.58 146.285 64.3225 148.741 64.6763C151.196 65.0302 155.303 67.4128 158.94 66.8978C162.577 66.3827 164.022 62.3448 162.997 57.9431C161.869 53.1169 159.968 47.2487 157.005 43.0299Z" fill="white"/>
<path d="M156.264 31.8342C156.264 31.8342 157.64 31.7044 160.3 30.631C162.96 29.5577 167.358 26.7307 171.634 28.9994C176.572 31.6179 178.221 43.4899 168.801 47.1602C160.674 50.3253 154.89 38.3137 154.89 38.3137L156.264 31.8342Z" fill="white"/>
<path opacity="0.1" d="M154.892 38.3177C154.892 38.3177 160.674 50.3253 168.801 47.1642C170.924 46.3385 172.485 45.0941 173.572 43.6256C174.564 41.9346 175.163 40.0418 175.324 38.0877C175.487 35.7581 175.127 32.3866 172.105 30.521C169.084 28.6553 165.215 30.4207 162.184 32.0583C159.152 33.6959 156.451 33.8276 155.765 34.1696C154.275 35.6342 154.892 38.3177 154.892 38.3177Z" fill="black"/>
<path d="M162.184 29.7877L160.721 30.3618C160.231 30.5485 159.738 30.7412 159.254 30.9201C158.771 31.099 158.271 31.2759 157.776 31.4351C157.528 31.5197 157.279 31.5885 157.025 31.6573C156.899 31.6887 156.773 31.7241 156.646 31.7536C156.518 31.7831 156.39 31.8047 156.252 31.8342C156.779 31.8059 157.301 31.7209 157.809 31.5806C158.32 31.45 158.823 31.2912 159.315 31.1049C159.809 30.9201 160.298 30.7117 160.772 30.4994C161.246 30.2871 161.733 30.0492 162.184 29.7877Z" fill="#263238"/>
<path d="M157.662 42.6191L157.308 42.0824L156.95 41.5516L156.241 40.488C156.005 40.1322 155.777 39.7744 155.547 39.4147C155.435 39.2338 155.319 39.0549 155.214 38.8681C155.11 38.6814 155 38.5005 154.886 38.3157C155.034 38.7212 155.21 39.1155 155.415 39.4953C155.612 39.8747 155.844 40.2403 156.078 40.6001C156.311 40.9599 156.563 41.3078 156.828 41.644C157.089 41.9832 157.368 42.3087 157.662 42.6191Z" fill="#263238"/>
<path d="M157.456 31.6002C157.385 31.5529 157.308 31.5177 157.226 31.496C156.982 31.4226 156.722 31.4281 156.482 31.5118C156.567 31.5216 156.648 31.5216 156.728 31.5295L156.97 31.5471C157.131 31.5511 157.29 31.5707 157.456 31.6002Z" fill="#263238"/>
<path d="M155.488 39.4638C155.376 39.3296 155.255 39.2035 155.126 39.0864C155 38.9684 154.88 38.8603 154.751 38.7305C154.787 38.9113 154.884 39.0742 155.026 39.1925C155.156 39.319 155.314 39.4121 155.488 39.4638Z" fill="#263238"/>
<path d="M155.488 36.0078L156.907 35.9567C157.381 35.941 157.855 35.9252 158.326 35.9193C159.272 35.9056 160.22 35.8898 161.159 35.9606C162.099 36.0314 162.984 36.3636 163.847 36.7332C164.279 36.918 164.704 37.1264 165.121 37.3485C165.537 37.5707 165.954 37.7987 166.361 38.0405C165.588 37.4884 164.767 37.0049 163.91 36.5956C163.052 36.1624 162.126 35.8817 161.173 35.766C160.224 35.7159 159.272 35.7159 158.323 35.766C157.375 35.8171 156.429 35.8918 155.488 36.0078Z" fill="#263238"/>
<path d="M156.264 36.3518C156.842 36.4639 157.418 36.5779 157.99 36.7057C158.562 36.8334 159.131 36.975 159.685 37.1539C159.961 37.2406 160.231 37.3457 160.493 37.4684C160.753 37.5944 161.003 37.7396 161.242 37.9029C161.482 38.0673 161.71 38.25 161.922 38.4494C162.135 38.6469 162.333 38.8613 162.512 39.0903C162.202 38.5853 161.802 38.1415 161.332 37.781C161.095 37.5986 160.842 37.4381 160.575 37.3013C160.307 37.1708 160.03 37.0591 159.746 36.9671C159.181 36.7901 158.604 36.6535 158.02 36.5582C157.439 36.4561 156.853 36.3871 156.264 36.3518Z" fill="#263238"/>
<path d="M140.517 38.9821C140.561 38.1202 140.314 37.2687 139.816 36.5641C139.702 36.4107 139.959 36.2633 140.069 36.4147C140.343 36.7947 140.543 37.2228 140.659 37.6768C140.774 38.102 140.825 38.5418 140.812 38.9821C140.801 39.1787 140.506 39.1787 140.517 38.9821Z" fill="#263238"/>
<path d="M140.278 39.1886C140.177 38.7795 139.974 38.4028 139.688 38.0936C139.361 37.7155 138.96 37.4096 138.508 37.1952C138.337 37.1165 138.487 36.863 138.658 36.9396C138.798 37.0076 138.934 37.0858 139.063 37.1736C139.379 37.3811 139.666 37.6304 139.916 37.9147C140.227 38.2532 140.448 38.6641 140.559 39.11C140.594 39.2967 140.311 39.3754 140.276 39.1886H140.278Z" fill="#263238"/>
<path d="M140.166 39.4422C139.987 39.1286 139.735 38.8633 139.43 38.6696C139.05 38.397 138.598 38.2406 138.131 38.2194C138.092 38.2194 138.054 38.2038 138.027 38.1762C137.999 38.1485 137.983 38.111 137.983 38.0719C137.983 38.0328 137.999 37.9953 138.027 37.9677C138.054 37.94 138.092 37.9245 138.131 37.9245C138.651 37.9445 139.155 38.1152 139.58 38.416C139.927 38.6355 140.216 38.9365 140.421 39.2928C140.506 39.4618 140.252 39.6112 140.166 39.4422Z" fill="#263238"/>
<path d="M149.222 43.8831C149.222 43.8831 144.207 44.7147 140.873 38.8819C140.873 38.8819 140.152 38.469 139.977 39.2554C139.977 39.2554 139.597 45.0095 142.998 47.6006C146.451 50.229 150.485 49.419 150.485 49.419C150.485 49.419 153.04 45.9315 149.222 43.8831Z" fill="white"/>
<path d="M144.986 43.0299C145.429 43.3745 145.939 43.6223 146.484 43.7573C146.754 43.8278 147.03 43.8771 147.308 43.9047C147.586 43.9303 147.865 43.9303 148.143 43.9047L147.331 43.7475C147.064 43.6944 146.799 43.6295 146.545 43.5607C146.291 43.4919 146.022 43.4113 145.759 43.3248C145.495 43.2383 145.24 43.1459 144.986 43.0299Z" fill="#263238"/>
<path d="M150.485 49.419C150.159 49.4618 149.83 49.486 149.502 49.4918C149.171 49.4918 148.845 49.4918 148.519 49.4741C147.865 49.4343 147.217 49.337 146.58 49.1831C145.943 49.0346 145.322 48.8239 144.726 48.554C144.127 48.284 143.55 47.9651 143.002 47.6006C143.132 47.7028 143.262 47.7972 143.396 47.9053C143.521 48.0094 143.652 48.1065 143.789 48.1962L144.213 48.4577C144.353 48.5481 144.508 48.613 144.654 48.6917C144.951 48.8415 145.257 48.9728 145.57 49.0848C145.725 49.1438 145.886 49.1851 146.046 49.2362L146.283 49.3109L146.527 49.3679C147.175 49.5254 147.838 49.6091 148.505 49.6176C149.171 49.6387 149.836 49.5719 150.485 49.419Z" fill="#263238"/>
<path d="M149.995 49.7237C149.9 49.7213 149.806 49.7128 149.712 49.6982C149.618 49.6844 149.515 49.6746 149.435 49.6589C149.25 49.6333 149.073 49.6019 148.878 49.5566C149.022 49.6955 149.207 49.7827 149.405 49.8043C149.504 49.8161 149.604 49.8161 149.702 49.8043C149.805 49.8025 149.906 49.7747 149.995 49.7237Z" fill="#263238"/>
<path d="M146.205 34.4056C146.238 34.3839 146.234 34.494 146.205 34.5216C145.444 35.2017 144.707 36.1061 145.2 36.9887C145.205 36.9953 145.206 37.0033 145.205 37.011C145.203 37.0188 145.199 37.0256 145.192 37.03C145.186 37.0345 145.178 37.0361 145.17 37.0346C145.162 37.0332 145.156 37.0287 145.151 37.0222C144.367 36.1218 145.358 34.9305 146.205 34.4056Z" fill="#263238"/>
<path d="M147.542 34.439C148.908 35.5831 146.844 37.8459 145.576 36.7843C144.308 35.7227 146.396 33.4796 147.542 34.439Z" fill="#263238"/>
<path d="M150.508 35.6146C150.685 35.3655 150.807 35.0812 150.864 34.781C150.928 34.4762 150.934 34.1619 150.88 33.8551C150.824 33.543 150.694 33.2489 150.5 32.998C150.313 32.7513 150.062 32.5598 149.775 32.4436C149.952 32.6687 150.108 32.9096 150.241 33.1631C150.362 33.4041 150.447 33.6618 150.492 33.9278C150.54 34.1985 150.562 34.4729 150.559 34.7476C150.555 35.0287 150.538 35.3138 150.508 35.6146Z" fill="#263238"/>
<path d="M150.656 35.6342C150.88 35.4264 151.057 35.173 151.175 34.8911C151.301 34.6064 151.371 34.3 151.381 33.9888C151.391 33.6713 151.324 33.3562 151.184 33.0707C151.054 32.7912 150.85 32.5521 150.595 32.3787C150.721 32.6331 150.823 32.8991 150.899 33.1729C150.968 33.4339 150.998 33.7035 150.988 33.9731C150.979 34.2477 150.944 34.5209 150.884 34.7889C150.823 35.07 150.744 35.3452 150.656 35.6342Z" fill="#263238"/>
<path opacity="0.5" d="M142.837 63.3238C144.607 64.4817 146.991 64.4247 148.735 64.6763C150.479 64.9279 153.023 66.1861 155.661 66.7228C155.7 64.5977 155.503 60.0388 153.498 55.7138C150.899 50.111 147.207 48.383 146.006 52.8534C145.08 56.3095 144.976 59.4116 142.837 63.3238Z" fill="white"/>
<path d="M145.094 42.3949C145.643 42.6401 146.225 42.8018 146.822 42.8746C147.422 42.9533 148.029 42.9453 148.627 42.851C148.926 42.8051 149.221 42.7394 149.511 42.6544C149.798 42.56 150.078 42.4437 150.347 42.3065C150.482 42.2423 150.613 42.1708 150.74 42.0922L151.118 41.8445C151.242 41.7603 151.361 41.667 151.471 41.5653C151.585 41.469 151.698 41.3687 151.81 41.2724C151.334 41.6259 150.821 41.9265 150.28 42.1688C150.011 42.2888 149.735 42.3912 149.452 42.4755C149.17 42.5557 148.883 42.6174 148.593 42.6603C148.012 42.752 147.421 42.7751 146.834 42.7291L146.394 42.6819C146.248 42.6583 146.101 42.6387 145.955 42.6092C145.664 42.556 145.376 42.4844 145.094 42.3949Z" fill="#263238"/>
<path d="M137.667 32.4495C137.667 32.4495 139.613 32.5734 139.613 31.9856C139.613 31.7143 138.127 30.806 137.59 30.806C137.054 30.806 137.667 32.4495 137.667 32.4495Z" fill="#263238"/>
<path d="M146.742 40.1086C145.964 40.1086 145.334 39.4784 145.334 38.701C145.334 37.9237 145.964 37.2935 146.742 37.2935C147.519 37.2935 148.149 37.9237 148.149 38.701C148.149 39.4784 147.519 40.1086 146.742 40.1086Z" fill="#FF9BBC"/>
</g>
<g filter="url(#filter1_d_40_86)">
<rect x="59.1865" y="3.41711" width="72" height="72" rx="24" fill="#FFDB13"/>
<path d="M107.614 50.0263C107.614 50.0263 110.423 58.166 111.806 61.4709C112.052 62.0069 112.406 62.4865 112.846 62.8797C113.08 63.1143 122.235 62.913 122.403 62.8797C122.571 62.8464 121.429 60.6492 120.793 60.3481C120.157 60.0469 115.327 60.9337 115.327 60.9337C115.327 60.9337 115.149 51.3776 115.205 51.087C115.242 50.7353 115.257 50.3814 115.249 50.0278L115.361 51.4911C115.361 51.4911 115.684 50.3955 115.696 49.8916C115.709 49.3877 115.394 44.4152 115.394 44.4152L107.614 50.0263Z" fill="white"/>
<path opacity="0.4" d="M107.614 50.0263C107.614 50.0263 110.423 58.166 111.806 61.4709C112.052 62.0069 112.406 62.4865 112.846 62.8797C113.08 63.1143 122.235 62.913 122.403 62.8797C122.571 62.8464 121.429 60.6492 120.793 60.3481C120.157 60.0469 115.327 60.9337 115.327 60.9337C115.327 60.9337 115.149 51.3776 115.205 51.087C115.242 50.7353 115.257 50.3814 115.249 50.0278L115.361 51.4911C115.361 51.4911 115.684 50.3955 115.696 49.8916C115.709 49.3877 115.394 44.4152 115.394 44.4152L107.614 50.0263Z" fill="white"/>
<path d="M120.266 61.421C120.742 61.7236 121.259 62.3289 121.061 62.9342C121.029 62.3289 120.596 61.9037 120.266 61.421Z" fill="#263238"/>
<path d="M121.205 61.365C121.681 61.6676 122.199 62.2729 122.001 62.8782C121.967 62.2729 121.536 61.8477 121.205 61.365Z" fill="#263238"/>
<path opacity="0.1" d="M115.51 46.3173C114.624 48.05 113.312 49.9007 112.862 50.285C111.547 51.3326 110.156 52.2825 108.702 53.1269C108.068 51.3383 107.614 50.0233 107.614 50.0233L115.394 44.4106C115.394 44.4106 115.448 45.2747 115.51 46.3173Z" fill="white"/>
<path d="M79.1017 56.0505L78.56 58.219C74.0505 54.7385 69.7635 49.1259 68.155 43.7857C67.8084 42.6296 67.0155 40.1236 67.0004 39.0946C66.9837 38.0097 67.5542 36.448 67.6057 36.3224C67.5905 36.4374 67.4104 37.8629 67.6057 39.0765C67.6147 38.8813 67.6299 38.6906 67.6511 38.4984C68.3365 32.2487 77.1164 26.8661 77.1164 26.8661C77.1164 26.8661 72.8505 33.3731 73.3484 41.9986C73.5239 45.0462 74.615 48.0727 75.7983 50.5332C75.2521 49.3378 74.7391 47.3993 74.7149 47.2798C74.8057 47.4962 77.248 53.2419 78.1635 54.7037L78.2558 54.846C78.2801 54.8808 78.2997 54.911 78.3179 54.9398C78.793 55.648 79.1017 56.0505 79.1017 56.0505Z" fill="white"/>
<path opacity="0.4" d="M79.1017 56.0505L78.56 58.219C74.0505 54.7385 69.7635 49.1259 68.155 43.7857C67.8084 42.6296 67.0155 40.1236 67.0004 39.0946C66.9837 38.0097 67.5542 36.448 67.6057 36.3224C67.5905 36.4374 67.4104 37.8629 67.6057 39.0765C67.6147 38.8813 67.6299 38.6906 67.6511 38.4984C68.3365 32.2487 77.1164 26.8661 77.1164 26.8661C77.1164 26.8661 72.8505 33.3731 73.3484 41.9986C73.5239 45.0462 74.615 48.0727 75.7983 50.5332C75.2521 49.3378 74.7391 47.3993 74.7149 47.2798C74.8057 47.4962 77.248 53.2419 78.1635 54.7037L78.2558 54.846C78.2801 54.8808 78.2997 54.911 78.3179 54.9398C78.793 55.648 79.1017 56.0505 79.1017 56.0505Z" fill="white"/>
<path opacity="0.1" d="M79.1018 56.0505L78.56 58.219C77.9865 57.7771 77.4175 57.3019 76.8591 56.795L77.696 53.8669C77.873 54.2119 78.0289 54.4979 78.1575 54.7022L78.2498 54.8444C78.274 54.8792 78.2937 54.9095 78.3118 54.9383C78.7931 55.648 79.1018 56.0505 79.1018 56.0505Z" fill="white"/>
<path d="M77.7368 59.1527C77.7943 59.9229 77.6369 62.8419 80.5529 62.8419H94.9726C96.8505 62.8419 110.041 52.0071 112.264 49.4952C114.487 46.9832 116.4 43.9628 116.668 41.5476C116.936 39.1325 114.377 28.1691 111.593 23.0377C111.593 23.0377 111.57 20.624 110.933 18.6795C110.296 16.735 108.521 13.9507 106.508 13.3136C104.495 12.6765 95.1073 14.2866 94.1676 16.1297C93.2278 17.9728 93.2959 21.2278 93.2959 21.2278C93.2959 21.2278 85.2152 24.681 85.2485 25.2515C85.2818 25.822 88.4672 29.2419 91.1502 29.5098C93.8331 29.7776 98.9963 27.7332 98.9963 27.7332C98.9963 27.7332 99.2309 28.7047 98.963 29.5764C98.6952 30.448 91.8871 39.8074 90.6402 40.7274C89.3933 41.6475 82.5383 44.164 81.0251 46.7456C79.5118 49.3272 77.4357 55.0942 77.7368 59.1527Z" fill="white"/>
<path d="M77.7368 59.1527C77.7943 59.9229 77.6369 62.8419 80.5529 62.8419H94.9726C96.8505 62.8419 110.041 52.0071 112.264 49.4952C114.487 46.9832 116.4 43.9628 116.668 41.5476C116.936 39.1325 114.377 28.1691 111.593 23.0377C111.593 23.0377 111.57 20.624 110.933 18.6795C110.296 16.735 108.521 13.9507 106.508 13.3136C104.495 12.6765 95.1073 14.2866 94.1676 16.1297C93.2278 17.9728 93.2959 21.2278 93.2959 21.2278C93.2959 21.2278 85.2152 24.681 85.2485 25.2515C85.2818 25.822 88.4672 29.2419 91.1502 29.5098C93.8331 29.7776 98.9963 27.7332 98.9963 27.7332C98.9963 27.7332 99.2309 28.7047 98.963 29.5764C98.6952 30.448 91.8871 39.8074 90.6402 40.7274C89.3933 41.6475 82.5383 44.164 81.0251 46.7456C79.5118 49.3272 77.4357 55.0942 77.7368 59.1527Z" fill="white"/>
<path opacity="0.3" d="M77.7368 59.1527C77.7943 59.9229 77.6369 62.8419 80.5529 62.8419H94.9726C96.8505 62.8419 110.041 52.0071 112.264 49.4952C114.487 46.9832 116.4 43.9628 116.668 41.5476C116.936 39.1325 114.377 28.1691 111.593 23.0377C111.593 23.0377 111.57 20.624 110.933 18.6795C110.296 16.735 108.521 13.9507 106.508 13.3136C104.495 12.6765 95.1073 14.2866 94.1676 16.1297C93.2278 17.9728 93.2959 21.2278 93.2959 21.2278C93.2959 21.2278 85.2152 24.681 85.2485 25.2515C85.2818 25.822 88.4672 29.2419 91.1502 29.5098C93.8331 29.7776 98.9963 27.7332 98.9963 27.7332C98.9963 27.7332 99.2309 28.7047 98.963 29.5764C98.6952 30.448 91.8871 39.8074 90.6402 40.7274C89.3933 41.6475 82.5383 44.164 81.0251 46.7456C79.5118 49.3272 77.4357 55.0942 77.7368 59.1527Z" fill="white"/>
<path opacity="0.1" d="M82.3658 46.4429C81.2914 47.8532 80.0233 55.9688 81.3943 58.8515C82.561 61.3044 89.186 62.6437 93.1628 62.8434H80.5545C77.6354 62.8434 77.7928 59.9244 77.7368 59.1541C77.4342 55.0971 79.5133 49.3287 81.0236 46.7456C82.5338 44.1624 89.4054 41.649 90.6478 40.7274C91.8901 39.8058 98.6952 30.448 98.9706 29.5763C99.246 28.7047 99.0054 27.7332 99.0054 27.7332C99.0054 27.7332 101.057 26.7617 101.814 26.3425C101.814 26.3425 102.353 28.3097 102.354 29.4189C102.356 30.5282 93.1234 40.6169 91.5376 41.3524C89.9517 42.0878 83.4463 45.0356 82.3658 46.4429Z" fill="white"/>
<path opacity="0.2" d="M88.7865 41.7156C88.5822 44.2185 87.3262 47.8926 85.4483 49.9885C83.5416 52.1176 79.7418 52.4429 78.672 52.4929C79.3454 50.1822 80.2578 48.0545 81.0235 46.7426C82.1494 44.8223 86.2548 42.9337 88.7865 41.7156Z" fill="white"/>
<path opacity="0.2" d="M90.6977 42.8172C90.9186 43.7887 92.8768 43.9461 93.8165 43.5269C94.7562 43.1078 95.2919 41.6354 94.5201 40.7274C93.7484 39.8195 90.4283 41.6384 90.6977 42.8172Z" fill="white"/>
<path opacity="0.2" d="M97.6374 35.0603C97.5875 36.2497 96.5494 38.1624 95.4251 38.5408C94.5913 38.8283 93.5153 38.5862 92.963 38.0429C94.219 36.4374 95.7201 34.4036 96.908 32.7224C97.4256 33.1128 97.6707 34.1766 97.6374 35.0603Z" fill="white"/>
<path opacity="0.1" d="M110.482 37.3892C110.68 36.4555 110.8 35.484 110.689 34.5655C110.686 34.5468 110.69 34.5277 110.699 34.5113C110.709 34.4949 110.724 34.4823 110.741 34.4754C110.759 34.4685 110.778 34.4679 110.796 34.4735C110.814 34.4792 110.83 34.4908 110.84 34.5065C110.981 34.6578 111.378 35.0891 111.437 35.1557C111.437 35.0982 111.437 35.0407 111.426 34.9862C111.409 34.794 111.384 34.6033 111.35 34.4157C111.279 34.037 111.178 33.6645 111.048 33.3019C110.917 32.9404 110.756 32.5906 110.567 32.2563C110.374 31.9173 110.144 31.6056 109.923 31.2818C109.914 31.2681 109.94 31.25 109.954 31.2621C110.256 31.5332 110.521 31.8437 110.741 32.1852C110.958 32.5072 111.146 32.8486 111.3 33.2051C111.455 33.5654 111.575 33.9399 111.658 34.3234C111.7 34.5231 111.732 34.7229 111.754 34.9287C111.79 35.1263 111.79 35.3287 111.754 35.5264C111.723 35.6565 111.53 35.6369 111.476 35.5461C111.443 35.4901 110.94 34.8727 110.863 34.7895C110.961 35.6753 110.855 36.572 110.553 37.4104C110.541 37.4452 110.473 37.4316 110.482 37.3892Z" fill="white"/>
<path opacity="0.1" d="M98.9161 27.6318C98.792 27.6818 98.5227 27.7832 98.1519 27.9163L98.9161 27.6318Z" fill="white"/>
<path d="M94.6442 61.1607C94.6442 61.1607 94.2599 62.5226 94.555 62.8253C94.85 63.1279 107.365 62.9766 107.387 62.8253C107.41 62.674 105.465 60.0424 104.235 59.9078C103.005 59.7731 99.072 60.9141 99.072 60.9141C99.072 60.9141 106.257 51.9617 104.147 46.62C103.22 44.2669 97.6556 43.3514 90.5282 46.2296C84.0485 48.8445 85.6102 60.4752 89.1663 61.7494C92.7224 63.0235 94.6442 61.1607 94.6442 61.1607Z" fill="white"/>
<path opacity="0.3" d="M94.6442 61.1607C94.6442 61.1607 94.2599 62.5226 94.555 62.8253C94.85 63.1279 107.365 62.9766 107.387 62.8253C107.41 62.674 105.465 60.0424 104.235 59.9078C103.005 59.7731 99.072 60.9141 99.072 60.9141C99.072 60.9141 106.257 51.9617 104.147 46.62C103.22 44.2669 97.6556 43.3514 90.5282 46.2296C84.0485 48.8445 85.6102 60.4752 89.1663 61.7494C92.7224 63.0235 94.6442 61.1607 94.6442 61.1607Z" fill="white"/>
<path d="M90.9777 46.0026C94.1872 44.7088 100.859 42.8929 103.63 45.6409C105.842 47.9819 104.329 52.0949 103.118 54.6099C101.998 56.8479 100.641 58.9598 99.072 60.9095C99.8044 59.8987 100.496 58.8606 101.136 57.7922C102.87 54.8777 106.016 49.1274 103.584 46.0056C101.057 43.1305 94.1706 44.9085 90.9852 46.0056L90.9777 46.0026Z" fill="#263238"/>
<path d="M92.3063 45.0629C93.0043 44.8548 93.7414 44.8139 94.4581 44.9433C93.7435 45.0211 93.0252 45.061 92.3063 45.0629Z" fill="#263238"/>
<path d="M94.5898 62.8419C94.547 62.8235 94.5101 62.7934 94.4834 62.7552C94.4567 62.717 94.4411 62.6721 94.4385 62.6255C94.4004 62.3534 94.3918 62.0779 94.4127 61.8038C94.4782 60.8963 94.6245 59.9964 94.8501 59.1148C94.897 58.9393 94.9409 58.7637 95.0014 58.5897C94.9802 58.7698 94.9515 58.9499 94.9288 59.1299C94.8788 59.4674 94.7381 60.3905 94.6836 60.74C94.6049 61.2757 94.5141 61.8114 94.4854 62.3516C94.4854 62.5166 94.4309 62.7421 94.6019 62.8419H94.5898Z" fill="#263238"/>
<path d="M94.6049 58.8319C94.6654 59.1436 94.6957 59.4659 94.7305 59.7761C94.8228 60.4495 94.564 59.7322 94.5459 59.4735C94.5162 59.2559 94.5364 59.0344 94.6049 58.8258V58.8319Z" fill="#263238"/>
<path d="M104.851 61.421C105.328 61.7236 105.845 62.3289 105.647 62.9342C105.614 62.3289 105.182 61.9037 104.851 61.421Z" fill="#263238"/>
<path d="M105.791 61.365C106.266 61.6676 106.783 62.2729 106.585 62.8782C106.553 62.2729 106.122 61.8477 105.791 61.365Z" fill="#263238"/>
<path d="M111.593 22.906C111.593 22.906 111.947 19.4679 112.107 19.1743C112.267 18.8807 113.959 18.4706 114.428 18.8141C114.897 19.1577 111.83 23.1753 111.83 23.1753L111.593 22.906Z" fill="#455A64"/>
<path d="M112.382 22.4323C112.34 22.4928 112.298 22.5488 112.26 22.6033C112.054 22.5261 111.853 22.452 111.655 22.3839C111.655 22.3188 111.67 22.2507 111.677 22.1781C111.909 22.2578 112.144 22.3425 112.382 22.4323ZM112.889 20.7678C112.547 20.6452 112.214 20.5271 111.886 20.4167C111.877 20.4833 111.868 20.5514 111.86 20.621C112.178 20.7299 112.503 20.8419 112.835 20.963L113.024 21.0326C113.116 21.0643 113.21 21.0992 113.302 21.1355L113.419 20.963C113.304 20.9191 113.192 20.8767 113.079 20.8389C113.013 20.8041 112.954 20.7829 112.889 20.7602V20.7678ZM113.536 19.1456L113.346 19.079C113.141 19.0048 112.935 18.9277 112.741 18.8656C112.628 18.9004 112.523 18.9367 112.438 18.9746C112.723 19.0714 113.013 19.1698 113.31 19.2772L113.498 19.3438C113.746 19.4316 113.996 19.5254 114.254 19.6222C114.286 19.5572 114.316 19.4966 114.344 19.4376C114.065 19.3317 113.796 19.2318 113.536 19.138V19.1456ZM113.439 18.7188L113.346 19.079C113.33 19.144 113.312 19.2091 113.296 19.2757C113.169 19.7509 113.034 20.2482 112.889 20.7678L112.835 20.963C112.703 21.4275 112.563 21.9072 112.414 22.3975C112.526 22.2462 112.647 22.0782 112.771 21.9012C112.859 21.6061 112.944 21.3155 113.024 21.0326L113.079 20.8389C113.23 20.3183 113.36 19.8174 113.484 19.3423C113.504 19.2772 113.52 19.2106 113.536 19.1456C113.576 18.9942 113.614 18.8429 113.654 18.6992C113.582 18.6946 113.511 18.7037 113.439 18.7113V18.7188Z" fill="#37474F"/>
<path opacity="0.3" d="M111.593 22.906C111.593 22.906 111.981 19.2742 112.652 19.2001C113.322 19.1259 111.842 22.4702 111.593 22.906Z" fill="white"/>
<path d="M111.756 22.8727C111.756 22.8727 114.277 21.8134 114.542 21.7862C115.034 21.7408 115.535 22.6321 115.479 23.0906C115.423 23.5491 111.661 23.142 111.661 23.142L111.756 22.8727Z" fill="#455A64"/>
<path d="M114.878 21.8861L114.546 22.0555L114.369 22.1479C114.394 22.2099 114.419 22.2719 114.445 22.3355L114.625 22.2432C114.766 22.1706 114.905 22.0994 115.041 22.0268C114.992 21.9744 114.937 21.9273 114.878 21.8861ZM114.619 22.2432L114.54 22.0555C114.506 21.9708 114.474 21.8891 114.437 21.8074L114.248 21.8694L114.363 22.1479C114.388 22.2099 114.413 22.2719 114.439 22.3355C114.566 22.6472 114.692 22.9665 114.817 23.2934C114.891 23.2934 114.969 23.2828 115.025 23.2752C114.897 22.9241 114.76 22.5791 114.619 22.2432Z" fill="#37474F"/>
<path d="M113.06 23.0285C113.092 23.1072 113.122 23.1889 113.156 23.2676L112.933 23.2525L112.879 23.1178C112.802 23.1541 112.727 23.192 112.647 23.2313L112.248 23.198L112.805 22.9302C112.747 22.7864 112.69 22.6472 112.632 22.508L112.818 22.4323L112.983 22.8409C113.467 22.6033 113.932 22.3718 114.369 22.1478C114.394 22.2099 114.419 22.2719 114.445 22.3355C114.014 22.5594 113.545 22.791 113.06 23.0285Z" fill="#37474F"/>
<path opacity="0.3" d="M111.756 22.8727C111.756 22.8727 114.428 21.7347 114.736 22.1735C115.043 22.6124 112.154 22.8772 111.756 22.8727Z" fill="white"/>
<path d="M98.9494 27.6863C99.0826 28.1735 108.922 30.802 109.677 30.451C110.241 30.1877 112.219 23.316 111.768 22.6986C111.577 22.4384 111.201 23.083 106.575 25.029C104.429 25.9324 98.8405 27.2928 98.9494 27.6863Z" fill="#455A64"/>
<path d="M100.345 27.0416C100.345 27.0376 100.345 27.0336 100.345 27.0295L100.155 27.0961C100.155 27.0996 100.155 27.1032 100.155 27.1067C100.189 27.202 100.228 27.3004 100.261 27.3988C100.326 27.3806 100.392 27.3624 100.458 27.3473C100.419 27.2505 100.381 27.1415 100.345 27.0416ZM100.526 27.5365L100.333 27.5909C100.425 27.8497 100.52 28.1145 100.615 28.3869L100.853 28.4626C100.744 28.1448 100.635 27.8346 100.526 27.5365ZM102.757 28.6623C102.737 28.5973 102.714 28.5352 102.695 28.4717C102.527 27.9753 102.359 27.4971 102.194 27.0432C102.17 26.9796 102.147 26.916 102.126 26.854L102.002 26.5241L101.806 26.5846C101.847 26.6906 101.89 26.8026 101.929 26.913C101.953 26.9751 101.976 27.0371 102 27.1022C102.165 27.5561 102.335 28.0358 102.501 28.5322C102.522 28.5942 102.545 28.6593 102.565 28.7244L102.655 28.9983L102.888 29.0633C102.846 28.9287 102.801 28.7925 102.757 28.6623ZM106.062 27.5531L105.871 27.6212C106.029 28.0883 106.186 28.5715 106.34 29.0709C106.405 29.0497 106.467 29.027 106.532 29.0028C106.379 28.511 106.219 28.0268 106.062 27.5531ZM106.062 27.5531L105.871 27.6212C106.029 28.0883 106.186 28.5715 106.34 29.0709C106.405 29.0497 106.467 29.027 106.532 29.0028C106.379 28.511 106.219 28.0268 106.062 27.5531ZM106.062 27.5531L105.871 27.6212C106.029 28.0883 106.186 28.5715 106.34 29.0709C106.405 29.0497 106.467 29.027 106.532 29.0028C106.379 28.511 106.219 28.0268 106.062 27.5531ZM104.417 28.1251C104.394 28.0601 104.374 27.9965 104.352 27.9314C104.182 27.4336 104.011 26.9539 103.846 26.4999C103.822 26.4379 103.798 26.3743 103.775 26.3123L103.665 26.0096C103.6 26.0308 103.535 26.0505 103.468 26.0686C103.507 26.17 103.544 26.2699 103.583 26.3713C103.606 26.4348 103.63 26.4984 103.654 26.5635C103.822 27.0174 103.992 27.4956 104.158 27.9935C104.181 28.0555 104.202 28.1206 104.223 28.1841C104.374 28.6169 104.514 29.0648 104.653 29.5218L104.86 29.5748H104.883C104.884 29.5708 104.884 29.5667 104.883 29.5627C104.728 29.083 104.574 28.5988 104.417 28.1312V28.1251ZM106.062 27.5531L105.871 27.6212C106.029 28.0883 106.186 28.5715 106.34 29.0709C106.405 29.0497 106.467 29.027 106.532 29.0028C106.379 28.511 106.219 28.0268 106.062 27.5531ZM106.062 27.5531L105.871 27.6212C106.029 28.0883 106.186 28.5715 106.34 29.0709C106.405 29.0497 106.467 29.027 106.532 29.0028C106.379 28.511 106.219 28.0268 106.062 27.5531ZM106.062 27.5531L105.871 27.6212C106.029 28.0883 106.186 28.5715 106.34 29.0709C106.405 29.0497 106.467 29.027 106.532 29.0028C106.379 28.511 106.219 28.0268 106.062 27.5531ZM106.842 30.05C106.759 29.7614 106.675 29.4759 106.59 29.1935C106.57 29.1299 106.55 29.0648 106.532 29.0028C106.381 28.5049 106.219 28.0207 106.062 27.5531C106.04 27.488 106.018 27.426 105.995 27.3609C105.824 26.8616 105.65 26.3804 105.484 25.9294C105.459 25.8643 105.435 25.8023 105.412 25.7387C105.381 25.6525 105.347 25.5677 105.316 25.486L105.125 25.5496C105.157 25.6343 105.189 25.7221 105.222 25.8084C105.246 25.8689 105.267 25.9324 105.291 25.9975C105.461 26.4515 105.632 26.9297 105.806 27.429C105.329 27.5985 104.843 27.768 104.352 27.9314C104.374 27.9965 104.394 28.0601 104.417 28.1251C104.91 27.9602 105.394 27.7907 105.871 27.6212C106.029 28.0883 106.186 28.5715 106.34 29.0709C106.361 29.136 106.381 29.198 106.399 29.2631C106.473 29.5052 106.55 29.7488 106.617 29.997L106.842 30.05ZM108.658 30.0621C108.522 29.5627 108.378 29.0709 108.227 28.5912C108.725 28.402 109.208 28.2144 109.671 28.0283C109.65 27.9647 109.628 27.9012 109.609 27.8391C109.147 28.0222 108.664 28.2099 108.168 28.399C108.017 27.8996 107.85 27.4139 107.69 26.9478C107.666 26.8828 107.644 26.8192 107.623 26.7556C107.449 26.2532 107.274 25.7735 107.101 25.3226C107.077 25.2575 107.053 25.1955 107.032 25.1319C106.997 25.0442 106.962 24.9594 106.93 24.8717C106.87 24.9019 106.814 24.9261 106.759 24.9519C106.759 24.9519 106.752 24.9519 106.747 24.9519C106.782 25.0366 106.814 25.1213 106.846 25.2076L106.918 25.3983C107.088 25.8522 107.263 26.3274 107.439 26.8298C106.971 27.0084 106.49 27.1864 105.997 27.364C106.019 27.429 106.042 27.4911 106.063 27.5561C106.555 27.3776 107.038 27.2005 107.505 27.0235C107.667 27.4896 107.828 27.9753 107.983 28.4747C108.003 28.5382 108.024 28.6003 108.044 28.6654C108.193 29.1445 108.337 29.6343 108.474 30.1347C108.492 30.1998 108.51 30.2648 108.527 30.3284C108.527 30.3466 108.534 30.3662 108.54 30.3844L108.758 30.4177C108.745 30.3647 108.729 30.3102 108.716 30.2664L108.658 30.0621ZM109.857 27.9541C109.837 27.8891 109.816 27.827 109.796 27.7619C109.634 27.2626 109.471 26.7778 109.308 26.3077C109.286 26.2457 109.264 26.1806 109.241 26.1186C109.062 25.6131 108.882 25.1304 108.711 24.6825C108.687 24.6174 108.663 24.5584 108.639 24.4949C108.596 24.3859 108.554 24.28 108.513 24.1741L108.33 24.2573C108.371 24.3602 108.41 24.4646 108.453 24.572L108.524 24.7597C108.698 25.2136 108.875 25.6888 109.053 26.1927C109.076 26.2563 109.099 26.3198 109.12 26.3849C109.286 26.851 109.449 27.3357 109.609 27.8391C109.628 27.9012 109.65 27.9647 109.671 28.0283C109.822 28.5065 109.973 28.9983 110.111 29.4991C110.12 29.537 110.131 29.5748 110.143 29.6157C110.163 29.5672 110.184 29.5143 110.203 29.4643C110.223 29.4144 110.244 29.363 110.264 29.313C110.135 28.853 110.001 28.402 109.86 27.9602L109.857 27.9541ZM110.916 25.6389C110.892 25.5768 110.869 25.5118 110.847 25.4497C110.663 24.9413 110.482 24.4616 110.308 24.0152L110.235 23.829C110.179 23.6898 110.126 23.5551 110.075 23.425L109.893 23.5143C109.945 23.6414 109.998 23.773 110.044 23.9077C110.069 23.9683 110.093 24.0318 110.117 24.0938C110.29 24.5478 110.471 25.0215 110.657 25.5299C110.677 25.592 110.7 25.6555 110.724 25.7176C110.843 26.0505 110.962 26.3955 111.081 26.7496C111.113 26.6331 111.145 26.5181 111.175 26.4015C111.096 26.1473 111.007 25.8886 110.919 25.6449L110.916 25.6389ZM111.816 23.1314C111.761 22.9907 111.665 22.7864 111.611 22.6442C111.546 22.664 111.483 22.6888 111.422 22.7183C111.484 22.8696 111.573 23.0679 111.633 23.2147C111.658 23.2752 111.682 23.3372 111.706 23.4023C111.73 23.4674 111.761 23.537 111.789 23.6081C111.801 23.5173 111.809 23.4326 111.816 23.3539C111.824 23.2752 111.827 23.2207 111.829 23.1617C111.829 23.1556 111.824 23.1481 111.82 23.1375L111.816 23.1314ZM100.261 27.4018C99.8377 27.5198 99.413 27.6323 98.9872 27.7392C98.9993 27.7498 99.013 27.7589 99.0296 27.771L99.0856 27.8058C99.1343 27.8353 99.1848 27.8616 99.2369 27.8845C99.6011 27.7927 99.9653 27.6959 100.329 27.594C100.308 27.5259 100.286 27.4623 100.261 27.4018ZM111.82 23.1405C111.759 23.1693 111.698 23.198 111.636 23.2237C111.208 23.4159 110.744 23.6202 110.238 23.8381C110.178 23.8623 110.116 23.8896 110.054 23.9168C109.607 24.1075 109.138 24.3027 108.642 24.5039C108.581 24.5312 108.519 24.5554 108.456 24.5811C108.002 24.7642 107.526 24.9534 107.035 25.141L106.844 25.2136C106.381 25.3932 105.904 25.5713 105.412 25.7478L105.222 25.8174C104.75 25.9869 104.265 26.1564 103.775 26.3213L103.583 26.3834C103.105 26.5453 102.618 26.7027 102.126 26.8555L101.929 26.9145C101.443 27.0659 100.951 27.2081 100.458 27.3503C100.479 27.4124 100.502 27.4775 100.526 27.5395C101.023 27.4003 101.514 27.255 102 27.1037C102.065 27.0855 102.129 27.0659 102.194 27.0447C102.689 26.8923 103.176 26.736 103.654 26.5756C103.822 27.0295 103.992 27.5077 104.158 28.0056C104.223 27.9859 104.287 27.9632 104.352 27.9405C104.182 27.4427 104.011 26.963 103.846 26.509C104.335 26.344 104.819 26.1761 105.291 26.0066C105.461 26.4606 105.632 26.9387 105.806 27.4381C105.329 27.6076 104.843 27.7771 104.352 27.9405C104.374 28.0056 104.394 28.0691 104.417 28.1342C104.91 27.9693 105.394 27.7998 105.871 27.6303L106.062 27.5622C106.553 27.3836 107.036 27.2066 107.504 27.0295C107.567 27.0023 107.629 26.9811 107.693 26.9569C108.186 26.7677 108.664 26.5801 109.123 26.394C109.102 26.3289 109.079 26.2654 109.056 26.2018C108.597 26.3874 108.121 26.5751 107.626 26.7647C107.452 26.2623 107.277 25.7826 107.104 25.3317C107.595 25.141 108.071 24.9534 108.527 24.7688C108.701 25.2227 108.878 25.6979 109.056 26.2018L109.244 26.1276C109.065 25.6222 108.885 25.1395 108.714 24.6916C109.211 24.4918 109.683 24.2951 110.126 24.1029L110.311 24.0242C110.816 23.8078 111.284 23.602 111.709 23.4189L111.82 23.3705C111.82 23.3024 111.83 23.2374 111.832 23.1783V23.1466L111.82 23.1405ZM107.431 26.8358C106.963 27.0144 106.482 27.1925 105.989 27.37C105.818 26.8706 105.644 26.3894 105.478 25.9385C105.968 25.7599 106.445 25.5819 106.911 25.4043C107.086 25.8507 107.262 26.3304 107.437 26.8328L107.431 26.8358ZM110.843 25.4588L110.66 25.539C110.206 25.7282 109.737 25.9264 109.238 26.1276L109.05 26.2018C108.591 26.3874 108.115 26.5751 107.62 26.7647L107.434 26.8358C106.966 27.0144 106.485 27.1925 105.992 27.37C105.93 27.3942 105.865 27.4169 105.803 27.4381C105.326 27.6076 104.84 27.7771 104.349 27.9405C104.284 27.9632 104.22 27.9859 104.155 28.0056C103.674 28.166 103.186 28.3218 102.692 28.4732C102.627 28.4913 102.562 28.5125 102.498 28.5322L101.776 28.7456L101.87 28.7743C101.959 28.7985 102.047 28.8242 102.136 28.8515L102.562 28.7244L102.754 28.6638C103.247 28.5125 103.737 28.3612 104.22 28.1947L104.414 28.1327C104.907 27.9677 105.391 27.7983 105.868 27.6288L106.059 27.5607C106.55 27.3821 107.033 27.2051 107.501 27.028C107.564 27.0008 107.626 26.9796 107.69 26.9554C108.183 26.7662 108.661 26.5786 109.12 26.3925C109.183 26.3667 109.245 26.3425 109.308 26.3153C109.807 26.1135 110.281 25.9168 110.73 25.7251L110.916 25.6464C111.093 25.5723 111.266 25.4951 111.434 25.424C111.453 25.3438 111.471 25.2606 111.493 25.1804C111.286 25.2701 111.071 25.3619 110.85 25.4558L110.843 25.4588ZM109.793 27.771L109.606 27.8482C109.144 28.0313 108.661 28.2189 108.165 28.4081C108.014 27.9087 107.847 27.423 107.687 26.9569C107.623 26.9811 107.561 27.0023 107.498 27.0295C107.66 27.4956 107.82 27.9814 107.976 28.4807C107.504 28.6593 107.021 28.8363 106.526 29.0119C106.461 29.0361 106.399 29.0588 106.334 29.08C105.856 29.2495 105.369 29.4164 104.872 29.5809H104.854H104.877L105.216 29.6656C105.614 29.5324 106.006 29.3962 106.393 29.2601C106.457 29.2374 106.522 29.2147 106.584 29.1904C107.08 29.0164 107.564 28.8379 108.036 28.6593L108.224 28.5882C108.722 28.399 109.205 28.2114 109.668 28.0252L109.854 27.9511C110.196 27.8134 110.532 27.6772 110.853 27.544L110.925 27.2959C110.568 27.4563 110.19 27.6106 109.799 27.768L109.793 27.771ZM110.108 29.5082C109.64 29.6928 109.153 29.8835 108.655 30.0712L108.466 30.1408L108.029 30.3027L108.419 30.3723L108.516 30.3345C108.578 30.3133 108.643 30.2891 108.705 30.2648C109.182 30.0848 109.643 29.9077 110.091 29.7292C110.105 29.6959 110.122 29.6611 110.135 29.6247C110.149 29.5884 110.176 29.5234 110.196 29.4734L110.108 29.5082Z" fill="#37474F"/>
<path opacity="0.1" d="M110.971 27.1672C110.489 28.8227 109.934 30.3299 109.677 30.451C109.062 30.737 102.425 29.0467 99.9088 28.1478C102.434 28.8923 108.869 29.9123 109.46 29.6217C109.867 29.422 110.716 27.6802 110.971 27.1672Z" fill="white"/>
<path d="M99.0856 40.4944C99.0856 40.4944 103.825 43.6964 106.531 44.2442C109.236 44.792 114.601 40.5958 114.601 40.5958C114.601 40.5958 116.686 43.8522 117.007 44.2442C117.328 44.6361 119.027 44.8495 119.34 44.5332C119.654 44.2169 119.631 42.7173 119.34 41.885C119.05 41.0527 115.919 37.4588 114.667 37.5708C113.416 37.6828 109.777 39.5531 109.506 39.5153C109.082 39.4563 106.746 36.6099 105.033 34.4187" fill="white"/>
<path opacity="0.3" d="M99.0856 40.4944C99.0856 40.4944 103.825 43.6964 106.531 44.2442C109.236 44.792 114.601 40.5958 114.601 40.5958C114.601 40.5958 116.686 43.8522 117.007 44.2442C117.328 44.6361 119.027 44.8495 119.34 44.5332C119.654 44.2169 119.631 42.7173 119.34 41.885C119.05 41.0527 115.919 37.4588 114.667 37.5708C113.416 37.6828 109.777 39.5531 109.506 39.5153C109.082 39.4563 106.746 36.6099 105.033 34.4187" fill="white"/>
<path opacity="0.1" d="M119.34 44.5332C119.027 44.8555 117.328 44.6361 117.007 44.2442C116.686 43.8522 114.601 40.5958 114.601 40.5958C114.601 40.5958 109.235 44.7905 106.529 44.2442C104.777 43.8901 102.171 42.4192 100.555 41.4296C101.486 41.9289 105.865 42.9882 107.089 43.1395C108.363 43.2908 114.601 40.3536 114.601 40.3536C114.601 40.3536 117.255 43.6828 117.523 43.8341C117.791 43.9854 118.836 44.3864 119.15 44.2881C119.342 44.2275 119.523 43.5905 119.558 43.1441C119.59 43.7584 119.522 44.3501 119.34 44.5332Z" fill="white"/>
<path d="M118.025 43.2061C118.502 43.5088 119.02 44.1141 118.821 44.7194C118.788 44.1141 118.357 43.6873 118.025 43.2061Z" fill="#263238"/>
<path d="M118.942 42.6855C119.33 43.1214 119.738 43.9037 119.377 44.4545C119.514 43.828 119.151 43.2621 118.942 42.6855Z" fill="#263238"/>
<path d="M100.181 41.3237C101.967 42.2135 103.749 43.1396 105.618 43.8402L106.086 43.9915C106.166 44.0097 106.363 44.0641 106.438 44.0823C108.86 44.4455 112.541 41.8578 114.601 40.5928C113.012 41.817 111.346 42.9792 109.5 43.7918C108.493 44.2034 107.358 44.6044 106.254 44.338C105.355 44.105 104.508 43.6919 103.681 43.2894C102.48 42.6947 101.318 42.0303 100.183 41.3222L100.181 41.3237Z" fill="#263238"/>
<path d="M114.132 39.8724C114.852 40.9226 115.598 42.0439 116.25 43.1365C115.409 42.1426 114.697 41.0458 114.132 39.8724Z" fill="#263238"/>
<path d="M100.874 42.2316C101.504 42.3541 102.085 42.5342 102.71 42.6855C102.066 42.7265 101.425 42.568 100.874 42.2316Z" fill="#263238"/>
<path d="M105.652 35.2041L107.864 37.704C108.398 38.2684 108.879 38.904 109.503 39.3685C109.761 39.2824 110.013 39.1814 110.259 39.0659C111.279 38.6271 112.298 38.1701 113.355 37.8008C113.754 37.6481 114.168 37.5415 114.59 37.483C114.742 37.4759 114.894 37.5071 115.031 37.5738C115.543 37.8079 116.014 38.1226 116.426 38.506C115.984 38.1744 115.497 37.9074 114.979 37.7131C114.861 37.6634 114.733 37.6437 114.605 37.6556C114.205 37.7382 113.813 37.8609 113.437 38.0218C112.544 38.3743 111.272 38.9524 110.379 39.3443C110.132 39.4427 109.84 39.5819 109.577 39.6561C109.512 39.674 109.443 39.667 109.383 39.6364C109.161 39.497 108.961 39.3251 108.79 39.1264C108.403 38.7163 108.033 38.2941 107.685 37.8629C106.976 37.0018 106.302 36.1136 105.652 35.2086V35.2041Z" fill="#263238"/>
<path d="M106.599 35.7156C106.782 35.8923 106.928 36.1038 107.029 36.3376C107.13 36.5714 107.183 36.8229 107.186 37.0775C106.998 36.6038 106.773 36.1892 106.599 35.7156Z" fill="#263238"/>
<path d="M101.805 13.3287C103.267 14.6543 103.669 20.0656 104.983 21.942C106.296 23.8185 110.974 23.2389 111.656 20.624C112.339 18.0091 108.654 13.651 106.508 13.1774C104.362 12.7037 101.805 13.3287 101.805 13.3287Z" fill="white"/>
<path opacity="0.6" d="M101.805 13.3287C103.267 14.6543 103.669 20.0656 104.983 21.942C106.296 23.8185 110.974 23.2389 111.656 20.624C112.339 18.0091 108.654 13.651 106.508 13.1774C104.362 12.7037 101.805 13.3287 101.805 13.3287Z" fill="white"/>
<path d="M84.7794 25.1683C84.7401 25.6026 86.506 27.0296 87.2778 26.9297C88.0495 26.8298 88.7638 24.4208 88.4339 23.9108C88.104 23.4008 84.8294 24.616 84.7794 25.1683Z" fill="#263238"/>
<path d="M86.9842 26.4832C87.6016 26.9372 89.3645 28.5503 90.1015 28.1327C90.728 27.7544 90.8702 26.8827 90.9928 26.2094C90.955 26.9251 90.8415 27.8421 90.1681 28.2613C89.2828 28.7501 87.5956 27.0795 86.9903 26.4832H86.9842Z" fill="#263238"/>
<path d="M88.042 28.0071C88.272 28.1342 88.5323 28.331 88.7774 28.3794C88.7577 28.3794 88.7577 28.4081 88.7562 28.4006C88.3022 27.7726 87.6879 27.2778 87.1991 26.6694C87.6408 27.0003 88.052 27.37 88.4278 27.7741C88.5898 27.9648 88.7865 28.1358 88.8712 28.3794C88.8712 28.7426 88.1464 28.0994 88.042 28.0071Z" fill="#263238"/>
<path opacity="0.2" d="M95.9804 18.4737C97.7736 17.4523 99.4609 18.3224 100.378 19.9234C101.121 21.2263 100.814 23.1632 99.0917 24.1438C97.3696 25.1244 95.4145 24.1695 94.7169 22.9453C94.0193 21.7211 94.0389 19.5769 95.9804 18.4737Z" fill="white"/>
<path d="M95.3751 20.509C96.2604 19.8068 97.2455 20.1337 97.875 20.9266C98.0108 21.1057 98.1098 21.31 98.166 21.5276C98.2222 21.7452 98.2346 21.9718 98.2025 22.1943C98.1704 22.4167 98.0945 22.6306 97.979 22.8234C97.8635 23.0162 97.7109 23.1842 97.53 23.3176C96.6795 23.9925 95.5416 23.6384 95.0634 23.0331C94.9159 22.8478 94.8069 22.6349 94.7426 22.407C94.6784 22.1791 94.6602 21.9406 94.6893 21.7056C94.7183 21.4705 94.7939 21.2437 94.9117 21.0382C95.0294 20.8327 95.187 20.6528 95.3751 20.509Z" fill="#263238"/>
<path d="M95.422 20.7436C96.2543 20.0838 97.1789 20.3895 97.7721 21.137C97.8997 21.3053 97.9927 21.4973 98.0455 21.7018C98.0983 21.9063 98.11 22.1192 98.0799 22.3283C98.0498 22.5373 97.9784 22.7383 97.87 22.9196C97.7616 23.1008 97.6182 23.2588 97.4483 23.3842C96.6493 24.0182 95.5794 23.6868 95.1285 23.1163C94.9902 22.942 94.888 22.7419 94.8278 22.5276C94.7676 22.3134 94.7507 22.0893 94.778 21.8684C94.8054 21.6476 94.8764 21.4344 94.9869 21.2412C95.0975 21.0481 95.2454 20.8789 95.422 20.7436Z" fill="white"/>
<path d="M95.301 21.1037C95.9804 20.565 96.7355 20.8162 97.2198 21.4245C97.324 21.562 97.3999 21.7189 97.443 21.8859C97.4861 22.053 97.4957 22.2269 97.471 22.3977C97.4464 22.5684 97.3881 22.7326 97.2995 22.8807C97.2109 23.0287 97.0938 23.1577 96.955 23.2601C96.3027 23.7776 95.4296 23.5053 95.0619 23.0422C94.9478 22.9002 94.8634 22.7369 94.8136 22.5617C94.7638 22.3865 94.7496 22.2032 94.7719 22.0225C94.7942 21.8417 94.8525 21.6673 94.9434 21.5095C95.0343 21.3517 95.1559 21.2137 95.301 21.1037Z" fill="#263238"/>
</g>
<g filter="url(#filter2_d_40_86)">
<rect x="2" y="23.9167" width="72" height="72" rx="24" transform="rotate(-15 2 23.9167)" fill="#FE6230"/>
<path d="M21.534 41.3198C21.7083 39.7869 22.4278 35.483 22.696 35.1121C22.9641 34.7412 26.0613 36.2003 27.3886 39.0942L21.534 41.3198Z" fill="white"/>
<path opacity="0.1" d="M21.8737 41.1902C22.0033 39.9366 22.544 36.4506 22.7362 36.1467C22.9284 35.8428 25.2814 37.1545 26.2736 39.5209L21.8737 41.1902Z" fill="black"/>
<path d="M23.1853 40.6784C23.1853 40.6784 23.2814 40.0594 23.1652 39.8896C23.0777 39.7709 22.9781 39.6615 22.868 39.5634C23.0508 39.6121 23.2255 39.6874 23.3864 39.7868C23.4784 39.8726 23.5629 39.966 23.639 40.0662C23.6385 39.8158 23.5407 39.5754 23.3663 39.3958C23.1417 39.2224 22.8999 39.0726 22.6446 38.9489C22.6446 38.9489 23.5943 38.9489 23.9317 39.1589C24.2691 39.369 24.6736 39.5164 24.8658 39.617C25.1021 39.7012 25.3472 39.7581 25.5965 39.7868L23.1853 40.6784Z" fill="white"/>
<path d="M35.8085 59.5116C35.2901 59.8892 33.4622 63.2411 33.8332 64.4277C34.2041 65.6143 36.4566 69.8019 36.6242 70.0522C36.7918 70.3024 38.0096 73.6275 37.9538 73.7817C37.8979 73.9359 36.4141 74.5415 36.4141 74.7873C36.4141 75.0331 40.1235 74.9862 40.1794 74.8789C40.2295 74.6047 40.2541 74.3264 40.2532 74.0476C40.2532 73.9918 42.1816 69.422 42.5168 68.5863C42.852 67.7505 41.9604 63.764 41.9604 63.3931C41.9604 63.0221 41.5246 55.3575 35.8085 59.5116Z" fill="white"/>
<g opacity="0.1">
<path d="M35.8085 59.5116C35.2901 59.8892 33.4622 63.2411 33.8332 64.4277C34.2041 65.6143 36.4566 69.8019 36.6242 70.0522C36.7918 70.3024 38.0096 73.6275 37.9538 73.7817C37.8979 73.9359 36.4141 74.5415 36.4141 74.7873C36.4141 75.0331 40.1235 74.9862 40.1794 74.8789C40.2295 74.6047 40.2541 74.3264 40.2532 74.0476C40.2532 73.9918 42.1816 69.422 42.5168 68.5863C42.852 67.7505 41.9604 63.764 41.9604 63.3931C41.9604 63.0221 41.5246 55.3575 35.8085 59.5116Z" fill="black"/>
</g>
<path d="M29.5115 59.5116C28.993 59.8893 27.9472 63.2412 28.3227 64.4277C28.6981 65.6143 31.8801 69.7528 32.0477 70.0142C32.2153 70.2757 33.6902 73.813 33.6343 73.965C33.5784 74.117 32.3963 74.6242 32.3963 74.8588C32.3963 75.0935 36.1951 74.9884 36.251 74.8812C36.3256 74.4777 36.3771 74.0704 36.4052 73.6611C36.4052 73.6052 38.4655 70.1483 38.8007 69.3126C39.1359 68.4768 40.0655 65.145 40.0655 64.7741C40.0655 64.4032 35.2253 55.3575 29.5115 59.5116Z" fill="white"/>
<path d="M57.8506 51.8224C58.9009 52.8302 60.6774 56.9284 60.7869 58.2826C60.8964 59.6367 60.1009 66.1282 60.1947 66.4076C60.8219 67.6561 61.511 68.8724 62.2595 70.0522C62.3712 70.2265 62.8494 70.8857 62.8651 70.9617C62.9209 71.2209 62.5679 72.0186 62.4382 72.1862C62.3086 72.3538 59.8662 74.4543 59.7187 74.3069C59.5713 74.1594 60.1187 72.7181 60.1187 72.6242C60.1187 72.5304 55.9713 70.2332 55.6853 69.9963C55.149 69.5494 51.234 65.154 50.863 62.7965C50.4921 60.439 54.5993 48.7029 57.8506 51.8224Z" fill="white"/>
<path opacity="0.1" d="M57.2227 51.4045L54.492 68.7114C53.1334 67.1204 51.1222 64.4657 50.863 62.7987C50.5144 60.5999 54.0942 50.1643 57.2227 51.4045Z" fill="black"/>
<path d="M32.126 38.3947C32.7383 37.3198 35.9471 33.7266 36.6153 33.6685C37.2834 33.6104 38.7672 38.3947 39.0085 39.4159C39.2499 40.4371 39.0085 43.9655 39.0085 43.9655L32.126 38.3947Z" fill="white"/>
<path opacity="0.1" d="M32.3137 38.5444C32.7963 37.693 35.1695 34.7881 35.6991 34.7456C36.2287 34.7031 37.4018 38.4863 37.5918 39.293C37.7817 40.0997 37.6141 42.8371 37.6141 42.8371L32.3137 38.5444Z" fill="black"/>
<path d="M33.469 39.4829C33.469 39.4829 34.0969 39.0137 34.1662 38.7433C34.2091 38.5473 34.2315 38.3473 34.2332 38.1467C34.3499 38.374 34.4327 38.6171 34.479 38.8684C34.4733 39.0398 34.4524 39.2103 34.4164 39.3779C34.5462 39.2658 34.6525 39.129 34.7292 38.9756C34.8059 38.8222 34.8515 38.6552 34.8634 38.4841C34.8387 38.101 34.7751 37.7213 34.6734 37.3511C34.6734 37.3511 35.5159 38.3277 35.6075 38.8573C35.6991 39.3868 35.7728 40.1555 35.8421 40.4416C35.9114 40.7276 36.1549 41.646 36.1549 41.646L33.469 39.4829Z" fill="white"/>
<path d="M20.9775 45.056C20.8301 45.427 18.9664 48.5085 19.0804 49.3979C19.1943 50.2872 21.2837 53.6637 25.8378 55.4447C25.8378 55.4447 26.3205 55.8514 26.4322 57.1139C26.5439 58.3765 25.954 61.3798 26.0098 62.2825C26.0449 62.6738 26.1589 63.0539 26.345 63.3998C26.345 63.3998 26.2981 62.2244 26.4456 61.9786C26.4456 61.9786 26.7003 63.5428 26.9417 64.0747C27.1039 64.369 27.3444 64.6126 27.6366 64.7786L27.1495 63.487C27.1495 63.487 27.907 65.0289 30.5863 66.3808C32.8611 67.5271 41.8911 67.1718 42.9548 67.1718C44.0185 67.1718 52.7222 65.8869 53.5535 64.2043C53.8261 63.6479 56.6417 58.5686 56.8562 57.2033C56.9702 56.4659 58.8003 53.5006 58.2729 52.3363C57.7456 51.1721 55.9445 49.1431 54.1456 48.1018C52.7356 47.2862 46.3246 47.1007 41.0867 49.2191C40.9524 49.084 40.8074 48.9599 40.6531 48.8481C40.442 48.705 40.2028 48.6082 39.9515 48.5643C39.9515 48.5643 39.0956 43.4248 38.7984 42.7879C38.5012 42.1511 34.1974 38.683 32.9885 38.2137C31.7796 37.7444 26.9037 38.3858 25.9875 38.5846C25.0713 38.7835 21.7596 40.7611 21.5362 41.3287C21.3127 41.8963 20.9775 45.056 20.9775 45.056Z" fill="white"/>
<path opacity="0.1" d="M35.4131 67.1472C33.3617 67.0489 31.4668 66.8299 30.5863 66.3852C27.9875 65.0668 27.1987 63.5719 27.1518 63.4869L27.6367 64.7741C27.3444 64.6081 27.1039 64.3645 26.9417 64.0702C26.7004 63.5316 26.4456 61.9741 26.4456 61.9741C26.2982 62.2199 26.3451 63.3953 26.3451 63.3953C26.159 63.0494 26.0449 62.6693 26.0099 62.278C25.954 61.3842 26.5417 58.3697 26.4322 57.1094C26.3227 55.8491 25.8378 55.4402 25.8378 55.4402C21.2748 53.6525 19.1921 50.285 19.0804 49.3934C18.9687 48.5017 20.8368 45.427 20.9776 45.056C20.9776 45.056 21.3105 41.8896 21.534 41.3198C21.2122 43.0963 21.3798 45.2482 21.3418 45.3979C21.3038 45.5476 20.0346 48.6068 20.3363 49.3978C20.6379 50.1889 24.8054 54.7966 27.3864 55.4111C27.3864 55.4111 28.2422 57.8446 28.1372 58.9597C28.0322 60.0747 28.2288 63.1585 28.4456 63.8624C28.6624 64.5663 29.5964 65.0959 30.421 65.8512C31.2455 66.6064 35.1673 67.107 35.4131 67.1472Z" fill="black"/>
<path d="M45.7637 66.7003C44.8698 66.9103 43.9626 67.1137 43.0464 67.2611C41.5045 67.3997 39.9627 67.3684 38.4163 67.355C37.1784 67.317 35.9359 67.3259 34.7091 67.1025C33.4801 66.7762 32.4097 66.1215 31.4198 65.3885C31.9539 65.6969 32.4969 65.9852 33.0555 66.2377C34.7181 67.1047 36.6041 66.9483 38.4186 67.0243C39.947 67.0399 41.4911 67.1092 43.0173 67.06C43.6475 66.9908 45.1134 66.7807 45.7592 66.7003H45.7637Z" fill="#263238"/>
<path d="M25.8378 55.4446C26.2244 55.5698 29.5807 55.2413 30.307 54.9977C30.9103 54.7988 34.4253 52.2805 37.1024 50.4503C38.6666 49.3799 40.09 48.5174 40.1995 48.5174C40.1995 48.5174 40.9884 48.9017 41.0934 49.0917C41.0934 49.0917 39.5292 49.59 39.0711 49.8716C38.613 50.1531 37.2588 51.038 37.2588 51.038C37.2588 51.038 31.9896 55.677 30.7651 55.9541C29.5405 56.2312 26.1752 56.2692 26.1752 56.2692C26.0624 56.1225 25.972 55.9598 25.9071 55.7865C25.8713 55.6346 25.8378 55.4446 25.8378 55.4446Z" fill="#455A64"/>
<path d="M37.0421 51.1676C37.7409 50.5933 38.4886 50.0811 39.2767 49.637C39.8606 49.425 40.4673 49.2818 41.0844 49.2101C40.5102 49.4336 39.9269 49.6012 39.3616 49.8358C38.6376 50.2314 37.7974 50.8347 37.0398 51.1766L37.0421 51.1676Z" fill="#263238"/>
<path d="M39.9515 48.5554C39.6789 48.7207 39.3057 48.9755 39.0308 49.1453C38.8895 49.2498 38.7545 49.3624 38.6264 49.4827C38.4863 49.6038 38.3368 49.7137 38.1794 49.8112C38.3529 49.5333 38.5576 49.2761 38.7895 49.0447C39.1287 48.7836 39.5298 48.615 39.9537 48.5554H39.9515Z" fill="#263238"/>
<path d="M23.811 43.1879C22.792 43.0829 22.1775 44.0482 22.0546 45.2348C21.9563 46.1957 22.4613 47.2459 23.4378 47.3398C24.4144 47.4336 25.1361 46.3476 25.2255 45.4448C25.3149 44.5421 24.9149 43.3019 23.811 43.1879Z" fill="#263238"/>
<path d="M23.8825 43.4471C22.9261 43.3488 22.3474 44.2538 22.2334 45.3711C22.1395 46.2649 22.6133 47.2548 23.5317 47.3487C24.4501 47.4425 25.1294 46.4169 25.2166 45.561C25.3037 44.7052 24.9216 43.5521 23.8825 43.4471Z" fill="white"/>
<path d="M24.1887 43.4761C23.4378 43.4001 22.9865 44.1085 22.8971 44.9822C22.8233 45.6906 23.1943 46.4571 23.9138 46.5308C24.6334 46.6045 25.163 45.8023 25.2322 45.1364C25.3015 44.4705 25.0088 43.5588 24.1887 43.4761Z" fill="#263238"/>
<path d="M31.3974 43.1164C32.7829 42.8505 33.6857 43.7868 33.9225 45.0247C33.971 45.3024 33.9636 45.5869 33.9007 45.8616C33.8378 46.1363 33.7207 46.3958 33.5563 46.6247C33.3919 46.8536 33.1835 47.0474 32.9432 47.1947C32.703 47.3421 32.4358 47.44 32.1572 47.4828C30.8164 47.7375 29.7707 46.6851 29.5897 45.7398C29.5336 45.4486 29.536 45.1492 29.5969 44.859C29.6577 44.5688 29.7757 44.2935 29.9439 44.0494C30.1122 43.8052 30.3273 43.5969 30.5769 43.4368C30.8264 43.2766 31.1054 43.1677 31.3974 43.1164Z" fill="#263238"/>
<path d="M31.3126 43.4024C32.6176 43.1521 33.4645 44.0281 33.688 45.1901C33.7322 45.4504 33.7242 45.717 33.6645 45.9743C33.6047 46.2316 33.4944 46.4744 33.3398 46.6886C33.1853 46.9028 32.9897 47.0841 32.7644 47.222C32.5392 47.3599 32.2887 47.4516 32.0276 47.4917C30.7763 47.7308 29.7931 46.7431 29.6143 45.8537C29.5628 45.5811 29.566 45.3009 29.6237 45.0295C29.6815 44.7581 29.7926 44.5009 29.9506 44.2728C30.1086 44.0447 30.3104 43.8503 30.5442 43.7009C30.778 43.5514 31.0392 43.45 31.3126 43.4024Z" fill="white"/>
<path d="M31.8511 43.5052C32.9147 43.3019 33.6075 44.0169 33.7907 44.9711C33.8267 45.1837 33.82 45.4014 33.7711 45.6115C33.7222 45.8215 33.632 46.0198 33.5058 46.1946C33.3796 46.3695 33.2199 46.5175 33.0359 46.6301C32.852 46.7427 32.6475 46.8176 32.4343 46.8504C31.997 46.9206 31.5494 46.8208 31.1833 46.5715C30.8173 46.3222 30.5605 45.9423 30.4656 45.5096C30.4231 45.2869 30.4254 45.0579 30.4722 44.836C30.5191 44.6141 30.6096 44.4038 30.7386 44.2173C30.8675 44.0307 31.0323 43.8717 31.2233 43.7494C31.4143 43.6272 31.6277 43.5442 31.8511 43.5052Z" fill="#263238"/>
<path d="M27.5405 45.9677C27.5271 46.0951 26.7674 46.5688 26.6802 46.5688C26.5931 46.5688 25.8132 46.104 25.7864 45.9789C25.7596 45.8538 26.4746 45.8024 26.6579 45.8001C26.8411 45.7979 27.5584 45.8426 27.5405 45.9677Z" fill="#263238"/>
<path d="M25.2322 46.884C25.3596 47.0627 25.487 47.2393 25.6277 47.4002C25.6938 47.4826 25.7687 47.5576 25.8512 47.6236C25.8826 47.6469 25.9196 47.6616 25.9585 47.6661C25.9948 47.6596 26.0288 47.6433 26.0568 47.6191C26.127 47.5555 26.1852 47.4798 26.2288 47.3957C26.2785 47.3045 26.3211 47.2096 26.3562 47.1119C26.4318 46.9132 26.493 46.7093 26.5394 46.5018L26.6266 46.1242L26.7562 46.4907C26.8432 46.7348 26.9509 46.971 27.078 47.1968C27.1383 47.3078 27.2094 47.4126 27.2903 47.5097C27.3596 47.6018 27.4544 47.6717 27.5629 47.7108H27.5986H27.6366C27.6645 47.7085 27.6921 47.704 27.7193 47.6974C27.7775 47.6824 27.8332 47.6591 27.8847 47.6281C27.9943 47.5624 28.0949 47.4827 28.1841 47.3912C28.3678 47.2012 28.5317 46.9931 28.6735 46.77C28.5679 47.018 28.4288 47.2503 28.2601 47.4605C28.1736 47.5696 28.072 47.6659 27.9584 47.7465C27.8363 47.8424 27.6815 47.8866 27.5271 47.8694C27.3785 47.8328 27.245 47.7508 27.145 47.6348C27.0519 47.5306 26.9682 47.4185 26.8947 47.2996C26.7546 47.064 26.6371 46.8156 26.5439 46.5577L26.7674 46.5465C26.714 46.7637 26.6445 46.9766 26.5596 47.1834C26.5146 47.2882 26.4623 47.3898 26.4031 47.4873C26.3429 47.5936 26.2606 47.6858 26.1618 47.7577C26.103 47.7993 26.0328 47.8219 25.9607 47.8225C25.8903 47.8132 25.8246 47.7819 25.773 47.7331C25.6871 47.6572 25.6119 47.57 25.5495 47.4739C25.4263 47.2871 25.3201 47.0897 25.2322 46.884Z" fill="#263238"/>
<path d="M21.6837 46.1107C21.125 46.0862 20.5664 46.0795 20.0077 46.0862C19.4491 46.0929 18.8904 46.1063 18.3318 46.1465C18.0525 46.1577 17.7754 46.1822 17.496 46.2024C17.2167 46.2225 16.9396 46.256 16.6625 46.2873C16.1061 46.3431 15.5452 46.4281 15 46.5107C15.2726 46.4504 15.5452 46.3856 15.8223 46.3364C16.0994 46.2873 16.3743 46.2403 16.6514 46.2024C17.2078 46.1219 17.7687 46.075 18.3251 46.037C18.8815 45.999 19.4424 45.9901 20.0077 46.0012C20.2871 46.0012 20.5686 46.0191 20.8479 46.0348C21.1273 46.0504 21.4066 46.0727 21.6837 46.1107Z" fill="#263238"/>
<path d="M21.4669 46.4437C21.2167 46.4638 20.9641 46.4817 20.7139 46.5085C20.4636 46.5354 20.2111 46.5555 19.9608 46.5845C19.4603 46.6381 18.9597 46.6962 18.4614 46.7722C18.2111 46.8035 17.9631 46.8437 17.715 46.8817L16.9709 47.0091L16.5977 47.0761L16.2268 47.1521C15.9788 47.1946 15.7352 47.2571 15.4872 47.3041C15.9698 47.1566 16.4592 47.027 16.953 46.9242C17.4469 46.8214 17.9452 46.7342 18.4458 46.6605C18.9463 46.5867 19.4491 46.5331 19.9541 46.4974C20.4591 46.4616 20.9619 46.437 21.4669 46.4437Z" fill="#263238"/>
<path d="M21.6211 46.7543C21.4156 46.7968 21.21 46.837 21.0044 46.8839C20.7988 46.9309 20.5932 46.9711 20.3876 47.0203C19.9787 47.1163 19.5698 47.2102 19.1653 47.3152C18.7609 47.4202 18.3519 47.5253 17.9475 47.637C17.543 47.7487 17.1385 47.8605 16.7318 47.9789C16.9285 47.9007 17.1251 47.8269 17.324 47.7554C17.5229 47.6839 17.7218 47.6169 17.9229 47.5543C18.3229 47.4225 18.7296 47.3108 19.1363 47.2057C19.543 47.1007 19.9564 47.0113 20.372 46.9353C20.7876 46.8594 21.201 46.7923 21.6211 46.7543Z" fill="#263238"/>
<path d="M34.5616 46.971C34.9058 46.9263 35.2521 46.904 35.5985 46.8772C35.9449 46.8504 36.2935 46.8459 36.6421 46.8392C37.337 46.8258 38.032 46.8392 38.7269 46.8794C39.4219 46.9196 40.1146 46.98 40.8051 47.0761C41.1492 47.1208 41.4934 47.1789 41.8353 47.237C42.0073 47.2638 42.1771 47.2995 42.347 47.3353L42.8565 47.4425C42.1704 47.3397 41.4844 47.2325 40.7939 47.1632C40.4498 47.123 40.1034 47.0917 39.7593 47.0604C39.4152 47.0291 39.0666 47.0068 38.7202 46.9911C38.0297 46.9442 37.3348 46.9308 36.6421 46.9241C35.9493 46.9174 35.2544 46.933 34.5616 46.971Z" fill="#263238"/>
<path d="M34.832 47.3822C35.4577 47.3822 36.0834 47.409 36.7091 47.4559C37.3348 47.5029 37.9582 47.5744 38.5794 47.6548C39.2007 47.7353 39.8197 47.847 40.4319 47.9766C41.0442 48.1062 41.6543 48.2559 42.2554 48.4235C41.947 48.3632 41.6453 48.285 41.3369 48.2291L40.8766 48.1353L40.4163 48.0526C40.1079 47.9945 39.7995 47.9453 39.4912 47.8939C39.1828 47.8425 38.8744 47.7978 38.5638 47.7576C37.9448 47.6682 37.3236 47.5967 36.7024 47.5342C36.3918 47.5006 36.0789 47.4716 35.7683 47.4448C35.4577 47.418 35.1382 47.4045 34.832 47.3822Z" fill="#263238"/>
<path d="M34.6421 47.7711C35.1628 47.8202 35.679 47.9051 36.1907 47.9945C36.7024 48.0839 37.2141 48.2046 37.7236 48.3275C38.2331 48.4504 38.7337 48.5934 39.232 48.752C39.4823 48.8303 39.7281 48.9129 39.9761 48.9956C40.2241 49.0783 40.4677 49.1744 40.7113 49.266C40.2085 49.123 39.7102 48.9733 39.2074 48.8347C38.7046 48.6962 38.2018 48.5621 37.6946 48.437C37.1873 48.3118 36.6823 48.1912 36.1751 48.0772C35.9203 48.0191 35.6656 47.9677 35.4086 47.9141C35.1516 47.8604 34.8991 47.818 34.6421 47.7711Z" fill="#263238"/>
<path d="M22.7675 41.9946C22.8226 41.8314 22.9152 41.6833 23.0378 41.5622C23.1604 41.4411 23.3096 41.3505 23.4736 41.2974C23.6326 41.2337 23.8039 41.2065 23.9748 41.2177C24.1457 41.2289 24.312 41.2783 24.4613 41.3622C24.3172 41.4403 24.1679 41.5083 24.0144 41.5656C23.6034 41.7322 23.1834 41.8755 22.7563 41.9946H22.7675Z" fill="#263238"/>
<path d="M33.8108 42.3432C33.3897 42.2018 32.9771 42.0362 32.5751 41.8471C32.4286 41.7826 32.2867 41.7079 32.1505 41.6236C32.3043 41.5471 32.4733 41.5061 32.6451 41.5038C32.8169 41.5014 32.9869 41.5378 33.1427 41.6102C33.3041 41.6712 33.4489 41.7693 33.5654 41.8967C33.6818 42.024 33.7667 42.177 33.8131 42.3432H33.8108Z" fill="#263238"/>
<path d="M28.0478 51.7285C27.7465 51.4295 27.4952 51.0839 27.3037 50.705C27.2998 50.6987 27.294 50.6936 27.2872 50.6905C27.2803 50.6873 27.2727 50.6863 27.2653 50.6875C27.2579 50.6887 27.251 50.6921 27.2455 50.6972C27.24 50.7023 27.2362 50.7089 27.2344 50.7162C27.2165 50.8056 27.1696 51.0626 27.1629 51.1028C27.1495 51.0805 27.1383 51.0581 27.1272 51.0358C27.0869 50.9598 27.0534 50.8816 27.0199 50.8011C26.9566 50.6409 26.9065 50.4757 26.8702 50.3073C26.8341 50.1396 26.8124 49.9692 26.8054 49.7978C26.8054 49.6235 26.8054 49.4492 26.8188 49.2749C26.8188 49.2749 26.8054 49.2749 26.8031 49.2749C26.7522 49.4492 26.7252 49.6296 26.7227 49.8112C26.7168 49.9853 26.7265 50.1595 26.7518 50.3319C26.778 50.5048 26.8215 50.6747 26.8814 50.8391C26.9117 50.9251 26.9468 51.0094 26.9864 51.0916C27.0194 51.1735 27.0663 51.2491 27.1249 51.3151C27.1696 51.3575 27.2367 51.3151 27.2344 51.257C27.2322 51.1989 27.2791 50.8749 27.2881 50.8235C27.3657 50.9851 27.4593 51.1385 27.5674 51.2816C27.6978 51.4533 27.8478 51.6093 28.0143 51.7464C28.0389 51.7575 28.0612 51.7285 28.0478 51.7285Z" fill="#263238"/>
<path opacity="0.1" d="M36.4276 45.447C36.9987 46.3784 37.4493 47.3786 37.7683 48.4235C37.9918 49.3173 36.3672 50.4346 35.7169 50.8816C36.1169 50.5151 36.5125 50.1464 36.8767 49.7531C37.1538 49.4201 37.518 49.0827 37.5761 48.6358C37.526 48.3143 37.4374 47.9999 37.3125 47.6995C37.0488 46.9688 36.7136 46.1688 36.4365 45.4359L36.4276 45.447Z" fill="black"/>
<path d="M40.0096 56.334C39.3951 57.353 37.9828 63.2836 38.7493 64.6937C39.5158 66.1037 46.4162 68.9975 46.6642 69.2947C46.9123 69.5919 48.0988 73.851 48.0251 73.9695C47.9513 74.0879 46.6843 74.6264 46.7134 74.8812C46.7357 75.051 49.8418 74.9326 50.0273 74.9326C50.2128 74.9326 50.4407 74.2823 50.4116 74.3292C50.3826 74.3762 53.8015 68.2623 54.4853 67.0556C54.8227 66.4635 53.5535 64.6088 53.5535 64.1998C53.5535 63.7909 56.53 60.1552 56.521 58.2267C56.521 57.1407 54.778 52.7341 50.6597 52.1419C46.5413 51.5498 41.4196 53.9967 40.0096 56.334Z" fill="white"/>
<path opacity="0.1" d="M48.3625 74.0477C47.8016 74.3226 47.2988 74.5304 47.1581 74.7896C47.1313 74.8387 47.1782 74.8968 47.272 74.9616C46.9435 74.9505 46.7201 74.9259 46.7134 74.8812C46.6821 74.6265 47.9513 74.0924 48.0251 73.9695C48.0988 73.8466 46.9078 69.5919 46.6642 69.2947C46.4207 68.9975 39.5135 66.1037 38.7493 64.6937C38.2152 63.7105 38.7493 60.5239 39.3169 58.343C39.1761 59.4044 39.4063 63.6077 40.2956 64.5171C41.185 65.4266 47.2877 68.1774 47.5245 68.5104C47.7614 68.8433 48.729 73.8712 48.3625 74.0477Z" fill="black"/>
<path d="M42.5235 67.2187C41.1828 66.6221 39.6789 66.1014 38.7069 64.935C38.3918 64.5015 38.4186 63.9272 38.403 63.4199C38.4679 61.4366 38.845 59.4759 39.5203 57.61C39.1024 59.7552 38.6398 61.9362 38.7672 64.1283C38.7776 64.3482 38.847 64.5613 38.9683 64.745C39.8733 65.8623 41.3079 66.4567 42.5235 67.2031V67.2187Z" fill="#263238"/>
<path d="M38.8364 58.2826C38.9154 58.9027 38.9452 59.5281 38.9258 60.153C38.7845 59.8637 38.7036 59.5486 38.6883 59.227C38.6729 58.9054 38.7233 58.584 38.8364 58.2826Z" fill="#263238"/>
<path d="M55.6182 53.3419C56.1645 54.5699 56.5874 55.8492 56.8808 57.1608C56.9425 57.4232 56.9509 57.6952 56.9054 57.9608C56.3668 59.9965 55.1579 61.7954 54.0719 63.5719C53.9914 63.7082 53.7591 64.068 53.692 64.2021C53.6719 64.1484 53.7077 64.2691 53.7345 64.3339C54.0272 65.1093 54.4428 65.8646 54.6283 66.6869C54.6413 66.7812 54.6225 66.8772 54.5747 66.9595C54.391 67.3377 54.1741 67.6989 53.9266 68.0389C54.1333 67.6791 54.3154 67.3058 54.4719 66.9216C54.5065 66.8573 54.5161 66.7824 54.4987 66.7115C54.2373 65.8802 53.7792 65.1249 53.4417 64.3115C53.4228 64.2687 53.4143 64.222 53.4172 64.1752C53.5273 63.9126 53.6612 63.6605 53.8172 63.4222C54.8384 61.6345 56.0361 59.8759 56.6216 57.896C56.7333 57.0022 56.3981 56.1262 56.1747 55.2637C56.0026 54.6179 55.8037 53.981 55.6071 53.3419H55.6182Z" fill="#263238"/>
<path d="M62.6393 39.2952C62.8964 39.1131 63.1379 38.9098 63.3611 38.6874C63.3365 38.7366 62.9276 39.5343 62.7756 39.6304C62.6237 39.7265 62.0427 40.2673 61.7812 40.4393C60.0137 43.1477 57.6584 46.4727 56.8808 48.8638C56.2104 50.9062 56.8808 52.352 56.8808 52.352L54.3914 50.0906C53.9445 49.4783 52.7222 47.5297 53.1691 44.227C53.616 40.9242 56.264 36.8528 53.7322 32.3188C51.2004 27.7848 48.6888 29.1032 45.0352 31.2015C45.0352 31.2015 48.7647 25.1212 55.359 25.0005C59.636 24.9201 63.1555 34.3679 62.8494 38.0371C62.9109 37.9313 62.9582 37.8179 62.9902 37.6997C63.0483 37.3958 63.0728 35.95 63.0728 35.95C63.0728 35.95 63.455 37.3534 63.3432 37.9612C63.265 38.4081 62.8494 38.9042 62.5142 39.3332L62.6393 39.2952Z" fill="white"/>
<path d="M53.3501 47.8314C53.8105 48.8325 54.2685 49.8537 54.3602 50.9598C54.0429 49.9073 53.5959 48.9017 53.3501 47.8314Z" fill="#263238"/>
<path d="M53.9088 49.3978C54.003 49.7234 53.9817 50.0716 53.8485 50.3833C53.8294 50.0536 53.8497 49.7228 53.9088 49.3978Z" fill="#263238"/>
<path d="M56.6149 50.0928L56.6574 50.752C56.6574 51.4224 56.8808 52.0413 56.9367 52.6983C56.5445 51.8892 56.4313 50.973 56.6149 50.0928Z" fill="#263238"/>
<path d="M56.6462 51.3442C56.8707 51.6276 57.0753 51.9263 57.2585 52.238C56.9586 52.0184 56.7426 51.7031 56.6462 51.3442Z" fill="#263238"/>
<path opacity="0.1" d="M54.3892 50.086C53.9423 49.4693 52.7222 47.523 53.1691 44.2269C53.616 40.9309 56.264 36.8528 53.7322 32.3188C51.2004 27.7848 48.6888 29.1032 45.0352 31.2015C45.0352 31.2015 47.8284 26.6474 52.8563 25.3446C51.0328 25.9904 49.2362 27.968 48.4474 28.8909C48.4474 28.8909 51.5602 28.444 52.8563 29.4853C54.1523 30.5266 55.9959 34.5757 56.5232 36.7321C57.0506 38.8885 53.8417 43.4001 53.5959 45.6124C53.3568 47.7688 54.3333 49.9631 54.3892 50.086Z" fill="black"/>
</g>
<defs>
<filter id="filter0_d_40_86" x="102.184" y="4.38794" width="91.4058" height="91.4058" filterUnits="userSpaceOnUse" color-interpolation-filters="sRGB">
<feFlood flood-opacity="0" result="BackgroundImageFix"/>
<feColorMatrix in="SourceAlpha" type="matrix" values="0 0 0 0 0 0 0 0 0 0 0 0 0 0 0 0 0 0 127 0" result="hardAlpha"/>
<feOffset dy="4"/>
<feGaussianBlur stdDeviation="3.5"/>
<feColorMatrix type="matrix" values="0 0 0 0 0 0 0 0 0 0 0 0 0 0 0 0 0 0 0.22 0"/>
<feBlend mode="normal" in2="BackgroundImageFix" result="effect1_dropShadow_40_86"/>
<feBlend mode="normal" in="SourceGraphic" in2="effect1_dropShadow_40_86" result="shape"/>
</filter>
<filter id="filter1_d_40_86" x="52.1865" y="0.417114" width="86" height="86" filterUnits="userSpaceOnUse" color-interpolation-filters="sRGB">
<feFlood flood-opacity="0" result="BackgroundImageFix"/>
<feColorMatrix in="SourceAlpha" type="matrix" values="0 0 0 0 0 0 0 0 0 0 0 0 0 0 0 0 0 0 127 0" result="hardAlpha"/>
<feOffset dy="4"/>
<feGaussianBlur stdDeviation="3.5"/>
<feColorMatrix type="matrix" values="0 0 0 0 0 0 0 0 0 0 0 0 0 0 0 0 0 0 0.22 0"/>
<feBlend mode="normal" in2="BackgroundImageFix" result="effect1_dropShadow_40_86"/>
<feBlend mode="normal" in="SourceGraphic" in2="effect1_dropShadow_40_86" result="shape"/>
</filter>
<filter id="filter2_d_40_86" x="0.387909" y="7.66968" width="91.4058" height="91.4058" filterUnits="userSpaceOnUse" color-interpolation-filters="sRGB">
<feFlood flood-opacity="0" result="BackgroundImageFix"/>
<feColorMatrix in="SourceAlpha" type="matrix" values="0 0 0 0 0 0 0 0 0 0 0 0 0 0 0 0 0 0 127 0" result="hardAlpha"/>
<feOffset dy="4"/>
<feGaussianBlur stdDeviation="3.5"/>
<feColorMatrix type="matrix" values="0 0 0 0 0 0 0 0 0 0 0 0 0 0 0 0 0 0 0.22 0"/>
<feBlend mode="normal" in2="BackgroundImageFix" result="effect1_dropShadow_40_86"/>
<feBlend mode="normal" in="SourceGraphic" in2="effect1_dropShadow_40_86" result="shape"/>
</filter>
</defs>
</svg>
