<svg width="191" height="100" viewBox="0 0 191 100" fill="none" xmlns="http://www.w3.org/2000/svg">
<g filter="url(#filter0_d_40_611)">
<rect x="117.431" y="2" width="72" height="72" rx="24" transform="rotate(15 117.431 2)" fill="#009BFE"/>
<path d="M152.981 72.0025L153.057 71.9823C153.117 71.9441 153.16 71.8837 153.177 71.8142C153.193 71.7446 153.181 71.6714 153.144 71.6104L149.664 66.0548C149.548 65.8665 149.509 65.6402 149.558 65.4242L150.023 63.3228C150.031 63.2884 150.032 63.2528 150.026 63.2181C150.02 63.1834 150.007 63.1502 149.988 63.1205C149.969 63.0909 149.944 63.0653 149.915 63.0455C149.886 63.0256 149.853 63.0118 149.819 63.0048C149.75 62.9894 149.678 63.0017 149.618 63.0391C149.558 63.0766 149.516 63.1361 149.5 63.2047L149.035 65.3105C148.995 65.4849 148.99 65.6655 149.02 65.8419C149.05 66.0184 149.114 66.1871 149.21 66.3385L152.685 71.8763C152.714 71.9262 152.759 71.9653 152.812 71.988C152.866 72.0107 152.925 72.0158 152.981 72.0025Z" fill="#37474F"/>
<path d="M155.74 72.6935L155.784 72.6816C155.817 72.6673 155.846 72.6467 155.87 72.6209C155.894 72.5952 155.912 72.5649 155.924 72.5318C155.936 72.4987 155.942 72.4636 155.94 72.4284C155.938 72.3932 155.929 72.3587 155.914 72.327C155.793 72.0408 155.604 71.788 155.364 71.5902C155.124 71.3924 154.84 71.2554 154.536 71.1908C154.229 71.1209 153.911 71.1159 153.603 71.1762C153.294 71.2365 153.001 71.3606 152.743 71.5407C152.689 71.5873 152.655 71.6534 152.649 71.7247C152.643 71.796 152.666 71.8668 152.711 71.9218C152.757 71.976 152.822 72.01 152.893 72.0162C152.963 72.0224 153.034 72.0004 153.088 71.9549C153.282 71.8268 153.5 71.7395 153.728 71.6981C153.957 71.6567 154.192 71.6622 154.418 71.7142C154.642 71.7618 154.851 71.8628 155.027 72.0087C155.203 72.1546 155.341 72.341 155.43 72.5519C155.457 72.6079 155.503 72.6526 155.559 72.6785C155.616 72.7043 155.68 72.7097 155.74 72.6935Z" fill="#37474F"/>
<path d="M155.088 73.8467C155.15 73.8296 155.205 73.7909 155.241 73.7374C155.278 73.6839 155.294 73.6191 155.287 73.5547C155.242 73.2154 155.129 72.8887 154.955 72.5939C154.781 72.2991 154.55 72.0422 154.275 71.8385C154.077 71.6838 153.849 71.572 153.606 71.5104C153.362 71.4487 153.108 71.4386 152.861 71.4806C152.791 71.4942 152.73 71.535 152.69 71.594C152.65 71.653 152.635 71.7253 152.649 71.7952C152.662 71.865 152.703 71.9266 152.762 71.9663C152.821 72.0061 152.894 72.0208 152.963 72.0072C153.138 71.9798 153.317 71.9892 153.488 72.0348C153.659 72.0805 153.818 72.1613 153.956 72.2722C154.171 72.4325 154.352 72.6338 154.489 72.8644C154.626 73.095 154.716 73.3503 154.754 73.6159C154.758 73.6509 154.769 73.6848 154.786 73.7156C154.803 73.7464 154.826 73.7736 154.854 73.7955C154.881 73.8174 154.913 73.8337 154.947 73.8433C154.981 73.853 155.016 73.8558 155.051 73.8517L155.088 73.8467Z" fill="#37474F"/>
<path d="M153.824 74.3515C153.867 74.3402 153.908 74.3179 153.94 74.2866C153.973 74.2553 153.997 74.2161 154.01 74.1728C154.148 73.4482 154.03 72.6981 153.677 72.0506C153.607 71.91 153.507 71.7863 153.384 71.688C153.261 71.5897 153.119 71.5191 152.966 71.4812C152.931 71.4742 152.896 71.4742 152.861 71.4812C152.826 71.4882 152.793 71.502 152.764 71.5218C152.735 71.5417 152.709 71.5671 152.69 71.5968C152.671 71.6264 152.657 71.6596 152.651 71.6944C152.644 71.7288 152.644 71.7642 152.651 71.7986C152.658 71.833 152.671 71.8656 152.691 71.8946C152.711 71.9236 152.736 71.9483 152.766 71.9674C152.795 71.9864 152.828 71.9994 152.863 72.0055C152.94 72.0318 153.011 72.0735 153.071 72.1279C153.131 72.1823 153.18 72.2484 153.215 72.3221C153.486 72.8395 153.587 73.4294 153.502 74.0074C153.491 74.0411 153.487 74.0767 153.489 74.1122C153.492 74.1476 153.501 74.1823 153.517 74.214C153.533 74.2457 153.555 74.2739 153.582 74.297C153.609 74.32 153.641 74.3375 153.675 74.3483C153.723 74.3627 153.775 74.3638 153.824 74.3515Z" fill="#37474F"/>
<path d="M152.361 72.8272C152.394 72.8159 152.425 72.7981 152.452 72.7748C152.478 72.7515 152.5 72.7232 152.515 72.6916C152.531 72.6599 152.54 72.6255 152.542 72.5903C152.544 72.5552 152.539 72.5199 152.528 72.4866C152.513 72.4472 152.508 72.4048 152.512 72.3629C152.517 72.321 152.531 72.2808 152.554 72.2455C152.643 72.1221 152.777 72.0384 152.927 72.0124C152.964 72.0124 153.001 72.0044 153.036 71.989C153.07 71.9736 153.101 71.9511 153.126 71.923C153.151 71.8949 153.17 71.8618 153.182 71.8259C153.193 71.79 153.197 71.7521 153.192 71.7146C153.188 71.6772 153.176 71.641 153.157 71.6086C153.138 71.5762 153.112 71.5481 153.081 71.5264C153.05 71.5046 153.015 71.4895 152.978 71.4822C152.941 71.4749 152.903 71.4755 152.867 71.484C152.712 71.5038 152.564 71.5567 152.432 71.6389C152.3 71.7212 152.187 71.8309 152.101 71.9607C152.035 72.0637 151.994 72.1801 151.98 72.3013C151.966 72.4225 151.98 72.5452 152.02 72.6603C152.032 72.6937 152.049 72.7245 152.073 72.751C152.096 72.7775 152.124 72.7991 152.156 72.8146C152.188 72.8301 152.222 72.8392 152.257 72.8414C152.292 72.8435 152.328 72.8387 152.361 72.8272Z" fill="#37474F"/>
<path d="M158.213 66.7749C158.24 66.7729 158.265 66.766 158.289 66.7547C158.35 66.7165 158.393 66.6561 158.409 66.5866C158.425 66.517 158.413 66.4438 158.376 66.3829L154.898 60.8361C154.84 60.7441 154.801 60.6412 154.783 60.5337C154.764 60.4261 154.768 60.3161 154.793 60.21L155.271 58.1005C155.286 58.0313 155.273 57.9589 155.234 57.8993C155.196 57.8397 155.136 57.7978 155.067 57.7826C155.032 57.7745 154.997 57.7735 154.962 57.7795C154.927 57.7854 154.894 57.7983 154.864 57.8174C154.835 57.8365 154.809 57.8613 154.789 57.8904C154.769 57.9195 154.756 57.9523 154.749 57.9869L154.279 60.0895C154.202 60.442 154.266 60.8104 154.458 61.1163L157.933 66.6541C157.961 66.7009 158.003 66.7378 158.054 66.7594C158.104 66.7811 158.16 66.7865 158.213 66.7749Z" fill="#37474F"/>
<path d="M160.972 67.4661L161.017 67.4542C161.049 67.4398 161.078 67.4192 161.102 67.3934C161.126 67.3677 161.144 67.3374 161.157 67.3043C161.169 67.2712 161.174 67.2361 161.172 67.2009C161.17 67.1657 161.162 67.1313 161.146 67.0995C161.024 66.8134 160.834 66.561 160.594 66.3634C160.353 66.1659 160.068 66.0291 159.764 65.9645C159.457 65.8954 159.139 65.8913 158.831 65.9523C158.522 66.0133 158.23 66.1382 157.972 66.3189C157.918 66.365 157.884 66.4308 157.879 66.5017C157.873 66.5726 157.896 66.6429 157.942 66.6971C157.988 66.7513 158.054 66.7849 158.125 66.7906C158.196 66.7963 158.266 66.7735 158.32 66.7274C158.514 66.5993 158.732 66.512 158.961 66.4706C159.189 66.4292 159.424 66.4347 159.65 66.4867C159.874 66.535 160.082 66.6363 160.258 66.7821C160.434 66.9279 160.573 67.1139 160.662 67.3244C160.688 67.381 160.734 67.4263 160.791 67.4523C160.848 67.4782 160.912 67.4831 160.972 67.4661Z" fill="#37474F"/>
<path d="M160.32 68.6191C160.381 68.6024 160.435 68.5644 160.471 68.512C160.507 68.4595 160.523 68.396 160.516 68.3328C160.472 67.9927 160.36 67.6648 160.187 67.3689C160.014 67.0731 159.782 66.8153 159.507 66.611C159.309 66.4562 159.081 66.3445 158.838 66.2828C158.594 66.2212 158.341 66.2111 158.093 66.2531C158.023 66.2667 157.962 66.3075 157.922 66.3665C157.882 66.4254 157.868 66.4978 157.881 66.5676C157.895 66.6375 157.935 66.699 157.994 66.7388C158.053 66.7786 158.126 66.7933 158.196 66.7797C158.37 66.7523 158.549 66.7617 158.72 66.8073C158.891 66.8529 159.05 66.9338 159.188 67.0447C159.621 67.3695 159.908 67.8526 159.986 68.3883C159.99 68.4233 160 68.4572 160.016 68.4882C160.033 68.5191 160.055 68.5464 160.083 68.5685C160.11 68.5906 160.141 68.607 160.175 68.6168C160.209 68.6265 160.244 68.6295 160.279 68.6254L160.32 68.6191Z" fill="#37474F"/>
<path d="M159.056 69.1241C159.099 69.113 159.139 69.0913 159.172 69.0608C159.204 69.0304 159.229 68.9922 159.243 68.9499C159.381 68.2237 159.263 67.4722 158.909 66.8232C158.838 66.6827 158.737 66.5592 158.613 66.4612C158.49 66.3631 158.347 66.2928 158.194 66.255C158.125 66.2422 158.053 66.2573 157.995 66.297C157.937 66.3367 157.896 66.3978 157.883 66.467C157.876 66.5017 157.876 66.5375 157.883 66.5722C157.89 66.6069 157.904 66.64 157.924 66.6693C157.943 66.6987 157.969 66.7238 157.998 66.7432C158.028 66.7627 158.061 66.776 158.096 66.7825C158.172 66.8088 158.243 66.8499 158.303 66.9035C158.363 66.9571 158.412 67.0221 158.447 67.0947C158.72 67.6132 158.821 68.2049 158.736 68.7845C158.724 68.8178 158.72 68.853 158.722 68.8881C158.725 68.9232 158.734 68.9575 158.75 68.9889C158.766 69.0202 158.788 69.0481 158.815 69.0707C158.842 69.0934 158.873 69.1105 158.907 69.1209C158.955 69.1365 159.007 69.1376 159.056 69.1241Z" fill="#37474F"/>
<path d="M157.59 67.6053L157.612 67.5994C157.645 67.5881 157.676 67.5703 157.702 67.547C157.729 67.5237 157.75 67.4955 157.765 67.4638C157.78 67.4322 157.789 67.3979 157.79 67.3628C157.792 67.3278 157.787 67.2928 157.775 67.2599C157.76 67.2206 157.756 67.1785 157.761 67.1371C157.767 67.0957 157.783 67.0562 157.807 67.0221C157.85 66.9599 157.905 66.9071 157.969 66.867C158.033 66.8269 158.104 66.8004 158.179 66.789C158.214 66.7849 158.248 66.7741 158.279 66.757C158.309 66.7399 158.337 66.7169 158.358 66.6893C158.38 66.6617 158.397 66.6301 158.406 66.5962C158.416 66.5624 158.419 66.527 158.415 66.492C158.411 66.457 158.4 66.4231 158.383 66.3923C158.366 66.3615 158.343 66.3344 158.315 66.3125C158.288 66.2906 158.256 66.2744 158.222 66.2647C158.188 66.255 158.153 66.2521 158.118 66.2561C157.963 66.276 157.815 66.3294 157.683 66.4125C157.551 66.4956 157.438 66.6064 157.353 66.7373C157.288 66.8401 157.246 66.9566 157.232 67.0778C157.218 67.199 157.232 67.3219 157.273 67.4369C157.295 67.4993 157.34 67.5511 157.399 67.5822C157.458 67.6133 157.526 67.6216 157.59 67.6053Z" fill="#37474F"/>
<path d="M134.15 57.7822C134.15 57.7822 124.414 58.7541 121.733 58.9784C119.051 59.2027 117.34 59.1966 117.34 59.1966C117.34 59.1966 117.405 56.9348 119.553 54.7516C119.322 54.5651 119.218 53.8191 120.375 52.2875C121.638 50.6131 123.035 49.729 123.561 50.3238C123.537 49.9291 125.031 48.6752 125.791 48.2288C126.55 47.7824 134.64 54.3083 134.64 54.3083L134.15 57.7822Z" fill="white"/>
<path opacity="0.25" d="M134.15 57.7822C134.15 57.7822 124.414 58.7541 121.733 58.9784C119.051 59.2027 117.34 59.1966 117.34 59.1966C117.34 59.1966 117.405 56.9348 119.553 54.7516C119.322 54.5651 119.218 53.8191 120.375 52.2875C121.638 50.6131 123.035 49.729 123.561 50.3238C123.537 49.9291 125.031 48.6752 125.791 48.2288C126.55 47.7824 134.64 54.3083 134.64 54.3083L134.15 57.7822Z" fill="white"/>
<path d="M119.554 54.756C119.323 54.5695 119.219 53.8235 120.377 52.2919C121.639 50.6176 123.036 49.7334 123.563 50.3282C123.538 49.9335 125.033 48.6796 125.792 48.2332C125.986 48.1193 126.66 48.4789 127.547 49.0299C126.294 49.5749 125.124 50.6848 125.163 51.0994C123.546 51.2305 121.441 54.1662 121.335 55.2356C120.443 55.4737 119.198 58.2658 119.182 59.1536C118.016 59.2069 117.341 59.201 117.341 59.201C117.341 59.201 117.406 56.9392 119.554 54.756Z" fill="#263238"/>
<path opacity="0.25" d="M134.15 57.7822C134.15 57.7822 124.414 58.7541 121.733 58.9784C119.051 59.2026 117.34 59.1965 117.34 59.1965C117.34 59.1965 117.405 56.9348 119.553 54.7516C120.863 55.4905 131.116 56.3479 134.316 56.601L134.15 57.7822Z" fill="black"/>
<path opacity="0.25" d="M134.467 55.5388C132.826 54.7593 125.085 51.0391 123.564 50.3326C123.54 49.938 125.034 48.6841 125.793 48.2377C126.553 47.7913 134.64 54.3083 134.64 54.3083L134.467 55.5388Z" fill="black"/>
<path d="M137.628 48.2953C141.613 45.1918 148.04 42.9356 150.753 43.2043C153.465 43.4731 154.502 44.9964 153.979 46.5783C153.456 48.1603 137.628 48.2953 137.628 48.2953Z" fill="white"/>
<path d="M137.628 48.2953C141.613 45.1918 148.04 42.9356 150.753 43.2043C153.465 43.4731 154.502 44.9964 153.979 46.5783C153.456 48.1603 137.628 48.2953 137.628 48.2953Z" fill="white"/>
<path d="M152.545 45.0893C155.159 44.1476 155.892 42.2612 156.655 40.6486C157.478 38.9007 158.092 35.924 160.231 34.6363C161.12 34.0644 162.147 33.7415 163.204 33.7011C164.261 33.6607 165.309 33.9044 166.239 34.4068C168.18 35.3594 169.311 37.6456 168.777 38.5428L166.744 42.1611C165.962 43.5922 165.321 45.0957 164.83 46.6505C164.133 49.3152 164.098 51.5832 163.584 54.3613C163.165 56.7442 162.1 58.9663 160.506 60.7859C158.911 62.6054 156.848 63.9525 154.54 64.6805C148.8 66.5386 145.135 65.3349 145.135 65.3349C140.725 64.1321 136.852 61.4696 134.15 57.7821C129.849 51.7293 133.999 50.0668 136.571 48.7733C139.144 47.4797 142.12 46.7325 145.531 46.0746C148.941 45.4167 150.624 45.7792 152.545 45.0893Z" fill="white"/>
<path d="M152.545 45.0893C155.159 44.1476 155.892 42.2612 156.655 40.6486C157.478 38.9007 158.092 35.924 160.231 34.6363C161.12 34.0644 162.147 33.7415 163.204 33.7011C164.261 33.6607 165.309 33.9044 166.239 34.4068C168.18 35.3594 169.311 37.6456 168.777 38.5428L166.744 42.1611C165.962 43.5922 165.321 45.0957 164.83 46.6505C164.133 49.3152 164.098 51.5832 163.584 54.3613C163.165 56.7442 162.1 58.9663 160.506 60.7859C158.911 62.6054 156.848 63.9525 154.54 64.6805C148.8 66.5386 145.135 65.3349 145.135 65.3349C140.725 64.1321 136.852 61.4696 134.15 57.7821C129.849 51.7293 133.999 50.0668 136.571 48.7733C139.144 47.4797 142.12 46.7325 145.531 46.0746C148.941 45.4167 150.624 45.7792 152.545 45.0893Z" fill="#EBEBEB"/>
<path d="M156.606 57.1995C159.311 59.6575 162.018 58.4569 162.13 58.4271C162.548 57.6843 162.885 56.8994 163.138 56.0854C163.182 55.9492 163.223 55.8143 163.258 55.6761C163.292 55.5379 163.336 55.3973 163.371 55.2591C163.445 54.9669 163.513 54.667 163.565 54.3617C164.079 51.5836 164.127 49.3121 164.816 46.6542C165.045 45.8468 165.334 45.0577 165.68 44.2935C166.087 43.5028 166.705 42.8413 167.467 42.3835L168.757 38.5387C169.308 37.6368 168.177 35.3506 166.219 34.4027C165.288 33.9016 164.24 33.6597 163.183 33.7025C162.127 33.7452 161.102 34.0709 160.214 34.6456C158.074 35.9289 157.456 38.9068 156.638 40.6535C155.874 42.2661 155.181 44.1417 152.528 45.0941L152.238 45.1715C151.988 45.2382 151.743 45.3037 151.507 45.3668C151.232 49.399 153.851 54.6976 156.606 57.1995Z" fill="white"/>
<path d="M156.606 57.1995C159.311 59.6575 162.018 58.4569 162.13 58.4271C162.548 57.6843 162.885 56.8994 163.138 56.0854C163.182 55.9492 163.223 55.8143 163.258 55.6761C163.292 55.5379 163.336 55.3973 163.371 55.259C162.897 55.9874 160.051 57.1342 156.994 54.5219C153.937 51.9095 152.148 45.8735 152.564 45.089L152.275 45.1664L151.989 45.2426C151.838 45.2831 151.691 45.3224 151.544 45.3617C151.232 49.399 153.851 54.6976 156.606 57.1995Z" fill="#455A64"/>
<path d="M164.825 38.8725L164.84 38.8398C164.84 38.796 164.829 38.7529 164.806 38.715C164.775 38.6032 164.735 38.4942 164.686 38.389C164.631 38.2891 164.556 38.2018 164.465 38.1329C164.306 38.0378 164.117 38.008 163.936 38.0496C163.8 38.0716 163.672 38.1305 163.566 38.2201C163.457 38.3114 163.422 38.4496 163.354 38.5682C163.285 38.6868 163.233 38.7962 163.322 38.9156L163.392 38.9973C163.402 39.0263 163.41 39.0561 163.416 39.0865C163.456 39.1838 163.515 39.2719 163.59 39.3456C163.678 39.4211 163.784 39.4719 163.898 39.4927C164.012 39.5135 164.129 39.5036 164.238 39.4639C164.33 39.4409 164.417 39.3982 164.492 39.3387C164.567 39.2792 164.628 39.2042 164.671 39.119C164.694 39.0613 164.721 39.0048 164.75 38.9498C164.777 38.9261 164.802 38.9002 164.825 38.8725Z" fill="#455A64"/>
<path d="M164.153 39.1475C163.949 39.2021 163.739 39.0807 163.684 38.8763C163.63 38.672 163.751 38.4621 163.955 38.4075C164.16 38.353 164.37 38.4744 164.424 38.6787C164.479 38.883 164.357 39.0929 164.153 39.1475Z" fill="#37474F"/>
<path d="M163.624 38.649C163.634 38.6868 163.658 38.719 163.692 38.7387C163.726 38.7583 163.767 38.7636 163.804 38.7535C163.842 38.7434 163.874 38.7187 163.894 38.6848C163.914 38.6509 163.919 38.6106 163.909 38.5728C163.899 38.5349 163.874 38.5027 163.84 38.483C163.806 38.4634 163.766 38.4581 163.728 38.4682C163.69 38.4783 163.658 38.503 163.638 38.5369C163.619 38.5708 163.614 38.6111 163.624 38.649Z" fill="white"/>
<path d="M138.8 63.3023C135.483 62.2016 132.401 58.5836 130.729 56.3273C129.056 54.071 128.44 52.8554 129.419 52.7994C126.549 49.7454 126.189 48.4328 127.163 48.5403C124.819 45.1264 124.108 44.2514 125.89 44.7399C127.673 45.2284 130.898 47.2706 136.557 48.7915C142.216 50.3124 144.098 63.0048 138.8 63.3023Z" fill="#455A64"/>
<path d="M138.8 63.3023C138.279 63.1247 137.776 62.8993 137.297 62.6292C137.363 62.3104 137.502 62.0115 137.704 61.7564C137.497 61.6373 137.316 61.4785 137.17 61.2891C137.025 61.0997 136.918 60.8834 136.857 60.6528C136.795 60.4221 136.78 60.1815 136.811 59.9448C136.843 59.7081 136.921 59.48 137.041 59.2736C136.686 59.1124 136.368 58.878 136.11 58.5857C135.852 58.2934 135.658 57.9498 135.542 57.5774C135.373 57.0351 135.473 56.3016 136.005 56.1118C135.481 55.8882 135.056 55.4828 134.807 54.9704C134.618 54.4385 134.947 53.7058 135.5 53.7014C135.222 53.5163 134.983 53.2772 134.799 52.9984C134.614 52.7195 134.488 52.4065 134.426 52.0779C134.382 51.747 134.458 51.4111 134.642 51.1322C134.825 50.8532 135.103 50.65 135.425 50.56C135.191 50.3495 135.017 50.0801 134.921 49.7798C134.826 49.4794 134.813 49.1591 134.883 48.8519C134.925 48.6794 134.996 48.5152 135.092 48.3662C135.566 48.5119 136.052 48.6541 136.567 48.7935C142.234 50.3076 144.098 63.0047 138.8 63.3023Z" fill="#263238"/>
<path d="M142.909 49.5257C141.332 49.2354 137.336 48.0247 136.575 48.7867C135.814 49.5488 136.609 50.5589 137.16 50.9754C135.007 51.5504 136.131 53.1127 137.537 53.9787C135.443 54.3089 136.517 55.6503 137.619 56.2874C135.782 56.7779 137.203 59.0393 138.792 59.4649C136.908 59.438 138.171 61.2688 139.531 61.8939C137.219 62.2633 139.238 65.5157 145.115 65.3308C147.183 63.5798 146.318 53.8872 142.909 49.5257Z" fill="white"/>
<path d="M142.909 49.5257C141.332 49.2354 137.336 48.0247 136.575 48.7867C135.814 49.5488 136.609 50.5589 137.16 50.9754C135.007 51.5504 136.131 53.1127 137.537 53.9787C135.443 54.3089 136.517 55.6503 137.619 56.2874C135.782 56.7779 137.203 59.0393 138.792 59.4649C136.908 59.438 138.171 61.2688 139.531 61.8939C137.219 62.2633 139.238 65.5157 145.115 65.3308C147.183 63.5798 146.318 53.8872 142.909 49.5257Z" fill="white"/>
<path d="M142.658 64.9271C142.141 64.2437 142.006 63.167 142.647 62.5994C142.038 62.2732 141.53 61.7863 141.178 61.1916C140.887 60.5673 141.059 59.6759 141.701 59.4328C141.271 59.274 140.877 59.0308 140.543 58.7175C140.208 58.4042 139.939 58.0272 139.753 57.6085C139.575 57.2356 139.513 56.8178 139.576 56.4094C139.611 56.2064 139.7 56.0166 139.834 55.8599C139.967 55.7032 140.141 55.5853 140.336 55.5186C140.03 55.4105 139.754 55.2317 139.53 54.9969C139.307 54.7621 139.142 54.4778 139.048 54.1672C138.966 53.8534 138.997 53.5208 139.135 53.2273C139.273 52.9338 139.51 52.6982 139.804 52.5614C139.457 52.3415 139.199 52.0067 139.075 51.6157C138.95 51.2246 138.967 50.8022 139.123 50.4224C139.265 50.0978 139.472 49.8054 139.73 49.5631C139.989 49.3207 140.294 49.1335 140.628 49.0128C141.522 49.2133 142.362 49.4282 142.909 49.5257C146.314 53.8694 147.183 63.5798 145.115 65.3309C144.383 65.3579 143.651 65.3236 142.924 65.2284C142.828 65.1349 142.739 65.0342 142.658 64.9271Z" fill="#263238"/>
<path d="M148.549 50.813C151.547 52.1325 155.581 55.8115 153.31 60.6446C151.63 64.2259 147.194 65.5874 145.124 65.3285C143.054 65.0696 142.535 63.3936 144.296 63.052C141.459 61.9425 141.733 59.6964 143.261 59.6943C140.483 58.0724 139.986 55.9607 141.777 55.9264C139.794 54.3835 140.087 52.7102 141.226 52.9504C139.365 50.6871 140.654 49.3783 142.936 49.5186C144.872 49.5899 146.777 50.0292 148.549 50.813Z" fill="white"/>
<path opacity="0.25" d="M148.301 51.137C151.188 52.6821 154.691 55.8055 153.297 60.6335C151.618 64.2148 147.182 65.5763 145.112 65.3174C143.042 65.0585 142.522 63.3825 144.284 63.0409C141.447 61.9314 141.721 59.6853 143.249 59.6832C140.471 58.0613 139.973 55.9496 141.765 55.9153C139.781 54.3725 140.075 52.6991 141.213 52.9394C139.353 50.676 140.641 49.3672 142.923 49.5075C144.797 49.7334 146.617 50.2848 148.301 51.137Z" fill="white"/>
<path d="M171.046 42.4067C170.236 42.6469 168.438 42.4586 167.467 42.3835C166.497 42.3084 166.025 41.8806 165.856 41.0518C166.583 40.4324 170.27 41.3246 171.046 42.4067Z" fill="#37474F"/>
<path d="M167.862 38.1569C168.255 38.1618 169.68 38.9559 170.77 40.3553C171.338 41.0646 171.715 41.9079 171.863 42.8044C170.894 42.299 169.884 41.8772 168.843 41.5434C166.778 40.9632 165.572 41.1705 165.369 40.8571C165.051 40.3642 165.927 40.0491 166.435 39.2161C166.755 38.6962 167.297 38.1503 167.862 38.1569Z" fill="#455A64"/>
<path d="M166.435 39.2161C166.772 38.6914 167.297 38.1502 167.862 38.1569C168.155 38.1645 169.04 38.6159 169.927 39.4343C169.497 39.3819 169.122 39.3868 168.932 39.9102C168.742 40.4337 167.656 40.2843 166.901 40.2807C166.145 40.2772 165.492 40.3705 165.369 40.857C165.051 40.3641 165.927 40.049 166.435 39.2161Z" fill="white"/>
</g>
<g filter="url(#filter1_d_40_611)">
<rect x="54.1865" y="3.41711" width="72" height="72" rx="24" fill="#FFDB13"/>
<path d="M105.802 64.908L105.873 64.8868C105.923 64.8511 105.958 64.797 105.97 64.7359C105.982 64.6749 105.969 64.6117 105.935 64.5598L102.319 59.1611C102.193 58.9726 102.145 58.7421 102.186 58.5189L102.589 56.4177C102.599 56.3853 102.603 56.351 102.6 56.3171C102.596 56.2831 102.585 56.2503 102.568 56.2209C102.551 56.1915 102.527 56.1662 102.499 56.1466C102.471 56.127 102.439 56.1137 102.406 56.1074C102.372 56.1012 102.338 56.1023 102.305 56.1105C102.271 56.1188 102.241 56.134 102.214 56.1553C102.187 56.1765 102.165 56.2032 102.15 56.2336C102.134 56.264 102.125 56.2974 102.124 56.3315L101.727 58.4311C101.693 58.6021 101.693 58.7782 101.728 58.949C101.763 59.1199 101.831 59.282 101.93 59.4259L105.542 64.8138C105.57 64.8544 105.611 64.8853 105.657 64.9022C105.704 64.9191 105.754 64.9211 105.802 64.908Z" fill="#37474F"/>
<path d="M108.562 65.5104L108.6 65.499C108.628 65.4848 108.653 65.4653 108.674 65.4414C108.694 65.4175 108.71 65.3898 108.72 65.3599C108.729 65.3299 108.733 65.2983 108.731 65.2669C108.728 65.2355 108.72 65.2049 108.705 65.1769C108.577 64.9011 108.385 64.6601 108.145 64.4741C107.904 64.2881 107.623 64.1626 107.324 64.1082C107.021 64.0487 106.71 64.0533 106.41 64.1218C106.11 64.1903 105.827 64.3211 105.581 64.5058C105.557 64.5263 105.539 64.5512 105.525 64.579C105.512 64.6067 105.504 64.6369 105.502 64.6677C105.5 64.6986 105.505 64.7294 105.515 64.7586C105.525 64.7877 105.541 64.8146 105.561 64.8377C105.582 64.8607 105.607 64.8795 105.635 64.8929C105.662 64.9064 105.692 64.9142 105.723 64.916C105.754 64.9178 105.785 64.9135 105.814 64.9033C105.843 64.8932 105.87 64.8774 105.893 64.8569C106.087 64.7219 106.306 64.6272 106.536 64.5784C106.767 64.5296 107.006 64.5277 107.237 64.5728C107.465 64.6142 107.679 64.7105 107.862 64.8532C108.044 64.996 108.189 65.181 108.283 65.3922C108.309 65.4411 108.351 65.4796 108.401 65.5011C108.452 65.5227 108.509 65.5259 108.562 65.5104Z" fill="#37474F"/>
<path d="M107.949 66.6724C108.003 66.6568 108.05 66.6222 108.081 66.5749C108.111 66.5276 108.123 66.4708 108.115 66.4151C108.061 66.0834 107.941 65.7659 107.762 65.4813C107.583 65.1968 107.349 64.9509 107.073 64.7583C106.875 64.6141 106.65 64.5124 106.41 64.4596C106.171 64.4067 105.923 64.404 105.683 64.4514C105.622 64.4663 105.57 64.5044 105.537 64.5575C105.504 64.6106 105.493 64.6744 105.507 64.7354C105.514 64.7658 105.526 64.7945 105.544 64.82C105.562 64.8454 105.585 64.8669 105.612 64.8833C105.638 64.8997 105.668 64.9106 105.699 64.9154C105.729 64.9202 105.761 64.9188 105.791 64.9112C105.967 64.878 106.148 64.8818 106.323 64.9225C106.497 64.9631 106.661 65.0397 106.805 65.1473C107.027 65.303 107.216 65.5013 107.361 65.7307C107.506 65.9601 107.604 66.2159 107.65 66.4835C107.659 66.5449 107.693 66.6 107.743 66.6371C107.793 66.6742 107.855 66.6904 107.917 66.6822L107.949 66.6724Z" fill="#37474F"/>
<path d="M106.712 67.2149C106.75 67.203 106.784 67.1822 106.812 67.1543C106.839 67.1264 106.86 67.0921 106.872 67.0545C106.982 66.3377 106.842 65.6048 106.475 64.979C106.404 64.8442 106.304 64.7267 106.183 64.635C106.061 64.5433 105.92 64.4797 105.771 64.4487C105.71 64.44 105.648 64.4553 105.598 64.4913C105.548 64.5272 105.514 64.5812 105.503 64.6418C105.492 64.7039 105.507 64.7675 105.544 64.8187C105.58 64.87 105.635 64.9048 105.697 64.9156C105.862 64.9646 106 65.0768 106.081 65.2275C106.362 65.7401 106.478 66.3267 106.413 66.9074C106.396 66.9669 106.404 67.0304 106.433 67.0846C106.463 67.1388 106.512 67.1794 106.571 67.198C106.615 67.2191 106.664 67.225 106.712 67.2149Z" fill="#37474F"/>
<path d="M105.228 65.7441C105.257 65.7339 105.284 65.7178 105.307 65.6969C105.329 65.676 105.348 65.6507 105.36 65.6225C105.373 65.5943 105.38 65.5638 105.38 65.5328C105.381 65.5019 105.375 65.4713 105.363 65.4427C105.347 65.3988 105.341 65.3518 105.346 65.3053C105.35 65.2588 105.365 65.2139 105.389 65.1739C105.477 65.0418 105.614 64.9497 105.769 64.9178C105.799 64.9138 105.829 64.9038 105.855 64.8885C105.882 64.8732 105.905 64.8528 105.924 64.8285C105.942 64.8042 105.956 64.7765 105.964 64.7469C105.972 64.7173 105.974 64.6865 105.969 64.6561C105.965 64.6251 105.955 64.5952 105.939 64.5681C105.923 64.541 105.902 64.5173 105.877 64.4984C105.852 64.4794 105.824 64.4656 105.794 64.4576C105.763 64.4496 105.732 64.4477 105.701 64.452C105.553 64.4766 105.412 64.533 105.287 64.6173C105.163 64.7016 105.059 64.8118 104.981 64.9403C104.921 65.0401 104.884 65.1523 104.874 65.2685C104.863 65.3847 104.879 65.5017 104.921 65.6106C104.945 65.6687 104.99 65.7152 105.047 65.7402C105.105 65.7651 105.169 65.7665 105.228 65.7441Z" fill="#37474F"/>
<path d="M110.023 60.4295L110.094 60.4083C110.119 60.3911 110.142 60.369 110.159 60.3431C110.176 60.3173 110.188 60.2883 110.193 60.2579C110.199 60.2274 110.199 60.1961 110.192 60.1658C110.186 60.1355 110.173 60.1067 110.156 60.0813L106.54 54.6825C106.477 54.5891 106.433 54.4841 106.411 54.3735C106.39 54.263 106.39 54.1492 106.413 54.0388L106.81 51.9392C106.817 51.9085 106.817 51.8768 106.811 51.846C106.805 51.8151 106.793 51.7859 106.775 51.76C106.758 51.7341 106.735 51.7122 106.708 51.6956C106.681 51.6791 106.651 51.6682 106.62 51.6637C106.591 51.6573 106.56 51.657 106.53 51.6627C106.5 51.6684 106.471 51.6802 106.446 51.6972C106.421 51.7142 106.399 51.7361 106.382 51.7617C106.366 51.7872 106.354 51.8159 106.349 51.8459L105.948 53.9526C105.915 54.1226 105.916 54.2976 105.95 54.4673C105.985 54.6371 106.052 54.7983 106.149 54.9419L109.765 60.3407C109.793 60.3807 109.833 60.4108 109.88 60.4268C109.926 60.4427 109.976 60.4437 110.023 60.4295Z" fill="#37474F"/>
<path d="M112.783 61.0319L112.827 61.0189C112.854 61.0049 112.878 60.9857 112.898 60.9623C112.918 60.9389 112.933 60.9118 112.943 60.8825C112.952 60.8532 112.956 60.8223 112.953 60.7917C112.951 60.761 112.942 60.7312 112.928 60.7038C112.8 60.4281 112.608 60.187 112.367 60.001C112.127 59.8151 111.845 59.6896 111.546 59.6351C111.244 59.5756 110.933 59.5803 110.633 59.6487C110.332 59.7172 110.05 59.848 109.803 60.0327C109.78 60.0531 109.761 60.0779 109.747 60.1057C109.734 60.1335 109.726 60.1637 109.724 60.1946C109.722 60.2255 109.727 60.2565 109.737 60.2857C109.747 60.3148 109.763 60.3417 109.784 60.3646C109.826 60.4103 109.884 60.4379 109.946 60.4415C110.008 60.4451 110.069 60.4244 110.116 60.3838C110.309 60.2489 110.528 60.1539 110.758 60.1042C110.989 60.0545 111.227 60.0512 111.458 60.0943C111.687 60.137 111.901 60.2343 112.084 60.3779C112.266 60.5215 112.411 60.7073 112.506 60.9191C112.533 60.9659 112.575 61.0024 112.625 61.0228C112.675 61.0432 112.731 61.0464 112.783 61.0319Z" fill="#37474F"/>
<path d="M112.17 62.1939C112.224 62.1773 112.27 62.1424 112.3 62.0954C112.33 62.0484 112.343 61.9922 112.336 61.9366C112.283 61.6047 112.163 61.2869 111.984 61.0023C111.805 60.7176 111.571 60.4719 111.295 60.2798C111.097 60.1347 110.871 60.0324 110.632 59.9795C110.392 59.9267 110.144 59.9244 109.904 59.9729C109.844 59.9874 109.792 60.0246 109.759 60.0765C109.726 60.1284 109.714 60.191 109.726 60.2514C109.741 60.3126 109.78 60.3657 109.833 60.3995C109.886 60.4333 109.95 60.4452 110.012 60.4327C110.188 60.3984 110.369 60.4017 110.544 60.4424C110.719 60.4831 110.883 60.5602 111.026 60.6688C111.248 60.8233 111.437 61.0207 111.581 61.2492C111.726 61.4777 111.824 61.7328 111.869 61.9995C111.879 62.0616 111.912 62.1174 111.962 62.1555C112.012 62.1935 112.075 62.2108 112.138 62.2037L112.17 62.1939Z" fill="#37474F"/>
<path d="M110.933 62.7364C110.971 62.7245 111.005 62.7037 111.033 62.6758C111.061 62.6478 111.081 62.6136 111.093 62.576C111.205 61.8593 111.067 61.1258 110.702 60.4989C110.629 60.3654 110.528 60.2491 110.407 60.1576C110.286 60.0662 110.146 60.0017 109.998 59.9686C109.935 59.9584 109.872 59.9731 109.821 60.0096C109.769 60.046 109.734 60.1013 109.724 60.1633C109.719 60.1936 109.72 60.2246 109.727 60.2545C109.734 60.2844 109.746 60.3127 109.764 60.3376C109.782 60.3626 109.805 60.3837 109.831 60.3998C109.857 60.416 109.886 60.4268 109.917 60.4316C110.082 60.4827 110.221 60.5967 110.302 60.749C110.583 61.2616 110.699 61.8482 110.634 62.4289C110.617 62.4884 110.625 62.5519 110.654 62.6061C110.684 62.6602 110.733 62.7009 110.792 62.7195C110.837 62.7376 110.886 62.7434 110.933 62.7364Z" fill="#37474F"/>
<path d="M109.431 61.265C109.46 61.2542 109.486 61.2377 109.508 61.2167C109.531 61.1957 109.549 61.1704 109.561 61.1424C109.574 61.1144 109.581 61.0842 109.582 61.0535C109.582 61.0228 109.577 60.9923 109.566 60.9636C109.55 60.9198 109.544 60.8728 109.548 60.8262C109.553 60.7796 109.568 60.7347 109.592 60.6948C109.634 60.6281 109.69 60.5709 109.755 60.5268C109.821 60.4827 109.895 60.4527 109.972 60.4387C110.003 60.4345 110.033 60.4242 110.06 60.4084C110.087 60.3926 110.111 60.3716 110.13 60.3467C110.149 60.3217 110.163 60.2933 110.171 60.263C110.179 60.2326 110.181 60.201 110.176 60.17C110.167 60.1086 110.133 60.0535 110.083 60.0164C110.033 59.9792 109.971 59.9631 109.909 59.9713C109.76 59.9949 109.618 60.0504 109.493 60.134C109.368 60.2176 109.262 60.3274 109.183 60.4558C109.123 60.5565 109.086 60.6697 109.077 60.7867C109.068 60.9036 109.086 61.0211 109.13 61.1299C109.14 61.1591 109.156 61.1859 109.177 61.2087C109.198 61.2315 109.223 61.2497 109.251 61.2624C109.279 61.275 109.31 61.2818 109.341 61.2822C109.372 61.2827 109.402 61.2768 109.431 61.265Z" fill="#37474F"/>
<path d="M81.4179 43.2129C86.0195 42.0837 90.5599 40.4331 94.1658 38.0187C97.7716 35.6044 101.192 34.9474 102.029 35.622C102.029 35.622 100.656 38.9569 94.7478 41.0112C90.479 42.5635 85.9591 43.31 81.4179 43.2129Z" fill="white"/>
<path opacity="0.1" d="M81.4179 43.2129C86.0195 42.0837 90.5599 40.4331 94.1658 38.0187C97.7716 35.6044 101.192 34.9474 102.029 35.622C102.029 35.622 100.656 38.9569 94.7478 41.0112C90.479 42.5635 85.9591 43.31 81.4179 43.2129Z" fill="black"/>
<path d="M114.813 40.8423C115.203 44.2835 115.17 47.5788 112.495 51.2206C109.49 55.3231 105.564 58.1356 96.7215 59.5982C87.8788 61.0609 80.4533 56.7618 75.3842 54.0934C70.3152 51.425 62.9286 43.989 62.6428 43.0546C62.1864 41.5308 67.1988 44.2874 67.1988 44.2874C65.8107 43.3439 64.5027 42.2878 63.2879 41.1298C61.9439 39.7117 61.8035 38.6093 62.7767 39.0472C65.3035 40.2158 67.9114 41.2005 70.5799 41.9937C76.8916 43.8214 80.6341 43.6848 86.6751 42.2727C92.7161 40.8606 98.7346 38.364 102.563 35.2069L114.813 40.8423Z" fill="white"/>
<path opacity="0.2" d="M114.813 40.8423C115.203 44.2835 115.17 47.5788 112.495 51.2206C109.49 55.3231 105.564 58.1356 96.7215 59.5982C87.8788 61.0609 80.4533 56.7618 75.3842 54.0934C70.3152 51.425 62.9286 43.989 62.6428 43.0546C62.1864 41.5308 67.1988 44.2874 67.1988 44.2874C65.8107 43.3439 64.5027 42.2878 63.2879 41.1298C61.9439 39.7117 61.8035 38.6093 62.7767 39.0472C65.3035 40.2158 67.9114 41.2005 70.5799 41.9937C76.8916 43.8214 80.6341 43.6848 86.6751 42.2727C92.7161 40.8606 98.7346 38.364 102.563 35.2069L114.813 40.8423Z" fill="white"/>
<path d="M116.206 32.0101C116.436 31.2354 115.538 29.1679 113.511 27.9248C111.484 26.6816 107.924 25.5657 107.605 23.8881C107.287 22.2104 106.332 24.2695 106.966 25.574C104.556 24.3982 103.45 21.0231 102.863 21.4004C102.276 21.7778 101.918 25.3129 103.93 28.0904C102.679 27.2791 101.869 25.7427 101.605 26.2666C101.341 26.7905 102.067 29.1762 102.713 30.7975C103.359 32.4187 103.907 33.6955 102.547 35.2119C101.186 36.7283 103.024 37.874 103.475 37.638C102.978 38.534 103.857 40.8921 105.66 39.8242C105.414 40.8645 106.609 43.3886 108.599 41.8376C109.311 43.1248 111.336 43.5681 112.147 41.4273C113.18 42.8969 115.035 42.2583 114.8 40.1878C114.566 38.1173 114.148 37.08 115.037 35.8887C115.925 34.6975 116.206 32.0101 116.206 32.0101Z" fill="white"/>
<path opacity="0.4" d="M116.206 32.0101C116.436 31.2354 115.538 29.1679 113.511 27.9248C111.484 26.6816 107.924 25.5657 107.605 23.8881C107.287 22.2104 106.332 24.2695 106.966 25.574C104.556 24.3982 103.45 21.0231 102.863 21.4004C102.276 21.7778 101.918 25.3129 103.93 28.0904C102.679 27.2791 101.869 25.7427 101.605 26.2666C101.341 26.7905 102.067 29.1762 102.713 30.7975C103.359 32.4187 103.907 33.6955 102.547 35.2119C101.186 36.7283 103.024 37.874 103.475 37.638C102.978 38.534 103.857 40.8921 105.66 39.8242C105.414 40.8645 106.609 43.3886 108.599 41.8376C109.311 43.1248 111.336 43.5681 112.147 41.4273C113.18 42.8969 115.035 42.2583 114.8 40.1878C114.566 38.1173 114.148 37.08 115.037 35.8887C115.925 34.6975 116.206 32.0101 116.206 32.0101Z" fill="white"/>
<path d="M99.115 42.2471C97.8765 43.5372 95.9495 44.0136 91.3221 44.344C86.6947 44.6745 83.3 44.5468 82.7181 46.1681C78.2422 45.955 77.2201 46.5221 76.5999 47.6982C73.2922 47.5445 72.3826 48.3091 71.9753 48.9885C68.885 48.2537 66.9376 46.9394 66.5629 47.7277C66.1882 48.5159 73.236 56.6227 81.7713 57.7369C90.3065 58.8511 98.3986 55.4963 101.812 52.3804C105.226 49.2646 104.785 45.8146 102.91 41.5729L99.115 42.2471Z" fill="white"/>
<path d="M102.912 41.5784C100.414 42.3266 100.147 45.0574 100.812 47.1412C98.1036 45.6219 97.2553 48.254 97.47 50.0992C95.1397 49.546 94.6846 51.3724 94.8085 52.8949C93.0348 52.596 92.2008 57.2757 93.3108 57.2397C94.4209 57.2037 99.1765 56.0342 102.572 52.5206C105.967 49.007 104.806 43.8634 102.912 41.5784Z" fill="white"/>
<path opacity="0.1" d="M102.912 41.5784C100.414 42.3266 100.147 45.0574 100.812 47.1412C98.1036 45.6219 97.2553 48.254 97.47 50.0992C95.1397 49.546 94.6846 51.3724 94.8085 52.8949C93.0348 52.596 92.2008 57.2757 93.3108 57.2397C94.4209 57.2037 99.1765 56.0342 102.572 52.5206C105.967 49.007 104.806 43.8634 102.912 41.5784Z" fill="black"/>
<path opacity="0.1" d="M86.9354 46.8441C86.4125 46.8406 85.8863 46.8262 85.364 46.8048C84.8416 46.7833 84.3013 46.702 83.7621 46.6441C83.7621 46.6441 83.7393 46.5679 83.7426 46.5788C84.3373 46.5845 84.9255 46.5684 85.5202 46.5741C86.115 46.5798 86.7081 46.5801 87.2995 46.5749C88.4825 46.5645 89.6745 46.5119 90.8756 46.417C93.2769 46.2374 95.6419 45.8374 98.015 45.4646C98.0422 45.4564 98.0775 45.5348 98.0394 45.5462C96.2284 46.0376 94.3788 46.3734 92.5106 46.5499C90.6592 46.7525 88.7978 46.8507 86.9354 46.8441ZM81.6318 49.2332C81.0029 49.1133 80.3326 48.9938 79.6846 48.8499C79.0366 48.706 78.2956 48.4891 77.6062 48.2864C77.6062 48.2864 77.5546 48.2129 77.5867 48.2211C78.1601 48.3339 78.7363 48.4163 79.3098 48.5292C79.8833 48.6421 80.4959 48.767 81.0862 48.857C82.25 49.0599 83.4204 49.2253 84.5995 49.3406C86.7909 49.5794 88.9992 49.6244 91.1986 49.4751C92.319 49.3946 93.4475 49.2819 94.562 49.1022C94.562 49.1022 94.6229 49.167 94.5848 49.1784C92.5997 49.6797 90.5556 49.9089 88.5088 49.8598C86.2033 49.8372 83.9034 49.6276 81.6318 49.2332ZM72.6796 49.6968C73.1497 49.9 73.6355 50.0569 74.1132 50.2459C74.5908 50.4349 75.1468 50.6479 75.6697 50.8293C76.7687 51.2118 77.8812 51.5605 79.0118 51.8505C81.6663 52.5341 84.3871 52.9281 87.1264 53.0255C88.8105 53.0844 90.5153 53.0541 92.1966 52.9656C92.2293 52.9558 92.2592 53.0358 92.2195 53.0418C89.3015 53.4355 86.3433 53.4256 83.428 53.0124C80.9328 52.6948 78.4791 52.1096 76.1091 51.267C75.5118 51.0545 74.9204 50.8225 74.3367 50.5763C73.7529 50.3301 73.2263 50.0371 72.6742 49.7577C72.6459 49.7425 72.6388 49.6794 72.6796 49.6968Z" fill="black"/>
<path d="M111.039 33.6702C111.035 33.6343 111.024 33.5995 111.008 33.5668C110.991 33.507 110.931 33.4656 110.891 33.4123C110.851 33.3589 110.777 33.1913 110.71 33.0868C110.656 33.0008 110.587 32.9251 110.507 32.8631C110.337 32.7447 110.134 32.683 109.927 32.687C109.723 32.6946 109.524 32.7541 109.35 32.8598C109.204 32.9449 109.079 33.0614 108.983 33.2008C108.951 33.2534 108.911 33.3012 108.866 33.3428C108.839 33.3608 108.815 33.3839 108.797 33.4108C108.77 33.4478 108.756 33.4926 108.757 33.5384C108.758 33.5842 108.774 33.6284 108.802 33.6644C108.818 33.7188 108.9 33.7357 108.938 33.7836C108.982 33.8477 109.018 33.9163 109.047 33.9882C109.107 34.1173 109.199 34.2283 109.315 34.3102C109.431 34.392 109.567 34.4417 109.709 34.4543C109.865 34.4646 110.023 34.4456 110.172 34.3984C110.322 34.3458 110.461 34.266 110.582 34.163C110.7 34.0624 110.806 33.9417 110.932 33.8448C110.968 33.8226 111 33.793 111.024 33.7578C111.038 33.7308 111.043 33.7003 111.039 33.6702Z" fill="#263238"/>
<path d="M118.727 35.578C118.125 36.0016 117.256 35.8941 116.506 35.9645C115.757 36.0349 114.805 36.047 114.397 36.0506C114.251 36.0543 114.107 36.0175 113.98 35.9443C113.764 35.8169 113.587 35.6336 113.467 35.4139C113.347 35.1941 113.289 34.9461 113.298 34.6958C114.178 34.4711 115.094 34.4163 115.995 34.5343C116.995 34.5766 117.954 34.943 118.727 35.578Z" fill="#263238"/>
<path d="M114.628 32.0676C114.678 31.9556 114.754 31.8564 114.848 31.7778C114.943 31.6991 115.054 31.643 115.173 31.6135C115.45 31.5663 115.726 31.7563 115.971 31.8789C116.923 32.3467 118.958 34.2515 119.305 35.0907C119.651 35.9298 117.863 35.5226 116.336 35.1971C114.809 34.8716 113.811 34.8266 113.281 34.7007C112.86 34.6014 113.202 34.0009 113.362 33.8404C113.671 33.601 113.956 33.331 114.211 33.0344C114.347 32.7576 114.459 32.4701 114.547 32.1748L114.628 32.0676Z" fill="#455A64"/>
</g>
<g filter="url(#filter2_d_40_611)">
<rect x="2" y="23.9167" width="72" height="72" rx="24" transform="rotate(-15 2 23.9167)" fill="#FE6230"/>
<path d="M56.3517 73.2912L56.4337 73.2691C56.4665 73.2486 56.4948 73.2218 56.5171 73.1902C56.5393 73.1587 56.555 73.123 56.5633 73.0852C56.5716 73.0475 56.5723 73.0085 56.5653 72.9705C56.5583 72.9325 56.5438 72.8963 56.5226 72.864L52.6929 66.806C52.6264 66.7036 52.5812 66.5888 52.5602 66.4685C52.5391 66.3482 52.5426 66.2248 52.5705 66.1059L53.0712 63.772C53.0868 63.6957 53.0719 63.6163 53.0296 63.5509C52.9873 63.4856 52.9211 63.4394 52.8451 63.4223C52.8073 63.4125 52.7678 63.4107 52.7291 63.417C52.6905 63.4233 52.6536 63.4375 52.6208 63.4587C52.5879 63.4799 52.5598 63.5078 52.5383 63.5404C52.5167 63.573 52.5021 63.6098 52.4955 63.6484L51.9947 65.9823C51.9516 66.1727 51.947 66.3698 51.9811 66.5621C52.0152 66.7543 52.0874 66.9378 52.1934 67.1017L56.0249 73.1665C56.0592 73.2192 56.1093 73.2596 56.168 73.282C56.2267 73.3044 56.291 73.3076 56.3517 73.2912Z" fill="#37474F"/>
<path d="M59.3702 74.0475L59.4386 74.0291C59.5073 73.9946 59.56 73.9348 59.5856 73.8623C59.6112 73.7898 59.6077 73.7103 59.5758 73.6403C59.4416 73.3269 59.2339 73.0505 58.9703 72.8344C58.7067 72.6182 58.395 72.4687 58.0614 72.3985C57.7253 72.322 57.3768 72.3171 57.0387 72.3841C56.7006 72.4511 56.3804 72.5885 56.0988 72.7874C56.0394 72.8375 56.0023 72.909 55.9956 72.9864C55.9889 73.0639 56.0133 73.1407 56.0633 73.2002C56.1133 73.2596 56.1849 73.2968 56.2623 73.3034C56.3397 73.3101 56.4166 73.2857 56.4761 73.2357C56.6889 73.0951 56.9278 72.9989 57.1787 72.9528C57.4295 72.9067 57.6871 72.9117 57.9359 72.9674C58.1808 73.021 58.4094 73.1323 58.6028 73.2918C58.7962 73.4514 58.9488 73.6547 59.0479 73.885C59.0754 73.9445 59.1222 73.9929 59.1807 74.0224C59.2393 74.0519 59.306 74.0608 59.3702 74.0475Z" fill="#37474F"/>
<path d="M58.6632 75.3154C58.7314 75.296 58.7903 75.253 58.8296 75.1941C58.8688 75.1351 58.8857 75.0641 58.8773 74.9938C58.8298 74.6179 58.706 74.2557 58.5135 73.9293C58.3211 73.603 58.064 73.3194 57.758 73.0959C57.5382 72.9249 57.2848 72.8023 57.0143 72.7361C56.7438 72.6699 56.4624 72.6617 56.1885 72.712C56.1125 72.7284 56.0459 72.774 56.0031 72.839C55.9603 72.9039 55.9446 72.9831 55.9595 73.0595C55.9775 73.1346 56.0235 73.2001 56.088 73.2427C56.1526 73.2852 56.2309 73.3016 56.307 73.2885C56.4984 73.2592 56.6938 73.2695 56.881 73.3187C57.0683 73.3679 57.2434 73.455 57.3957 73.5746C57.6311 73.7505 57.8294 73.9712 57.9792 74.224C58.129 74.4768 58.2274 74.7567 58.2686 75.0477C58.2718 75.0865 58.2829 75.1242 58.3013 75.1585C58.3197 75.1928 58.345 75.223 58.3755 75.2471C58.4061 75.2712 58.4413 75.2888 58.479 75.2986C58.5166 75.3085 58.5559 75.3105 58.5944 75.3046L58.6632 75.3154Z" fill="#37474F"/>
<path d="M57.2806 75.8708C57.3278 75.8573 57.3711 75.8326 57.4066 75.7987C57.4422 75.7649 57.4691 75.723 57.4849 75.6765C57.631 74.8814 57.5006 74.0602 57.1152 73.3496C57.0364 73.1958 56.9257 73.0605 56.7905 72.9528C56.6554 72.8451 56.4988 72.7674 56.3313 72.7249C56.2577 72.7174 56.1839 72.7376 56.1243 72.7817C56.0648 72.8257 56.0239 72.8903 56.0095 72.9629C55.9952 73.0356 56.0084 73.1109 56.0466 73.1743C56.0849 73.2377 56.1454 73.2845 56.2164 73.3056C56.3858 73.3655 56.5261 73.4876 56.6088 73.6472C56.9057 74.2156 57.0158 74.8631 56.9237 75.4977C56.9012 75.5712 56.9082 75.6506 56.943 75.7191C56.9779 75.7877 57.0379 75.84 57.1105 75.8652C57.1652 75.885 57.2248 75.8869 57.2806 75.8708Z" fill="#37474F"/>
<path d="M55.6675 74.2084C55.7412 74.1811 55.8015 74.1264 55.8357 74.0557C55.87 73.985 55.8756 73.9038 55.8513 73.8291C55.8344 73.7857 55.8284 73.7389 55.8338 73.6926C55.8393 73.6464 55.856 73.6023 55.8826 73.5641C55.9784 73.4308 56.122 73.3396 56.2833 73.3096C56.3221 73.3054 56.3598 73.2936 56.394 73.2749C56.4283 73.2562 56.4585 73.2309 56.483 73.2005C56.5075 73.17 56.5258 73.1351 56.5367 73.0976C56.5477 73.0602 56.5512 73.0209 56.547 72.9821C56.5353 72.906 56.4951 72.8372 56.4347 72.7895C56.3743 72.7419 56.298 72.7189 56.2213 72.7252C56.0516 72.7493 55.8889 72.8093 55.7443 72.9014C55.5997 72.9934 55.4763 73.1153 55.3826 73.2588C55.3113 73.37 55.2661 73.4959 55.2506 73.6271C55.2351 73.7582 55.2497 73.8912 55.2932 74.0159C55.3051 74.0532 55.3242 74.0877 55.3495 74.1175C55.3748 74.1474 55.4057 74.1719 55.4404 74.1898C55.4752 74.2077 55.5132 74.2185 55.5521 74.2217C55.5911 74.2249 55.6303 74.2204 55.6675 74.2084Z" fill="#37474F"/>
<path d="M61.1439 68.49L61.2259 68.4679C61.2587 68.4474 61.287 68.4206 61.3093 68.389C61.3315 68.3574 61.3473 68.3217 61.3555 68.284C61.3638 68.2463 61.3645 68.2073 61.3575 68.1693C61.3505 68.1313 61.336 68.0951 61.3148 68.0628L57.4852 62.0048C57.4186 61.9024 57.3735 61.7876 57.3524 61.6673C57.3314 61.547 57.3349 61.4236 57.3627 61.3047L57.8634 58.9708C57.879 58.8945 57.8641 58.8151 57.8218 58.7497C57.7796 58.6844 57.7133 58.6382 57.6374 58.6211C57.5995 58.6124 57.5603 58.6114 57.5221 58.6181C57.4839 58.6248 57.4474 58.6391 57.4148 58.6602C57.3821 58.6813 57.3541 58.7087 57.3323 58.7408C57.3105 58.7729 57.2953 58.8091 57.2877 58.8471L56.787 61.1811C56.7038 61.5659 56.7752 61.9679 56.9856 62.3005L60.8171 68.3653C60.8522 68.4172 60.9024 68.457 60.9608 68.4793C61.0193 68.5016 61.0832 68.5053 61.1439 68.49Z" fill="#37474F"/>
<path d="M64.1674 69.2376L64.2152 69.2248C64.2839 69.1903 64.3366 69.1305 64.3622 69.058C64.3878 68.9855 64.3843 68.9059 64.3525 68.836C64.2182 68.5226 64.0105 68.2462 63.747 68.0301C63.4834 67.8139 63.1716 67.6644 62.838 67.5942C62.5019 67.5177 62.1535 67.5128 61.8154 67.5798C61.4772 67.6468 61.157 67.7842 60.8755 67.9831C60.816 68.0331 60.7789 68.1047 60.7722 68.1821C60.7656 68.2595 60.7899 68.3364 60.84 68.3959C60.89 68.4553 60.9616 68.4924 61.039 68.4991C61.1164 68.5058 61.1933 68.4814 61.2527 68.4314C61.4663 68.2926 61.7053 68.1975 61.9559 68.1515C62.2064 68.1054 62.4636 68.1094 62.7126 68.1631C62.9577 68.2162 63.1866 68.3272 63.38 68.4868C63.5735 68.6465 63.7259 68.8501 63.8246 69.0807C63.8537 69.1434 63.9042 69.1936 63.967 69.2224C64.0299 69.2512 64.1009 69.2566 64.1674 69.2376Z" fill="#37474F"/>
<path d="M63.4535 70.5074C63.5216 70.4881 63.5806 70.4451 63.6198 70.3861C63.6591 70.3272 63.676 70.2562 63.6675 70.1859C63.6184 69.811 63.4946 69.4497 63.3035 69.1235C63.1125 68.7972 62.858 68.5125 62.5551 68.2861C62.3354 68.1151 62.0819 67.9925 61.8114 67.9263C61.541 67.8601 61.2595 67.8519 60.9856 67.9022C60.9432 67.9045 60.9018 67.9158 60.8642 67.9354C60.8265 67.9551 60.7935 67.9826 60.7674 68.0161C60.7413 68.0495 60.7226 68.0882 60.7127 68.1295C60.7027 68.1708 60.7017 68.2137 60.7098 68.2554C60.7178 68.2971 60.7347 68.3366 60.7593 68.3712C60.7839 68.4058 60.8156 68.4348 60.8524 68.4561C60.8891 68.4774 60.9299 68.4906 60.9722 68.4949C61.0145 68.4991 61.0571 68.4942 61.0973 68.4805C61.2887 68.4482 61.4848 68.4569 61.6725 68.5063C61.8602 68.5556 62.0352 68.6444 62.186 68.7667C62.4214 68.9426 62.6197 69.1633 62.7695 69.4161C62.9193 69.6689 63.0177 69.9488 63.0589 70.2397C63.0631 70.2782 63.0748 70.3154 63.0935 70.3492C63.1122 70.383 63.1374 70.4127 63.1678 70.4366C63.1981 70.4606 63.2329 70.4782 63.2702 70.4885C63.3074 70.4988 63.3463 70.5016 63.3846 70.4966L63.4535 70.5074Z" fill="#37474F"/>
<path d="M62.0709 71.0628C62.1184 71.0498 62.1619 71.0253 62.1976 70.9914C62.2332 70.9575 62.2599 70.9152 62.2752 70.8685C62.4213 70.0734 62.2909 69.2522 61.9055 68.5416C61.8267 68.3878 61.716 68.2525 61.5808 68.1448C61.4457 68.0371 61.2891 67.9594 61.1216 67.9169C61.0446 67.902 60.9649 67.9181 60.8997 67.9617C60.8346 68.0053 60.7893 68.0729 60.7738 68.1498C60.7667 68.1882 60.7674 68.2277 60.7756 68.2659C60.7839 68.3041 60.7996 68.3404 60.8219 68.3725C60.8441 68.4046 60.8725 68.4321 60.9054 68.4532C60.9383 68.4744 60.975 68.4888 61.0135 68.4958C61.0976 68.524 61.1751 68.569 61.2414 68.6281C61.3077 68.6871 61.3613 68.7589 61.3991 68.8391C61.6959 69.4076 61.8061 70.0551 61.7139 70.6897C61.7023 70.7264 61.6981 70.7651 61.7016 70.8034C61.7051 70.8418 61.7161 70.8791 61.7342 70.9131C61.7522 70.9472 61.7768 70.9773 61.8066 71.0017C61.8364 71.0261 61.8708 71.0444 61.9077 71.0554C61.9596 71.0768 62.0173 71.0794 62.0709 71.0628Z" fill="#37474F"/>
<path d="M60.4647 69.3985C60.5378 69.3714 60.5973 69.3166 60.6304 69.246C60.6635 69.1753 60.6676 69.0945 60.6417 69.021C60.6264 68.9773 60.6213 68.9308 60.6267 68.8849C60.6322 68.839 60.648 68.7949 60.673 68.756C60.7716 68.6222 60.9172 68.5306 61.0805 68.4997C61.1184 68.4958 61.1552 68.4844 61.1887 68.4662C61.2223 68.4481 61.2519 68.4235 61.2759 68.3939C61.2999 68.3643 61.3179 68.3302 61.3288 68.2936C61.3396 68.2571 61.3432 68.2188 61.3392 68.1808C61.329 68.1032 61.2893 68.0324 61.2283 67.9833C61.1673 67.9342 61.0897 67.9105 61.0116 67.9171C60.8429 67.9406 60.6811 68.0002 60.5375 68.092C60.394 68.1838 60.2719 68.3055 60.1798 68.4489C60.106 68.5593 60.0589 68.6853 60.0422 68.817C60.0255 68.9488 60.0396 69.0826 60.0835 69.2079C60.0956 69.2457 60.1151 69.2808 60.1409 69.311C60.1667 69.3412 60.1983 69.3659 60.2339 69.3837C60.2694 69.4014 60.3081 69.4119 60.3478 69.4144C60.3874 69.417 60.4272 69.4116 60.4647 69.3985Z" fill="#37474F"/>
<path d="M34.9361 50.0479C33.8229 51.7404 19.6985 52.1552 20.4096 55.4238C20.4096 55.4238 15.6185 55.9803 13.8685 58.3572C12.1185 60.7342 14.3605 60.8932 14.3605 60.8932C14.3605 60.8932 10.9441 64.3784 15.6182 63.9048C20.2923 63.4311 30.1476 58.9753 30.1476 58.9753L34.9361 50.0479Z" fill="#37474F"/>
<path d="M28.9494 53.3525C27.5824 53.7205 26.2631 54.0755 24.9073 54.4038C23.5516 54.732 22.2415 55.1213 20.8952 55.403C20.8952 55.403 20.8303 55.3252 20.8694 55.3073C22.1823 54.8697 23.5198 54.5097 24.875 54.2292C26.2421 53.8613 27.5784 53.5969 28.9402 53.3183L28.9494 53.3525Z" fill="#263238"/>
<path d="M25.909 57.1178C23.9488 57.7333 21.9647 58.26 20.01 58.8961C19.0659 59.2015 18.1324 59.5187 17.2043 59.8565C16.3838 60.158 15.5454 60.4203 14.7446 60.7678C16.405 59.9887 18.1179 59.3268 19.8707 58.787C21.8454 58.1016 23.8601 57.5373 25.9035 57.0973C25.9035 57.0973 25.9035 57.0973 25.9035 57.0973L25.909 57.1178Z" fill="#263238"/>
<path d="M29.4841 61.1404C29.4841 61.1404 33.096 65.2997 42.7908 66.1577C50.9705 66.8884 59.2838 63.2947 64.3026 58.4912C70.3142 52.7461 69.4723 47.7386 68.6623 44.8924L68.5537 44.4891C68.5096 44.3251 68.4709 44.1815 68.4323 44.038L68.3587 43.7646C68.3385 43.6894 68.3201 43.621 68.2998 43.5458C68.2509 43.0169 68.265 42.4841 68.3417 41.9585L68.3946 41.7463C67.4992 42.5924 66.5297 43.3563 65.4976 44.0288C63.7916 45.1258 60.9657 45.058 58.7504 43.7996C56.535 42.5412 56.3395 41.7874 57.0854 40.5824C57.8313 39.3773 58.7221 39.0643 60.9366 39.993C63.1512 40.9217 68.5567 39.4888 68.5567 39.4888L67.4529 35.3876L57.7214 29.5179C57.1423 29.7138 56.5799 29.9558 56.0396 30.2418L55.5127 30.5449C55.3292 30.6529 55.1612 30.7641 54.9951 30.8821C54.6515 31.1149 54.3234 31.3697 54.0128 31.645C53.8522 31.7835 53.7002 31.9271 53.5501 32.0774C52.6444 32.9883 51.9726 33.7335 51.3582 34.4194C49.6413 36.3476 48.4085 37.7863 43.9519 40.8112C42.6982 41.6626 41.5119 42.6093 40.4036 43.6428L39.6674 44.3394C39.1934 44.8116 38.7441 45.321 38.2987 45.7634L37.7079 46.4282L37.6532 46.443L37.0985 47.1054C36.6178 47.6893 36.1596 48.2745 35.7373 48.8573L35.2046 49.6017C34.781 50.2069 34.3848 50.8047 34.0072 51.3901L33.9704 51.444C33.8037 51.7235 33.6334 51.9892 33.4543 52.25L32.9547 53.1175L32.5901 53.7508C32.4102 54.0631 32.2468 54.3637 32.0997 54.6525C30.9133 56.6746 30.032 58.8608 29.4841 61.1404Z" fill="white"/>
<path opacity="0.4" d="M29.4841 61.1404C29.4841 61.1404 33.096 65.2997 42.7908 66.1577C50.9705 66.8884 59.2838 63.2947 64.3026 58.4912C70.3142 52.7461 69.4723 47.7386 68.6623 44.8924L68.5537 44.4891C68.5096 44.3251 68.4709 44.1815 68.4323 44.038L68.3587 43.7646C68.3385 43.6894 68.3201 43.621 68.2998 43.5458C68.2509 43.0169 68.265 42.4841 68.3417 41.9585L68.3946 41.7463C67.4992 42.5924 66.5297 43.3563 65.4976 44.0288C63.7916 45.1258 60.9657 45.058 58.7504 43.7996C56.535 42.5412 56.3395 41.7874 57.0854 40.5824C57.8313 39.3773 58.7221 39.0643 60.9366 39.993C63.1512 40.9217 68.5567 39.4888 68.5567 39.4888L67.4529 35.3876L57.7214 29.5179C57.1423 29.7138 56.5799 29.9558 56.0396 30.2418L55.5127 30.5449C55.3292 30.6529 55.1612 30.7641 54.9951 30.8821C54.6515 31.1149 54.3234 31.3697 54.0128 31.645C53.8522 31.7835 53.7002 31.9271 53.5501 32.0774C52.6444 32.9883 51.9726 33.7335 51.3582 34.4194C49.6413 36.3476 48.4085 37.7863 43.9519 40.8112C42.6982 41.6626 41.5119 42.6093 40.4036 43.6428L39.6674 44.3394C39.1934 44.8116 38.7441 45.321 38.2987 45.7634L37.7079 46.4282L37.6532 46.443L37.0985 47.1054C36.6178 47.6893 36.1596 48.2745 35.7373 48.8573L35.2046 49.6017C34.781 50.2069 34.3848 50.8047 34.0072 51.3901L33.9704 51.444C33.8037 51.7235 33.6334 51.9892 33.4543 52.25L32.9547 53.1175L32.5901 53.7508C32.4102 54.0631 32.2468 54.3637 32.0997 54.6525C30.9133 56.6746 30.032 58.8608 29.4841 61.1404Z" fill="white"/>
<path d="M29.4841 61.1404C34.8406 60.9213 40.0514 59.3321 44.6184 56.5245C52.4357 51.7962 54.5229 48.3022 56.6519 47.5239C58.7809 46.7456 61.5838 47.5453 65.0084 46.8142C66.3771 46.514 67.6394 45.8501 68.6623 44.8924L68.5537 44.4891C68.5096 44.3251 68.4709 44.1815 68.4323 44.038L68.3587 43.7646C68.3385 43.6894 68.3201 43.621 68.2998 43.5458C68.2509 43.0169 68.265 42.4841 68.3417 41.9585L68.3946 41.7463C67.4992 42.5924 66.5297 43.3563 65.4976 44.0288C63.7916 45.1258 60.9657 45.058 58.7504 43.7996C56.535 42.5412 56.3395 41.7874 57.0854 40.5824C57.8313 39.3773 58.7221 39.0643 60.9366 39.993C63.1512 40.9217 68.5567 39.4888 68.5567 39.4888L67.4529 35.3876L57.7214 29.5179C57.1423 29.7138 56.5799 29.9558 56.0396 30.2418L55.5127 30.5449C55.3292 30.6529 55.1612 30.7641 54.9951 30.8821C54.6515 31.1149 54.3234 31.3697 54.0128 31.645C53.8522 31.7835 53.7002 31.9271 53.5501 32.0774C52.6444 32.9883 51.9726 33.7335 51.3582 34.4194C50.6881 37.0775 50.5894 38.5628 51.4424 39.6894C52.7468 41.3844 54.2051 42.9551 55.7988 44.3814C56.9221 45.2593 58.4216 45.9553 51.9724 46.2616C45.5233 46.5679 39.855 46.3708 40.4178 43.6683L39.6816 44.3649C39.2076 44.837 38.7583 45.3465 38.3129 45.7889L37.7221 46.4538L37.6674 46.4685L37.1126 47.1309C36.632 47.7148 36.1738 48.3 35.7515 48.8828L35.2188 49.6272C34.7884 50.2342 34.399 50.8302 34.0214 51.4156L33.9846 51.4695C33.8179 51.749 33.6476 52.0147 33.4685 52.2755L32.9689 53.143L32.6042 53.7763C32.4244 54.0886 32.2609 54.3892 32.1139 54.678C30.9249 56.6914 30.0388 58.8689 29.4841 61.1404Z" fill="#455A64"/>
<path d="M49.2851 42.242C39.9159 44.1186 32.5104 50.2683 28.6163 54.4025C24.7222 58.5368 23.6525 61.5077 27.663 62.327C31.6734 63.1462 45.6203 53.22 49.2851 42.242Z" fill="#455A64"/>
<path d="M52.9533 32.6925L53.5227 32.0847C54.2959 31.3207 55.1814 30.6794 56.1484 30.1831L56.0049 30.2218C57.5222 29.396 59.2064 28.9237 60.9318 28.8401C62.6572 28.7565 64.3792 29.0638 65.9692 29.7391C66.7758 30.1321 67.5189 30.6437 68.1738 31.257C68.6812 31.7391 69.1183 32.2902 69.4721 32.8941C69.8318 33.4123 70.0684 34.0058 70.1638 34.6293C70.2592 35.2528 70.2109 35.8899 70.0226 36.4919L69.6097 37.9812L68.8045 40.9542C68.6295 41.1727 68.5077 41.4288 68.4487 41.7024C67.5534 42.5485 66.5838 43.3124 65.5517 43.9849C63.8457 45.0818 61.0198 45.0141 58.8045 43.7557C56.5892 42.4973 56.3936 41.7435 57.1395 40.5385C57.8855 39.3334 58.7762 39.0204 60.9908 39.9491C63.2053 40.8778 68.6109 39.4449 68.6109 39.4449L68.3791 38.5836C67.8986 38.7139 67.4004 38.7663 66.9034 38.7389C65.3036 38.7765 63.7287 38.338 62.3785 37.479C61.2169 36.5675 60.7534 35.7172 59.4752 35.8707C56.8922 36.1334 55.4002 38.0524 54.7631 38.2458C54.3598 38.3544 53.0183 37.5645 52.7776 36.9696C52.2395 35.5969 52.195 33.4977 52.9533 32.6925Z" fill="#FAFAFA"/>
<path d="M59.7369 33.711C58.1622 33.7976 55.7546 33.7859 54.4948 32.6735C54.221 32.4285 54.012 32.1196 53.8863 31.7743C57.3444 28.6077 62.65 28.1107 66.0089 29.7504C66.3062 29.9024 66.5957 30.0691 66.8764 30.25C66.4451 32.8145 61.7184 33.6102 59.7369 33.711Z" fill="#455A64"/>
<path d="M73.692 41.2735C72.9335 41.7782 71.8556 41.6138 70.9192 41.6753C69.9827 41.7367 68.7976 41.7185 68.2891 41.7087C68.1069 41.7081 67.9283 41.6573 67.7731 41.5617C67.5091 41.3954 67.2949 41.1609 67.153 40.883C67.0111 40.6051 66.9468 40.2941 66.9669 39.9827C68.0717 39.7336 69.2139 39.6974 70.3323 39.876C71.5747 39.9627 72.7546 40.4535 73.692 41.2735Z" fill="#263238"/>
<path d="M68.2525 36.5065C68.9508 35.8054 69.6196 36.1386 70.3811 36.5714C71.5512 37.1874 74.0196 39.6312 74.4215 40.6886C74.8234 41.746 72.6101 41.1762 70.7131 40.7191C68.8161 40.262 67.5884 40.1673 66.9327 39.9919C66.2771 39.8165 67.2757 37.4805 68.2525 36.5065Z" fill="#455A64"/>
<path d="M49.2851 42.242C44.2051 43.2501 41.266 45.8664 42.2433 47.3188C36.1007 48.4369 34.7449 52.4965 37.2778 52.7017C30.0254 54.6537 28.2896 57.4374 31.6749 57.6771C24.983 59.4782 24.3389 65.1202 38.6033 63.3189C51.3665 55.9398 49.2851 42.242 49.2851 42.242Z" fill="#37474F"/>
<path d="M49.2851 42.2419C52.7293 45.8599 54.6706 52.4188 53.2914 56.0375C51.9122 59.6562 46.4593 62.2747 41.5257 63.3094C36.5921 64.344 35.2392 60.8156 40.0704 57.9025C38.0793 57.3682 38.5046 54.5633 42.2179 52.6989C39.3774 50.861 43.462 48.6328 45.0562 48.1011C44.6061 44.9308 47.3575 42.7608 49.2851 42.2419Z" fill="#263238"/>
<path d="M62.2733 38.5043C62.2725 38.4612 62.2612 38.4189 62.2402 38.3813C62.1987 38.312 62.1516 38.2462 62.0993 38.1846C62.0128 38.0539 61.9723 37.9036 61.8927 37.7711C61.8271 37.6614 61.7415 37.5651 61.6403 37.4871C61.4348 37.3295 61.1824 37.2452 60.9234 37.2476C60.6687 37.2462 60.4184 37.3136 60.1989 37.4426C60.0116 37.5397 59.8508 37.6811 59.7306 37.8545C59.6877 37.9183 59.6368 37.9763 59.5792 38.0272L59.4895 38.1026C59.4574 38.1503 59.4401 38.2064 59.4399 38.2639C59.4397 38.3214 59.4566 38.3776 59.4884 38.4255C59.5068 38.4938 59.6086 38.5178 59.6543 38.5788C59.7097 38.6585 59.7551 38.7448 59.7894 38.8356C59.8564 39.0002 59.967 39.1433 60.1093 39.2497C60.2516 39.3561 60.4202 39.4216 60.597 39.4393C60.7894 39.4582 60.9836 39.4407 61.1696 39.3878C61.3581 39.3275 61.534 39.2329 61.6883 39.1089C61.8458 38.9859 61.9754 38.8411 62.1416 38.723C62.1858 38.6971 62.2238 38.6618 62.253 38.6197C62.2739 38.5851 62.2811 38.544 62.2733 38.5043Z" fill="#263238"/>
</g>
<defs>
<filter id="filter0_d_40_611" x="97.1841" y="4.38794" width="91.4058" height="91.4058" filterUnits="userSpaceOnUse" color-interpolation-filters="sRGB">
<feFlood flood-opacity="0" result="BackgroundImageFix"/>
<feColorMatrix in="SourceAlpha" type="matrix" values="0 0 0 0 0 0 0 0 0 0 0 0 0 0 0 0 0 0 127 0" result="hardAlpha"/>
<feOffset dy="4"/>
<feGaussianBlur stdDeviation="3.5"/>
<feColorMatrix type="matrix" values="0 0 0 0 0 0 0 0 0 0 0 0 0 0 0 0 0 0 0.22 0"/>
<feBlend mode="normal" in2="BackgroundImageFix" result="effect1_dropShadow_40_611"/>
<feBlend mode="normal" in="SourceGraphic" in2="effect1_dropShadow_40_611" result="shape"/>
</filter>
<filter id="filter1_d_40_611" x="47.1865" y="0.417114" width="86" height="86" filterUnits="userSpaceOnUse" color-interpolation-filters="sRGB">
<feFlood flood-opacity="0" result="BackgroundImageFix"/>
<feColorMatrix in="SourceAlpha" type="matrix" values="0 0 0 0 0 0 0 0 0 0 0 0 0 0 0 0 0 0 127 0" result="hardAlpha"/>
<feOffset dy="4"/>
<feGaussianBlur stdDeviation="3.5"/>
<feColorMatrix type="matrix" values="0 0 0 0 0 0 0 0 0 0 0 0 0 0 0 0 0 0 0.22 0"/>
<feBlend mode="normal" in2="BackgroundImageFix" result="effect1_dropShadow_40_611"/>
<feBlend mode="normal" in="SourceGraphic" in2="effect1_dropShadow_40_611" result="shape"/>
</filter>
<filter id="filter2_d_40_611" x="0.387909" y="7.66968" width="91.4058" height="91.4058" filterUnits="userSpaceOnUse" color-interpolation-filters="sRGB">
<feFlood flood-opacity="0" result="BackgroundImageFix"/>
<feColorMatrix in="SourceAlpha" type="matrix" values="0 0 0 0 0 0 0 0 0 0 0 0 0 0 0 0 0 0 127 0" result="hardAlpha"/>
<feOffset dy="4"/>
<feGaussianBlur stdDeviation="3.5"/>
<feColorMatrix type="matrix" values="0 0 0 0 0 0 0 0 0 0 0 0 0 0 0 0 0 0 0.22 0"/>
<feBlend mode="normal" in2="BackgroundImageFix" result="effect1_dropShadow_40_611"/>
<feBlend mode="normal" in="SourceGraphic" in2="effect1_dropShadow_40_611" result="shape"/>
</filter>
</defs>
</svg>
