<svg width="46" height="46" viewBox="0 0 46 46" fill="none" xmlns="http://www.w3.org/2000/svg">
<g filter="url(#filter0_d_40_811)">
<circle cx="23" cy="19" r="16" fill="#FD4B28"/>
</g>
<ellipse cx="15.2701" cy="9.0636" rx="3" ry="1.5" transform="rotate(-39.4153 15.2701 9.0636)" fill="white" fill-opacity="0.69"/>
<path d="M16.7029 17.1192C19.4524 17.1192 22.202 17.1192 24.9514 17.1192C24.2508 16.419 23.5502 15.7188 22.8497 15.0183C21.2336 13.4031 23.7512 10.9054 25.3713 12.5249C27.0791 14.2319 28.7867 15.9388 30.4945 17.6458C31.1799 18.3309 31.1614 19.4725 30.481 20.1526C28.7732 21.8593 27.0656 23.5663 25.3578 25.273C23.7418 26.8882 21.2428 24.3719 22.8632 22.7526C23.5595 22.0566 24.2558 21.3607 24.9521 20.665C22.2108 20.665 19.4696 20.665 16.7285 20.665C14.4383 20.665 14.418 17.1192 16.7029 17.1192Z" fill="white"/>
<circle cx="12" cy="13.5" r="1.5" fill="white" fill-opacity="0.69"/>
<defs>
<filter id="filter0_d_40_811" x="0" y="0" width="46" height="46" filterUnits="userSpaceOnUse" color-interpolation-filters="sRGB">
<feFlood flood-opacity="0" result="BackgroundImageFix"/>
<feColorMatrix in="SourceAlpha" type="matrix" values="0 0 0 0 0 0 0 0 0 0 0 0 0 0 0 0 0 0 127 0" result="hardAlpha"/>
<feOffset dy="4"/>
<feGaussianBlur stdDeviation="3.5"/>
<feColorMatrix type="matrix" values="0 0 0 0 0 0 0 0 0 0 0 0 0 0 0 0 0 0 0.22 0"/>
<feBlend mode="normal" in2="BackgroundImageFix" result="effect1_dropShadow_40_811"/>
<feBlend mode="normal" in="SourceGraphic" in2="effect1_dropShadow_40_811" result="shape"/>
</filter>
</defs>
</svg>
