<svg width="308" height="57" viewBox="0 0 308 57" fill="none" xmlns="http://www.w3.org/2000/svg">
<g opacity="0.68">
<g opacity="0.68">
<path opacity="0.68" d="M136.68 25C136.68 27.1756 136.035 29.3023 134.826 31.1113C133.617 32.9202 131.899 34.3301 129.889 35.1627C127.879 35.9952 125.667 36.2131 123.534 35.7886C121.4 35.3642 119.44 34.3165 117.902 32.7782C116.363 31.2398 115.315 29.2798 114.891 27.146C114.467 25.0122 114.684 22.8005 115.517 20.7905C116.35 18.7805 117.759 17.0625 119.568 15.8538C121.377 14.6451 123.504 14 125.68 14C128.597 14 131.395 15.1589 133.458 17.2218C135.521 19.2847 136.68 22.0826 136.68 25Z" fill="#CEFFFF"/>
<path opacity="0.68" d="M172.75 25C172.75 27.1756 172.105 29.3023 170.896 31.1113C169.687 32.9202 167.969 34.3301 165.959 35.1627C163.949 35.9952 161.737 36.2131 159.604 35.7886C157.47 35.3642 155.51 34.3165 153.972 32.7782C152.433 31.2398 151.385 29.2798 150.961 27.146C150.537 25.0122 150.754 22.8005 151.587 20.7905C152.42 18.7805 153.829 17.0625 155.638 15.8538C157.447 14.6451 159.574 14 161.75 14C164.667 14 167.465 15.1589 169.528 17.2218C171.591 19.2847 172.75 22.0826 172.75 25Z" fill="#CEFFFF"/>
<path opacity="0.68" d="M181.21 27.26C181.212 28.5994 180.816 29.9093 180.074 31.0239C179.331 32.1386 178.274 33.0079 177.037 33.5218C175.801 34.0357 174.439 34.1712 173.125 33.9111C171.811 33.651 170.604 33.0071 169.656 32.0607C168.708 31.1143 168.063 29.908 167.801 28.5944C167.538 27.2809 167.672 25.9192 168.184 24.6816C168.696 23.4439 169.564 22.386 170.677 21.6417C171.791 20.8973 173.1 20.5 174.44 20.5C175.328 20.4987 176.208 20.6726 177.03 21.0117C177.851 21.3508 178.597 21.8486 179.226 22.4764C179.855 23.1043 180.354 23.8499 180.694 24.6708C181.035 25.4916 181.21 26.3714 181.21 27.26Z" fill="#CEFFFF"/>
<path opacity="0.68" d="M161.72 18C161.72 21.5601 160.664 25.0402 158.686 28.0003C156.708 30.9603 153.897 33.2675 150.608 34.6298C147.319 35.9922 143.7 36.3487 140.208 35.6541C136.716 34.9596 133.509 33.2453 130.992 30.7279C128.474 28.2106 126.76 25.0033 126.066 21.5116C125.371 18.02 125.727 14.4008 127.09 11.1117C128.452 7.82262 130.759 5.0114 133.719 3.03354C136.68 1.05567 140.16 0 143.72 0C148.494 0 153.072 1.89642 156.448 5.27208C159.823 8.64773 161.72 13.2261 161.72 18Z" fill="#CEFFFF"/>
</g>
</g>
<g opacity="0.76">
<g opacity="0.76">
<path opacity="0.76" d="M260.32 45.23C260.32 47.2078 259.733 49.1412 258.634 50.7857C257.536 52.4302 255.974 53.7119 254.147 54.4688C252.319 55.2257 250.309 55.4237 248.369 55.0378C246.429 54.652 244.647 53.6996 243.249 52.3011C241.85 50.9025 240.898 49.1207 240.512 47.1809C240.126 45.2411 240.324 43.2304 241.081 41.4032C241.838 39.5759 243.119 38.0141 244.764 36.9153C246.408 35.8165 248.342 35.23 250.32 35.23C252.972 35.23 255.515 36.2836 257.391 38.1589C259.266 40.0343 260.32 42.5778 260.32 45.23Z" fill="#CEFFFF"/>
<path opacity="0.76" d="M296.38 44.7C296.382 46.8606 295.743 48.9733 294.543 50.7706C293.344 52.5679 291.639 53.9691 289.643 54.7968C287.647 55.6246 285.451 55.8417 283.332 55.4206C281.213 54.9996 279.266 53.9594 277.738 52.4316C276.21 50.9038 275.17 48.9571 274.749 46.8379C274.328 44.7187 274.545 42.5222 275.373 40.5265C276.201 38.5307 277.602 36.8253 279.399 35.6262C281.196 34.427 283.309 33.788 285.47 33.79C288.362 33.7926 291.136 34.9429 293.181 36.9884C295.227 39.0338 296.377 41.8073 296.38 44.7Z" fill="#CEFFFF"/>
<path opacity="0.76" d="M307.98 44.7C307.98 46.3435 307.492 47.9502 306.579 49.3168C305.666 50.6833 304.368 51.7485 302.85 52.3774C301.331 53.0064 299.66 53.171 298.048 52.8503C296.437 52.5297 294.956 51.7382 293.794 50.576C292.631 49.4139 291.84 47.9332 291.519 46.3212C291.199 44.7092 291.363 43.0383 291.992 41.5199C292.621 40.0014 293.686 38.7036 295.053 37.7905C296.419 36.8774 298.026 36.39 299.67 36.39C301.873 36.3926 303.985 37.269 305.543 38.8268C307.101 40.3847 307.977 42.4968 307.98 44.7Z" fill="#CEFFFF"/>
<path opacity="0.76" d="M283.51 40.77C283.518 43.865 282.607 46.8927 280.893 49.47C279.18 52.0472 276.74 54.0581 273.883 55.2479C271.026 56.4378 267.88 56.7533 264.843 56.1543C261.807 55.5554 259.016 54.069 256.825 51.8833C254.633 49.6976 253.14 46.9109 252.533 43.8759C251.926 40.841 252.234 37.6943 253.416 34.8341C254.599 31.9739 256.604 29.5289 259.176 27.8086C261.749 26.0883 264.775 25.17 267.87 25.17C272.011 25.17 275.983 26.8123 278.915 29.7367C281.847 32.6611 283.499 36.6289 283.51 40.77Z" fill="#CEFFFF"/>
</g>
</g>
<g opacity="0.9">
<g opacity="0.9">
<path opacity="0.9" d="M46.5097 34.92C46.5117 37.4441 45.765 39.9121 44.3641 42.0118C42.9633 44.1115 40.9711 45.7485 38.6397 46.7158C36.3083 47.6831 33.7424 47.9372 31.2665 47.446C28.7906 46.9548 26.5161 45.7403 24.7306 43.9562C22.9451 42.1721 21.7288 39.8985 21.2356 37.423C20.7425 34.9475 20.9946 32.3814 21.9601 30.0493C22.9255 27.7171 24.561 25.7237 26.6596 24.3211C28.7582 22.9186 31.2256 22.17 33.7497 22.17C37.1321 22.17 40.3762 23.513 42.7689 25.9038C45.1615 28.2946 46.5071 31.5376 46.5097 34.92Z" fill="#CEFFFF"/>
<path opacity="0.9" d="M56.1197 38.33C56.1217 40.0061 55.6264 41.645 54.6964 43.0394C53.7665 44.4339 52.4438 45.521 50.8957 46.1634C49.3476 46.8057 47.6437 46.9742 45.9998 46.6477C44.3558 46.3212 42.8457 45.5144 41.6605 44.3292C40.4754 43.144 39.6685 41.6339 39.342 39.99C39.0155 38.346 39.1841 36.6421 39.8264 35.094C40.4687 33.5459 41.5559 32.2232 42.9503 31.2933C44.3447 30.3634 45.9837 29.868 47.6597 29.87C49.9026 29.8726 52.0529 30.7648 53.6389 32.3508C55.2249 33.9368 56.1171 36.0871 56.1197 38.33Z" fill="#CEFFFF"/>
<path opacity="0.9" d="M28.2097 37.31C28.2097 39.2704 27.6283 41.1868 26.5389 42.8167C25.4495 44.4466 23.9012 45.7168 22.0898 46.4666C20.2784 47.2163 18.2853 47.412 16.3627 47.0288C14.4401 46.6456 12.6743 45.7008 11.2888 44.3139C9.90322 42.9269 8.96017 41.1602 8.57892 39.2372C8.19767 37.3142 8.39535 35.3213 9.14695 33.5106C9.89854 31.7 11.1703 30.153 12.8013 29.0653C14.4323 27.9775 16.3493 27.398 18.3097 27.4C19.6106 27.4 20.8988 27.6564 22.1006 28.1545C23.3024 28.6527 24.3942 29.3828 25.3136 30.3032C26.233 31.2235 26.9621 32.3161 27.459 33.5183C27.9559 34.7206 28.211 36.009 28.2097 37.31Z" fill="#CEFFFF"/>
<path opacity="0.9" d="M12.6597 39.44C12.6716 40.6949 12.3102 41.9249 11.6215 42.974C10.9328 44.023 9.9478 44.8437 8.79166 45.3317C7.63552 45.8197 6.3604 45.9531 5.1283 45.7149C3.8962 45.4766 2.76271 44.8775 1.87183 43.9937C0.980946 43.1099 0.372874 41.9812 0.124857 40.751C-0.123159 39.5208 7.31647e-05 38.2447 0.478899 37.0847C0.957725 35.9247 1.77054 34.9333 2.81408 34.2362C3.85762 33.5392 5.0848 33.1681 6.33972 33.17C8.01589 33.17 9.6234 33.8359 10.8086 35.0211C11.9939 36.2063 12.6597 37.8138 12.6597 39.49" fill="#CEFFFF"/>
</g>
</g>
</svg>
