<svg width="312" height="102" viewBox="0 0 312 102" fill="none" xmlns="http://www.w3.org/2000/svg">
<path d="M-56.0566 -45.9892C-53.8536 -42.6191 -51.6184 -39.292 -49.351 -36.0511C-19.4875 6.56518 16.5121 38.2744 50.1368 57.3537C81.9669 75.3995 112.83 83.6148 140.275 85.3268C192.695 88.5677 234.498 69.7252 266.586 42.9043C294.483 19.5504 316.018 -10.9206 331.664 -45.9892L338.101 -45.9892C321.595 -7.4859 298.555 26.1291 268.348 52.1209C234.627 81.0953 190.438 102.307 133.957 101.09C104.007 100.422 70.0172 93.0575 34.1143 74.958C-4.00225 55.7171 -45.7618 22.7051 -81.7721 -23.852C-87.2204 -30.9045 -92.5505 -38.3122 -97.7516 -46L-56.0781 -46L-56.0566 -45.9892Z" fill="#FF2215"/>
<path d="M-18.5955 -45.9891C5.94871 -7.8304 36.4247 21.833 65.622 40.3202C93.6802 58.0752 121.566 66.9366 146.583 69.5422C194.973 74.5489 234.347 57.9998 264.737 33.3216C290.173 12.6379 310.108 -14.5383 324.83 -45.9891L331.654 -45.9891C316.007 -10.9098 294.472 19.5504 266.575 42.9043C234.487 69.7253 192.684 88.5677 140.265 85.3268C112.819 83.6148 81.9562 75.3995 50.1261 57.3538C16.5122 38.2744 -19.4982 6.56525 -49.3617 -36.0511C-51.6291 -39.292 -53.8643 -42.619 -56.0673 -45.9891L-18.6062 -45.9891L-18.5955 -45.9891Z" fill="#FFAF1D"/>
<path d="M15.3731 -45.989C34.5119 -16.2825 57.7343 7.77131 80.6129 23.8359C105.179 41.0741 130.239 50.3876 152.913 53.7254C197.284 60.2288 234.186 45.887 262.814 23.3514C285.628 5.37027 303.821 -18.3712 317.533 -45.9889L324.83 -45.9889C310.097 -14.5381 290.173 12.6381 264.737 33.3217C234.347 57.9892 194.973 74.5491 146.583 69.5424C121.566 66.9367 93.6802 58.0754 65.622 40.3204C36.4247 21.8224 5.94865 -7.83025 -18.5955 -45.989L15.3731 -45.989Z" fill="#FFE71E"/>
<path d="M46.4831 -45.9893C60.9796 -23.9059 77.98 -5.40794 95.1309 7.86793C116.483 24.3847 138.835 33.9567 159.253 37.876C199.637 45.6068 234.025 33.3753 260.826 12.9716C280.824 -2.27468 297.083 -22.4307 309.656 -45.9785L317.544 -45.9785C303.832 -18.3608 285.639 5.38075 262.824 23.3619C234.197 45.8867 197.294 60.2393 152.924 53.7359C130.249 50.3981 105.189 41.0846 80.6236 23.8464C57.7451 7.78181 34.5226 -16.272 15.3837 -45.9785L46.4938 -45.9785L46.4831 -45.9893Z" fill="#5CFF00"/>
<path d="M75.2506 -45.9892C85.5991 -30.8398 97.248 -17.7578 109.198 -7.60437C127.595 8.01874 147.368 17.6446 165.615 21.9945C226.846 36.5194 273.076 2.96898 301.178 -45.9892L309.656 -45.9892C297.083 -22.4307 280.824 -2.28539 260.826 12.9609C234.025 33.3646 199.648 45.596 159.253 37.8652C138.836 33.946 116.484 24.374 95.131 7.85723C77.9801 -5.41865 60.9797 -23.9166 46.4832 -46L75.2506 -46L75.2506 -45.9892Z" fill="#00C5FF"/>
<path d="M102.234 -45.9893C108.703 -37.1602 115.656 -29.2679 122.834 -22.6031C138.524 -8.04592 155.836 1.46146 171.976 6.08056C224.02 20.9177 265.285 -5.05265 291.667 -45.9893L301.167 -45.9893C273.065 2.96887 226.836 36.5192 165.604 21.9944C147.357 17.6445 127.595 8.01863 109.187 -7.60447C97.2371 -17.7579 85.599 -30.8399 75.2397 -45.9893L102.213 -45.9893L102.234 -45.9893Z" fill="#005CFF"/>
<path d="M129.153 -45.9892C144.445 -28.2019 162.155 -15.3136 178.36 -9.85469C221 4.4333 256.581 -13.8493 280.867 -45.9892L291.667 -45.9892C265.275 -5.04177 224.02 20.9285 171.977 6.08067C155.825 1.4508 138.524 -8.04581 122.834 -22.603C115.656 -29.2678 108.703 -37.1601 102.234 -45.9892L129.153 -45.9892Z" fill="#4B00FF"/>
</svg>
