<svg width="192" height="121" viewBox="0 0 192 121" fill="none" xmlns="http://www.w3.org/2000/svg">
<g filter="url(#filter0_d_7_2549)">
<path d="M74.5817 71.8358C78.7762 72.9597 83.0876 70.4705 84.2116 66.276C85.3355 62.0815 82.8463 57.77 78.6518 56.6461C74.4573 55.5222 70.1458 58.0114 69.0219 62.2059C67.898 66.4004 70.3872 70.7119 74.5817 71.8358Z" fill="#FA9E25"/>
<path d="M75.5632 68.1734C77.735 68.7553 79.9674 67.4665 80.5493 65.2947C81.1312 63.1229 79.8424 60.8905 77.6706 60.3086C75.4988 59.7266 73.2664 61.0155 72.6845 63.1873C72.1026 65.3591 73.3914 67.5915 75.5632 68.1734Z" fill="#FFDE76"/>
<path d="M109.62 81.2243C113.815 82.3482 118.126 79.859 119.25 75.6645C120.374 71.47 117.885 67.1585 113.69 66.0346C109.496 64.9107 105.184 67.3999 104.06 71.5944C102.936 75.7889 105.426 80.1004 109.62 81.2243Z" fill="#FA9E25"/>
<path d="M110.602 77.5619C112.773 78.1438 115.006 76.855 115.588 74.6832C116.17 72.5113 114.881 70.279 112.709 69.6971C110.537 69.1151 108.305 70.404 107.723 72.5758C107.141 74.7476 108.43 76.9799 110.602 77.5619Z" fill="#FFDE76"/>
<path d="M84.1147 106.337C96.709 109.712 109.654 102.238 113.029 89.6438C116.404 77.0494 108.93 64.104 96.3353 60.7294C83.741 57.3547 70.7956 64.8287 67.4209 77.4231C64.0463 90.0174 71.5203 102.963 84.1147 106.337Z" fill="#FFB641"/>
<path d="M79.3479 78.2338C78.7755 78.0805 78.4359 77.4922 78.5893 76.9199L79.1582 74.7967C79.3115 74.2244 79.8998 73.8848 80.4721 74.0381C81.0444 74.1915 81.384 74.7797 81.2307 75.352L80.6618 77.4752C80.5084 78.0476 79.9202 78.3872 79.3479 78.2338Z" fill="#38484A"/>
<path d="M102.293 84.382C101.721 84.2287 101.381 83.6404 101.535 83.0681L102.103 80.9449C102.257 80.3726 102.845 80.033 103.417 80.1863C103.99 80.3397 104.329 80.9279 104.176 81.5002L103.607 83.6234C103.454 84.1957 102.865 84.5354 102.293 84.382Z" fill="#38484A"/>
<path d="M94.6387 80.5788C98.4614 83.1148 100.421 87.8947 99.1687 92.5696C97.5996 98.4257 91.5805 101.902 85.7231 100.332C79.8658 98.763 76.3912 92.7429 77.9603 86.8869C79.213 82.2119 83.3004 79.0524 87.8788 78.7675L94.6387 80.5788Z" fill="#FFDE76"/>
<path d="M94.6387 80.5789C93.9401 82.1389 92.1929 83.006 90.4883 82.5492C88.7836 82.0924 87.7041 80.468 87.8791 78.7677C89.0363 78.6945 90.2253 78.8064 91.4064 79.1229C92.5875 79.4393 93.6731 79.9369 94.6387 80.5789Z" fill="#38484A"/>
<path d="M89.144 87.5662C87.562 87.1423 86.2547 86.0847 85.5574 84.6646C85.2962 84.1327 85.5155 83.4898 86.0474 83.2287C86.5791 82.9675 87.222 83.1868 87.4833 83.7187C87.9078 84.5831 88.7155 85.2301 89.6993 85.4937C90.6831 85.7573 91.7062 85.6009 92.506 85.0645C92.9982 84.7345 93.6645 84.8659 93.9945 85.3581C94.3246 85.8502 94.1931 86.5167 93.7009 86.8467C92.3869 87.7278 90.726 87.9901 89.144 87.5662Z" fill="#38484A"/>
</g>
<g filter="url(#filter1_d_7_2549)">
<path d="M133.139 57.6055C147.009 53.889 155.561 40.8303 152.24 28.4381C148.92 16.0459 134.984 9.0128 121.114 12.7293C107.244 16.4458 98.6918 29.5045 102.012 41.8967C105.333 54.2889 119.268 61.322 133.139 57.6055Z" fill="#4A5058"/>
<path d="M150.799 43.302C151.557 40.5543 151.589 37.5657 150.729 34.6161C148.344 26.4375 139.823 21.5591 131.561 23.6398C129.716 24.1046 128.03 24.873 126.541 25.8771C125.496 26.5818 124.245 26.917 122.988 26.8291C121.197 26.704 119.353 26.8815 117.522 27.4016C109.327 29.73 104.386 38.216 106.411 46.4919C107.141 49.4767 108.663 52.0489 110.694 54.0495C116.731 58.2439 124.946 59.7999 133.138 57.6047C141.332 55.4093 147.668 49.9538 150.799 43.302Z" fill="#E8E8E8"/>
<path d="M116.133 43.8963C115.567 44.048 114.985 43.7121 114.834 43.1459L114.425 41.6193C114.273 41.0533 114.609 40.4713 115.175 40.3196C115.741 40.1679 116.323 40.5038 116.475 41.07L116.884 42.5965C117.035 43.1628 116.699 43.7446 116.133 43.8963Z" fill="#4A5058"/>
<path d="M141.011 37.2303C140.445 37.382 139.863 37.0461 139.711 36.4799L139.302 34.9533C139.151 34.3873 139.486 33.8053 140.053 33.6536C140.619 33.5019 141.201 33.8378 141.352 34.404L141.761 35.9305C141.913 36.4967 141.577 37.0787 141.011 37.2303Z" fill="#4A5058"/>
<path d="M134.407 43.0812L132.718 46.0062C131.704 47.7617 129.46 48.3632 127.704 47.3497L124.779 45.6609C123.661 45.0154 123.46 43.4846 124.375 42.573C126.688 40.2657 130.055 39.3636 133.213 40.2049C134.46 40.5373 135.052 41.9632 134.407 43.0812Z" fill="#F4B759"/>
</g>
<g filter="url(#filter2_d_7_2549)">
<path d="M149.037 66.9778C149.785 70.0746 152.216 72.1444 154.466 71.6008C156.716 71.0573 157.934 68.1059 157.186 65.0092C156.438 61.9124 154.14 60.3902 151.889 60.934C149.639 61.4775 148.289 63.8808 149.037 66.9778Z" fill="#BCE9ED"/>
<path opacity="0.2" d="M153.062 67.9024C153.224 67.9458 153.399 67.9506 153.574 67.9082C154.133 67.7735 154.476 67.2112 154.341 66.653L153.945 65.0122C153.81 64.4541 153.248 64.1107 152.689 64.2456C152.131 64.3803 151.788 64.9425 151.922 65.5008L152.319 67.1414C152.411 67.5251 152.706 67.807 153.062 67.9024Z" fill="black"/>
<path d="M149.308 107.783L154.405 109.148C154.826 109.261 155.26 109.011 155.373 108.589L156.332 105.01L149.708 103.235L148.749 106.814C148.636 107.236 148.886 107.67 149.308 107.783Z" fill="#F8E9B4"/>
<path opacity="0.08" d="M149.708 103.235L156.332 105.01L156.028 106.144L149.404 104.369L149.708 103.235Z" fill="black"/>
<path d="M137.07 104.503L142.167 105.869C142.588 105.982 143.022 105.732 143.135 105.31L144.517 100.152L137.893 98.3773L136.511 103.535C136.398 103.957 136.648 104.39 137.07 104.503Z" fill="#F8E9B4"/>
<path opacity="0.08" d="M137.876 98.3719L144.517 100.151L143.79 102.864L137.149 101.084L137.876 98.3719Z" fill="black"/>
<path d="M141.908 76.4506C146.071 68.7315 155.122 64.5838 163.963 66.9526L169.709 68.4924C171.892 69.0773 173.886 70.0136 175.65 71.2227C176.093 70.6555 176.645 70.1263 177.295 69.6712C179.905 67.8438 182.635 68.223 183.963 70.1193C185.291 72.0156 184.713 74.7112 182.104 76.5386C181.812 76.743 181.512 76.9225 181.209 77.0798C183.887 81.4511 184.836 86.8704 183.404 92.2131C180.636 102.545 170.016 108.677 159.684 105.908L140.095 100.659C133.505 98.8937 129.595 92.1207 131.36 85.5312C132.714 80.4805 137.009 77.004 141.908 76.4506Z" fill="#B0E2E8"/>
<path d="M162.694 81.7876C163.249 81.9363 163.819 81.607 163.968 81.0522L164.369 79.556C164.517 79.0011 164.188 78.4308 163.633 78.2821C163.078 78.1334 162.508 78.4627 162.359 79.0176L161.958 80.5137C161.81 81.0686 162.139 81.639 162.694 81.7876Z" fill="#4A5058"/>
<path d="M149.5 78.2525C150.055 78.4012 150.625 78.0718 150.774 77.517L151.175 76.0208C151.324 75.466 150.995 74.8956 150.44 74.7469C149.885 74.5982 149.314 74.9276 149.166 75.4824L148.765 76.9786C148.616 77.5334 148.945 78.1038 149.5 78.2525Z" fill="#4A5058"/>
<g opacity="0.2">
<path opacity="0.2" d="M156.421 91.4265C155.193 91.0974 154.464 89.8351 154.793 88.6069C155.122 87.3788 156.385 86.65 157.613 86.979C158.841 87.3081 159.57 88.5705 159.241 89.7986C158.912 91.0268 157.649 91.7556 156.421 91.4265Z" fill="black"/>
<path opacity="0.2" d="M140.855 87.2554C139.626 86.9263 138.898 85.664 139.227 84.4358C139.556 83.2077 140.818 82.4789 142.046 82.8079C143.274 83.137 144.003 84.3994 143.674 85.6275C143.345 86.8557 142.083 87.5845 140.855 87.2554Z" fill="black"/>
</g>
<path opacity="0.2" d="M178.667 74.6427C178.954 74.7196 179.272 74.6738 179.534 74.4902L180.916 73.522C181.387 73.1926 181.501 72.5441 181.172 72.0735C180.842 71.6028 180.194 71.4886 179.723 71.818L178.341 72.7862C177.87 73.1155 177.756 73.7641 178.085 74.2347C178.231 74.4431 178.44 74.5817 178.667 74.6427Z" fill="black"/>
</g>
<g filter="url(#filter3_d_7_2549)">
<path d="M26.5596 44.4206C34.6716 42.247 39.4857 33.9088 37.3121 25.7967C35.1385 17.6846 26.8003 12.8706 18.6882 15.0442C10.5761 17.2178 5.76207 25.556 7.93569 33.6681C10.1093 41.7801 18.4475 46.5942 26.5596 44.4206Z" fill="#E8E8E8"/>
<path d="M24.6904 37.4442C28.9495 36.303 31.4771 31.9251 30.3359 27.666C29.1946 23.4068 24.8167 20.8792 20.5576 22.0205C16.2984 23.1617 13.7709 27.5396 14.9121 31.7987C16.0533 36.0579 20.4312 38.5855 24.6904 37.4442Z" fill="#EDBCB9"/>
<path d="M68.0171 33.3121C76.1292 31.1385 80.9433 22.8003 78.7696 14.6882C76.596 6.57613 68.2578 1.76207 60.1458 3.93569C52.0337 6.10932 47.2196 14.4475 49.3932 22.5596C51.5669 30.6716 59.9051 35.4857 68.0171 33.3121Z" fill="#E8E8E8"/>
<path d="M66.1472 26.3357C70.4064 25.1944 72.934 20.8165 71.7927 16.5574C70.6515 12.2982 66.2736 9.77064 62.0145 10.9119C57.7553 12.0531 55.2277 16.431 56.369 20.6902C57.5102 24.9493 61.8881 27.4769 66.1472 26.3357Z" fill="#EDBCB9"/>
<path d="M71.465 35.616C74.9234 48.5229 65.7822 56.2598 52.8753 59.7181C39.9685 63.1765 28.1835 61.0466 24.7252 48.1399C21.2669 35.2332 28.9263 21.9664 41.8331 18.5081C54.74 15.0497 68.0066 22.7092 71.465 35.616Z" fill="#E8E8E8"/>
<path d="M40.5202 43.5681C39.8959 43.7353 39.2543 43.3648 39.087 42.7406C38.9587 42.2619 38.4649 41.9768 37.9863 42.1051C37.5076 42.2334 37.2225 42.7272 37.3507 43.2058C37.518 43.8301 37.1475 44.4717 36.5233 44.639C35.8991 44.8063 35.2574 44.4358 35.0901 43.8116C34.6279 42.0864 35.6553 40.3068 37.3805 39.8445C39.1057 39.3822 40.8853 40.4097 41.3476 42.1349C41.5149 42.7593 41.1444 43.4008 40.5202 43.5681Z" fill="#4A5058"/>
<path d="M59.4972 38.4832C58.8728 38.6505 58.2313 38.28 58.064 37.6558C57.9357 37.1771 57.4419 36.892 56.9633 37.0202C56.4846 37.1485 56.1995 37.6423 56.3277 38.121C56.495 38.7452 56.1247 39.3869 55.5003 39.5541C54.8759 39.7214 54.2344 39.3509 54.0671 38.7267C53.6049 37.0015 54.6323 35.2219 56.3575 34.7597C58.0827 34.2974 59.8623 35.3248 60.3246 37.05C60.4919 37.6744 60.1214 38.3159 59.4972 38.4832Z" fill="#4A5058"/>
<path d="M41.9983 49.758L36.4299 51.25C35.8057 51.4173 35.164 51.0468 34.9968 50.4226C34.8295 49.7984 35.2 49.1567 35.8242 48.9894L41.3925 47.4974C42.0168 47.3301 42.6584 47.7006 42.8257 48.3248C42.993 48.9491 42.6225 49.5908 41.9983 49.758Z" fill="#4A5058"/>
<path d="M39.6533 57.5475C39.278 57.6481 38.8612 57.5598 38.5547 57.2765C38.0803 56.8378 38.0511 56.0974 38.4899 55.6229L42.5455 51.2366C42.9842 50.7621 43.7246 50.7331 44.1991 51.1718C44.6737 51.6106 44.7027 52.3509 44.2639 52.8254L40.2083 57.2117C40.053 57.3801 39.8595 57.4923 39.6533 57.5475Z" fill="#4A5058"/>
<path d="M62.8839 44.1618L57.3157 45.6538C56.6913 45.8211 56.0498 45.4506 55.8825 44.8264C55.7153 44.2021 56.0856 43.5605 56.71 43.3932L62.2782 41.9012C62.9025 41.7339 63.5441 42.1044 63.7113 42.7286C63.8786 43.3529 63.5081 43.9946 62.8839 44.1618Z" fill="#4A5058"/>
<path d="M63.2407 51.2273C63.0346 51.2826 62.8109 51.2822 62.5919 51.2142L56.8865 49.4433C56.2693 49.2517 55.9242 48.5962 56.1158 47.9788C56.3076 47.3614 56.963 47.0165 57.5806 47.2081L63.286 48.979C63.9032 49.1707 64.2483 49.8261 64.0566 50.4435C63.9328 50.8417 63.6158 51.1268 63.2407 51.2273Z" fill="#4A5058"/>
<path d="M50.4742 50.7573C52.784 50.1384 54.1547 47.7643 53.5358 45.4545C52.9169 43.1447 50.5428 41.774 48.233 42.3929C45.9232 43.0118 44.5525 45.386 45.1714 47.6957C45.7903 50.0055 48.1645 51.3762 50.4742 50.7573Z" fill="#EDBCB9"/>
</g>
<defs>
<filter id="filter0_d_7_2549" x="59.6106" y="53.3762" width="66.9092" height="64.7716" filterUnits="userSpaceOnUse" color-interpolation-filters="sRGB">
<feFlood flood-opacity="0" result="BackgroundImageFix"/>
<feColorMatrix in="SourceAlpha" type="matrix" values="0 0 0 0 0 0 0 0 0 0 0 0 0 0 0 0 0 0 127 0" result="hardAlpha"/>
<feOffset dy="4"/>
<feGaussianBlur stdDeviation="3.5"/>
<feColorMatrix type="matrix" values="0 0 0 0 0.350278 0 0 0 0 0.180556 0 0 0 0 0.833333 0 0 0 0.22 0"/>
<feBlend mode="normal" in2="BackgroundImageFix" result="effect1_dropShadow_7_2549"/>
<feBlend mode="normal" in="SourceGraphic" in2="effect1_dropShadow_7_2549" result="shape"/>
</filter>
<filter id="filter1_d_7_2549" x="94.2967" y="8.73578" width="65.6592" height="60.8632" filterUnits="userSpaceOnUse" color-interpolation-filters="sRGB">
<feFlood flood-opacity="0" result="BackgroundImageFix"/>
<feColorMatrix in="SourceAlpha" type="matrix" values="0 0 0 0 0 0 0 0 0 0 0 0 0 0 0 0 0 0 127 0" result="hardAlpha"/>
<feOffset dy="4"/>
<feGaussianBlur stdDeviation="3.5"/>
<feColorMatrix type="matrix" values="0 0 0 0 0.350278 0 0 0 0 0.180556 0 0 0 0 0.833333 0 0 0 0.22 0"/>
<feBlend mode="normal" in2="BackgroundImageFix" result="effect1_dropShadow_7_2549"/>
<feBlend mode="normal" in="SourceGraphic" in2="effect1_dropShadow_7_2549" result="shape"/>
</filter>
<filter id="filter2_d_7_2549" x="123.936" y="57.8255" width="67.7156" height="62.3498" filterUnits="userSpaceOnUse" color-interpolation-filters="sRGB">
<feFlood flood-opacity="0" result="BackgroundImageFix"/>
<feColorMatrix in="SourceAlpha" type="matrix" values="0 0 0 0 0 0 0 0 0 0 0 0 0 0 0 0 0 0 127 0" result="hardAlpha"/>
<feOffset dy="4"/>
<feGaussianBlur stdDeviation="3.5"/>
<feColorMatrix type="matrix" values="0 0 0 0 0.350278 0 0 0 0 0.180556 0 0 0 0 0.833333 0 0 0 0.22 0"/>
<feBlend mode="normal" in2="BackgroundImageFix" result="effect1_dropShadow_7_2549"/>
<feBlend mode="normal" in="SourceGraphic" in2="effect1_dropShadow_7_2549" result="shape"/>
</filter>
<filter id="filter3_d_7_2549" x="0.413773" y="0.413773" width="85.8778" height="71.7818" filterUnits="userSpaceOnUse" color-interpolation-filters="sRGB">
<feFlood flood-opacity="0" result="BackgroundImageFix"/>
<feColorMatrix in="SourceAlpha" type="matrix" values="0 0 0 0 0 0 0 0 0 0 0 0 0 0 0 0 0 0 127 0" result="hardAlpha"/>
<feOffset dy="4"/>
<feGaussianBlur stdDeviation="3.5"/>
<feColorMatrix type="matrix" values="0 0 0 0 0.350278 0 0 0 0 0.180556 0 0 0 0 0.833333 0 0 0 0.22 0"/>
<feBlend mode="normal" in2="BackgroundImageFix" result="effect1_dropShadow_7_2549"/>
<feBlend mode="normal" in="SourceGraphic" in2="effect1_dropShadow_7_2549" result="shape"/>
</filter>
</defs>
</svg>
