<svg width="210" height="133" viewBox="0 0 210 133" fill="none" xmlns="http://www.w3.org/2000/svg">
<g filter="url(#filter0_d_41_1268)">
<g filter="url(#filter1_d_41_1268)">
<rect x="117.431" y="22.0454" width="72" height="72" rx="24" transform="rotate(15 117.431 22.0454)" fill="#009BFE"/>
</g>
<path d="M135.296 72.3814C134.416 72.7174 133.6 72.9494 132.848 73.0774C132.112 73.2054 131.264 73.2694 130.304 73.2694C130.448 71.6534 130.568 69.7654 130.664 67.6054C130.76 65.4454 130.84 63.1574 130.904 60.7414C130.312 61.7334 129.76 62.7574 129.248 63.8134C128.736 64.8694 128.264 65.9574 127.832 67.0774C127.448 67.1894 126.984 67.2534 126.44 67.2694C125.912 67.2854 125.4 67.2454 124.904 67.1494C124.44 66.1094 123.944 65.0934 123.416 64.1014C122.888 63.0934 122.328 62.1174 121.736 61.1734C121.736 63.1094 121.84 65.0294 122.048 66.9334C122.272 68.8214 122.568 70.3974 122.936 71.6614C122.504 71.7894 121.848 71.9014 120.968 71.9974C120.088 72.0934 119.272 72.1414 118.52 72.1414C118.216 70.0454 117.96 67.3734 117.752 64.1254C117.544 60.8614 117.44 57.9894 117.44 55.5094C118.128 55.0294 118.88 54.6214 119.696 54.2854C120.528 53.9494 121.304 53.7334 122.024 53.6374C123.176 55.1254 124.136 56.4854 124.904 57.7174C125.688 58.9494 126.352 60.1494 126.896 61.3174C127.504 59.9094 128.168 58.5654 128.888 57.2854C129.624 55.9894 130.4 54.7814 131.216 53.6614C131.856 53.7574 132.496 53.9014 133.136 54.0934C133.776 54.2694 134.384 54.4934 134.96 54.7654C135.072 56.9574 135.152 59.6294 135.2 62.7814C135.264 65.9334 135.296 69.1334 135.296 72.3814ZM152.934 73.3654C152.374 73.7334 151.702 74.0374 150.918 74.2774C150.15 74.5334 149.23 74.7254 148.158 74.8534C148.062 73.8934 147.926 72.8934 147.75 71.8534C147.59 70.7974 147.382 69.7254 147.126 68.6374C146.102 68.6534 145.182 68.6854 144.366 68.7334C143.55 68.7814 142.782 68.8534 142.062 68.9494C141.806 69.6694 141.542 70.3574 141.27 71.0134C140.998 71.6694 140.726 72.2694 140.454 72.8134C139.67 72.6854 138.926 72.4294 138.222 72.0454C137.534 71.6774 136.99 71.2374 136.59 70.7254C137.822 68.4374 138.894 66.1334 139.806 63.8134C140.718 61.4774 141.67 58.5414 142.662 55.0054C143.446 55.0054 144.15 55.0454 144.774 55.1254C145.414 55.1894 146.118 55.3174 146.886 55.5094C148.278 57.7174 149.486 60.3414 150.51 63.3814C151.534 66.4214 152.342 69.7494 152.934 73.3654ZM144.654 60.5014C144.446 61.2854 144.214 62.1174 143.958 62.9974C143.702 63.8774 143.43 64.7734 143.142 65.6854C143.686 65.6054 144.214 65.5414 144.726 65.4934C145.254 65.4454 145.782 65.4134 146.31 65.3974C146.038 64.5014 145.766 63.6454 145.494 62.8294C145.222 62.0134 144.942 61.2374 144.654 60.5014ZM169.106 70.9894C168.61 71.5014 168.002 71.9574 167.282 72.3574C166.562 72.7574 165.73 73.0934 164.786 73.3654C163.762 70.9494 162.986 69.2374 162.458 68.2294C161.946 67.2054 161.402 66.2694 160.826 65.4214C160.682 65.4534 160.57 65.4854 160.49 65.5174C160.426 65.5334 160.362 65.5574 160.298 65.5894C160.266 66.7414 160.218 67.8694 160.154 68.9734C160.09 70.0614 160.01 71.1414 159.914 72.2134C159.194 72.2134 158.466 72.1814 157.73 72.1174C156.994 72.0694 156.346 71.9974 155.786 71.9014C155.802 71.1494 155.81 70.5894 155.81 70.2214C155.826 69.8534 155.834 69.5094 155.834 69.1894C155.834 67.1574 155.762 65.0374 155.618 62.8294C155.49 60.6214 155.282 58.2214 154.994 55.6294C155.746 54.9894 156.658 54.4854 157.73 54.1174C158.818 53.7494 159.89 53.5654 160.946 53.5654C163.042 53.5654 164.658 54.0134 165.794 54.9094C166.93 55.8054 167.498 57.0614 167.498 58.6774C167.498 59.6534 167.242 60.5654 166.73 61.4134C166.218 62.2614 165.458 63.0214 164.45 63.6934C165.298 64.6694 166.098 65.7494 166.85 66.9334C167.618 68.1174 168.37 69.4694 169.106 70.9894ZM160.346 62.5894V62.6854C161.098 62.3974 161.658 61.9574 162.026 61.3654C162.394 60.7734 162.578 60.0214 162.578 59.1094C162.578 58.2134 162.378 57.5174 161.978 57.0214C161.594 56.5254 161.034 56.2774 160.298 56.2774H160.202C160.25 57.8454 160.282 59.0934 160.298 60.0214C160.33 60.9334 160.346 61.7894 160.346 62.5894Z" fill="white"/>
</g>
<g filter="url(#filter2_d_41_1268)">
<rect x="54" y="23.4625" width="72" height="72" rx="24" fill="#FFDB13"/>
</g>
<path d="M74.152 70.6054C73.432 70.7814 72.728 70.9094 72.04 70.9894C71.352 71.0694 70.576 71.1094 69.712 71.1094C69.712 68.1814 69.576 64.8214 69.304 61.0294C69.048 57.2214 68.72 54.1734 68.32 51.8854C69.248 51.8374 70.176 51.7654 71.104 51.6694C72.032 51.5734 73.032 51.4534 74.104 51.3094C74.84 51.2134 75.864 51.0694 77.176 50.8774C78.488 50.6854 79.392 50.5494 79.888 50.4694C79.968 50.7414 80.024 51.0534 80.056 51.4054C80.104 51.7414 80.128 52.1174 80.128 52.5334C80.128 52.8214 80.104 53.1334 80.056 53.4694C80.024 53.8054 79.96 54.1734 79.864 54.5734C78.456 54.7174 77.288 54.8374 76.36 54.9334C75.432 55.0294 74.752 55.0934 74.32 55.1254C74.352 55.7974 74.376 56.4774 74.392 57.1654C74.424 57.8374 74.44 58.5094 74.44 59.1814C75.128 59.0214 75.8 58.9094 76.456 58.8454C77.128 58.7654 77.8 58.7254 78.472 58.7254C78.616 59.2534 78.712 59.8134 78.76 60.4054C78.824 60.9814 78.856 61.7094 78.856 62.5894C77.992 62.5894 77.2 62.6054 76.48 62.6374C75.776 62.6694 75.104 62.7254 74.464 62.8054C74.432 64.2934 74.392 65.6934 74.344 67.0054C74.296 68.3014 74.232 69.5014 74.152 70.6054ZM94.9051 69.2854C94.4411 69.4294 92.9531 69.5974 90.4411 69.7894C87.9451 69.9814 85.8571 70.0774 84.1771 70.0774C83.7771 67.5334 83.4091 64.5654 83.0731 61.1734C82.7531 57.7814 82.5771 54.9574 82.5451 52.7014C85.0091 52.2374 87.1451 51.9094 88.9531 51.7174C90.7771 51.5094 92.5611 51.4054 94.3051 51.4054C94.3051 51.9974 94.2651 52.6294 94.1851 53.3014C94.1211 53.9574 94.0091 54.6454 93.8491 55.3654C92.9531 55.3654 92.0251 55.3814 91.0651 55.4134C90.1051 55.4454 89.1051 55.4934 88.0651 55.5574C88.0331 55.9094 88.0091 56.3174 87.9931 56.7814C87.9771 57.2294 87.9611 57.9094 87.9451 58.8214C88.7611 58.5814 89.5771 58.4054 90.3931 58.2934C91.2091 58.1814 92.0411 58.1254 92.8891 58.1254C93.0171 58.6854 93.1131 59.2614 93.1771 59.8534C93.2411 60.4454 93.2731 61.1414 93.2731 61.9414C92.3611 61.9414 91.4571 61.9734 90.5611 62.0374C89.6651 62.0854 88.7931 62.1574 87.9451 62.2534C87.9611 62.9734 87.9851 63.6774 88.0171 64.3654C88.0491 65.0534 88.0971 65.7094 88.1611 66.3334C88.6251 66.3334 89.6011 66.2454 91.0891 66.0694C92.5771 65.8774 93.6971 65.7094 94.4491 65.5654C94.5771 65.9014 94.6811 66.4534 94.7611 67.2214C94.8571 67.9734 94.9051 68.6614 94.9051 69.2854ZM111.306 62.6374C111.306 64.5734 110.562 66.2054 109.074 67.5334C107.602 68.8614 105.794 69.5254 103.65 69.5254C102.866 69.5254 102.066 69.4054 101.25 69.1654C100.45 68.9254 99.6581 68.5654 98.8741 68.0854C98.6661 66.2454 98.5061 64.3414 98.3941 62.3734C98.2981 60.4054 98.2501 58.3254 98.2501 56.1334C98.2501 55.1734 98.2501 54.4534 98.2501 53.9734C98.2661 53.4934 98.2821 53.0454 98.2981 52.6294C99.2101 52.1814 100.162 51.8374 101.154 51.5974C102.146 51.3574 103.13 51.2374 104.106 51.2374C106.058 51.2374 107.546 51.5814 108.57 52.2694C109.594 52.9414 110.106 53.9174 110.106 55.1974C110.106 55.9814 109.93 56.6934 109.578 57.3334C109.242 57.9574 108.738 58.5014 108.066 58.9654C109.09 59.2694 109.882 59.7494 110.442 60.4054C111.018 61.0454 111.306 61.7894 111.306 62.6374ZM105.426 55.8694C105.426 55.2294 105.25 54.7494 104.898 54.4294C104.546 54.1094 104.026 53.9494 103.338 53.9494H103.266C103.186 54.8454 103.114 55.7014 103.05 56.5174C103.002 57.3174 102.962 58.0854 102.93 58.8214C103.746 58.6454 104.362 58.3014 104.778 57.7894C105.21 57.2774 105.426 56.6374 105.426 55.8694ZM102.858 66.3094C103.082 66.4214 103.29 66.5094 103.482 66.5734C103.674 66.6214 103.866 66.6454 104.058 66.6454C104.698 66.6454 105.258 66.3334 105.738 65.7094C106.218 65.0854 106.458 64.3814 106.458 63.5974C106.458 62.9414 106.266 62.4454 105.882 62.1094C105.514 61.7574 104.97 61.5814 104.25 61.5814C104.042 61.5814 103.826 61.6054 103.602 61.6534C103.378 61.7014 103.13 61.7814 102.858 61.8934C102.842 62.1174 102.834 62.3574 102.834 62.6134C102.834 62.8534 102.834 63.2294 102.834 63.7414C102.834 64.4614 102.834 64.9974 102.834 65.3494C102.834 65.7014 102.842 66.0214 102.858 66.3094Z" fill="white"/>
<g filter="url(#filter3_d_41_1268)">
<rect x="2" y="43.9622" width="72" height="72" rx="24" transform="rotate(-15 2 43.9622)" fill="#FE6230"/>
</g>
<path d="M32.872 71.3974C32.52 73.2534 31.88 74.6774 30.952 75.6694C30.024 76.6614 28.872 77.1574 27.496 77.1574C26.2 77.1574 25.04 76.6454 24.016 75.6214C22.992 74.6134 22.4 73.4054 22.24 71.9974C22.72 71.5814 23.256 71.2534 23.848 71.0134C24.44 70.7574 25.096 70.5814 25.816 70.4854C26.04 71.9414 26.256 72.9014 26.464 73.3654C26.688 73.8294 26.976 74.0614 27.328 74.0614C27.808 74.0614 28.152 73.7254 28.36 73.0534C28.568 72.3654 28.672 71.2854 28.672 69.8134C28.672 68.1494 28.608 66.2694 28.48 64.1734C28.352 62.0774 28.176 60.1654 27.952 58.4374C28.32 58.1814 28.8 57.9814 29.392 57.8374C29.984 57.6934 30.6 57.6214 31.24 57.6214C31.688 57.6214 32.096 57.6454 32.464 57.6934C32.832 57.7414 33.2 57.8134 33.568 57.9094C33.584 58.4054 33.6 58.9654 33.616 59.5894C33.632 60.1974 33.64 60.8454 33.64 61.5334C33.64 63.6774 33.584 65.4774 33.472 66.9334C33.36 68.3734 33.16 69.8614 32.872 71.3974ZM50.4964 76.3654C49.9364 76.7334 49.2644 77.0374 48.4804 77.2774C47.7124 77.5334 46.7924 77.7254 45.7204 77.8534C45.6244 76.8934 45.4884 75.8934 45.3124 74.8534C45.1524 73.7974 44.9444 72.7254 44.6884 71.6374C43.6644 71.6534 42.7444 71.6854 41.9284 71.7334C41.1124 71.7814 40.3444 71.8534 39.6244 71.9494C39.3684 72.6694 39.1044 73.3574 38.8324 74.0134C38.5604 74.6694 38.2884 75.2694 38.0164 75.8134C37.2324 75.6854 36.4884 75.4294 35.7844 75.0454C35.0964 74.6774 34.5524 74.2374 34.1524 73.7254C35.3844 71.4374 36.4564 69.1334 37.3684 66.8134C38.2804 64.4774 39.2324 61.5414 40.2244 58.0054C41.0084 58.0054 41.7124 58.0454 42.3364 58.1254C42.9764 58.1894 43.6804 58.3174 44.4484 58.5094C45.8404 60.7174 47.0484 63.3414 48.0724 66.3814C49.0964 69.4214 49.9044 72.7494 50.4964 76.3654ZM42.2164 63.5014C42.0084 64.2854 41.7764 65.1174 41.5204 65.9974C41.2644 66.8774 40.9924 67.7734 40.7044 68.6854C41.2484 68.6054 41.7764 68.5414 42.2884 68.4934C42.8164 68.4454 43.3444 68.4134 43.8724 68.3974C43.6004 67.5014 43.3284 66.6454 43.0564 65.8294C42.7844 65.0134 42.5044 64.2374 42.2164 63.5014ZM57.5249 70.9894V75.6454C57.1089 75.7734 56.5089 75.8854 55.7249 75.9814C54.9409 76.0774 54.2289 76.1254 53.5889 76.1254C53.2849 72.6374 53.0529 69.4694 52.8929 66.6214C52.7489 63.7574 52.6769 61.3334 52.6769 59.3494C52.7889 59.2694 52.8769 59.2134 52.9409 59.1814C53.0049 59.1494 53.0689 59.1174 53.1329 59.0854C53.7569 58.7654 54.4769 58.5094 55.2929 58.3174C56.1089 58.1094 56.9569 57.9894 57.8369 57.9574C58.7969 59.3494 59.6369 60.7174 60.3569 62.0614C61.0929 63.3894 61.7729 64.8134 62.3969 66.3334C62.3969 64.4134 62.3569 62.7094 62.2769 61.2214C62.1969 59.7174 62.0849 58.4934 61.9409 57.5494C62.7729 57.2934 63.5969 57.1014 64.4129 56.9734C65.2289 56.8294 66.0369 56.7574 66.8369 56.7574C66.8849 57.6694 66.9169 58.5494 66.9329 59.3974C66.9489 60.2454 66.9569 61.0694 66.9569 61.8694C66.9569 63.8374 66.9089 65.9014 66.8129 68.0614C66.7329 70.2054 66.6209 72.2694 66.4769 74.2534C65.4849 74.4134 64.6609 74.5334 64.0049 74.6134C63.3649 74.6774 62.7409 74.7254 62.1329 74.7574C61.1089 72.2774 60.2609 70.3654 59.5889 69.0214C58.9329 67.6614 58.2529 66.4214 57.5489 65.3014C57.5329 65.9574 57.5249 66.6854 57.5249 67.4854C57.5249 68.2694 57.5249 69.4374 57.5249 70.9894Z" fill="white"/>
<defs>
<filter id="filter0_d_41_1268" x="97.1841" y="24.4333" width="91.4058" height="91.4058" filterUnits="userSpaceOnUse" color-interpolation-filters="sRGB">
<feFlood flood-opacity="0" result="BackgroundImageFix"/>
<feColorMatrix in="SourceAlpha" type="matrix" values="0 0 0 0 0 0 0 0 0 0 0 0 0 0 0 0 0 0 127 0" result="hardAlpha"/>
<feOffset dy="4"/>
<feGaussianBlur stdDeviation="3.5"/>
<feColorMatrix type="matrix" values="0 0 0 0 0 0 0 0 0 0 0 0 0 0 0 0 0 0 0.22 0"/>
<feBlend mode="normal" in2="BackgroundImageFix" result="effect1_dropShadow_41_1268"/>
<feBlend mode="normal" in="SourceGraphic" in2="effect1_dropShadow_41_1268" result="shape"/>
</filter>
<filter id="filter1_d_41_1268" x="97.1841" y="24.4333" width="91.4058" height="91.4058" filterUnits="userSpaceOnUse" color-interpolation-filters="sRGB">
<feFlood flood-opacity="0" result="BackgroundImageFix"/>
<feColorMatrix in="SourceAlpha" type="matrix" values="0 0 0 0 0 0 0 0 0 0 0 0 0 0 0 0 0 0 127 0" result="hardAlpha"/>
<feOffset dy="4"/>
<feGaussianBlur stdDeviation="3.5"/>
<feColorMatrix type="matrix" values="0 0 0 0 0 0 0 0 0 0 0 0 0 0 0 0 0 0 0.22 0"/>
<feBlend mode="normal" in2="BackgroundImageFix" result="effect1_dropShadow_41_1268"/>
<feBlend mode="normal" in="SourceGraphic" in2="effect1_dropShadow_41_1268" result="shape"/>
</filter>
<filter id="filter2_d_41_1268" x="47" y="20.4625" width="86" height="86" filterUnits="userSpaceOnUse" color-interpolation-filters="sRGB">
<feFlood flood-opacity="0" result="BackgroundImageFix"/>
<feColorMatrix in="SourceAlpha" type="matrix" values="0 0 0 0 0 0 0 0 0 0 0 0 0 0 0 0 0 0 127 0" result="hardAlpha"/>
<feOffset dy="4"/>
<feGaussianBlur stdDeviation="3.5"/>
<feColorMatrix type="matrix" values="0 0 0 0 0 0 0 0 0 0 0 0 0 0 0 0 0 0 0.22 0"/>
<feBlend mode="normal" in2="BackgroundImageFix" result="effect1_dropShadow_41_1268"/>
<feBlend mode="normal" in="SourceGraphic" in2="effect1_dropShadow_41_1268" result="shape"/>
</filter>
<filter id="filter3_d_41_1268" x="0.387909" y="27.7151" width="91.4058" height="91.4058" filterUnits="userSpaceOnUse" color-interpolation-filters="sRGB">
<feFlood flood-opacity="0" result="BackgroundImageFix"/>
<feColorMatrix in="SourceAlpha" type="matrix" values="0 0 0 0 0 0 0 0 0 0 0 0 0 0 0 0 0 0 127 0" result="hardAlpha"/>
<feOffset dy="4"/>
<feGaussianBlur stdDeviation="3.5"/>
<feColorMatrix type="matrix" values="0 0 0 0 0 0 0 0 0 0 0 0 0 0 0 0 0 0 0.22 0"/>
<feBlend mode="normal" in2="BackgroundImageFix" result="effect1_dropShadow_41_1268"/>
<feBlend mode="normal" in="SourceGraphic" in2="effect1_dropShadow_41_1268" result="shape"/>
</filter>
</defs>
</svg>
