<svg width="46" height="47" viewBox="0 0 46 47" fill="none" xmlns="http://www.w3.org/2000/svg">
<g filter="url(#filter0_d_41_1298)">
<circle cx="23" cy="19.0454" r="16" fill="#FDA200"/>
</g>
<ellipse cx="15.2701" cy="9.10901" rx="3" ry="1.5" transform="rotate(-39.4153 15.2701 9.10901)" fill="white" fill-opacity="0.69"/>
<path d="M16.7029 17.1647C19.4524 17.1647 22.202 17.1647 24.9514 17.1647C24.2508 16.4645 23.5502 15.7642 22.8497 15.0638C21.2336 13.4485 23.7512 10.9508 25.3713 12.5703C27.0791 14.2773 28.7867 15.9842 30.4945 17.6912C31.1799 18.3763 31.1614 19.518 30.481 20.1981C28.7732 21.9048 27.0656 23.6117 25.3578 25.3184C23.7418 26.9337 21.2428 24.4173 22.8632 22.798C23.5595 22.102 24.2558 21.4061 24.9521 20.7104C22.2108 20.7104 19.4696 20.7104 16.7285 20.7104C14.4383 20.7104 14.418 17.1647 16.7029 17.1647Z" fill="white"/>
<circle cx="12" cy="13.5454" r="1.5" fill="white" fill-opacity="0.69"/>
<defs>
<filter id="filter0_d_41_1298" x="0" y="0.0454102" width="46" height="46" filterUnits="userSpaceOnUse" color-interpolation-filters="sRGB">
<feFlood flood-opacity="0" result="BackgroundImageFix"/>
<feColorMatrix in="SourceAlpha" type="matrix" values="0 0 0 0 0 0 0 0 0 0 0 0 0 0 0 0 0 0 127 0" result="hardAlpha"/>
<feOffset dy="4"/>
<feGaussianBlur stdDeviation="3.5"/>
<feColorMatrix type="matrix" values="0 0 0 0 0 0 0 0 0 0 0 0 0 0 0 0 0 0 0.22 0"/>
<feBlend mode="normal" in2="BackgroundImageFix" result="effect1_dropShadow_41_1298"/>
<feBlend mode="normal" in="SourceGraphic" in2="effect1_dropShadow_41_1298" result="shape"/>
</filter>
</defs>
</svg>
