<svg width="23" height="16" viewBox="0 0 23 16" fill="none" xmlns="http://www.w3.org/2000/svg">
<path d="M2.43413 0.2112C2.19083 0.0722261 1.91531 -0.00042181 1.63512 0.000524902C1.35493 0.00147162 1.07991 0.0759791 0.837556 0.216594C0.595206 0.357209 0.394031 0.559001 0.254158 0.801779C0.114285 1.04456 0.0406177 1.31981 0.0405273 1.6V14.4C0.0406177 14.6802 0.114285 14.9554 0.254158 15.1982C0.394031 15.441 0.595206 15.6428 0.837556 15.7834C1.07991 15.924 1.35493 15.9985 1.63512 15.9995C1.91531 16.0004 2.19083 15.9278 2.43413 15.7888L13.6341 9.3888C13.8788 9.2488 14.0822 9.04663 14.2237 8.80274C14.3651 8.55886 14.4396 8.28193 14.4396 8C14.4396 7.71807 14.3651 7.44114 14.2237 7.19726C14.0822 6.95337 13.8788 6.7512 13.6341 6.6112L2.43413 0.2112ZM19.2405 16H22.4405V0H19.2405V16Z" fill="#4355D7"/>
</svg>
