<svg width="23" height="16" viewBox="0 0 23 16" fill="none" xmlns="http://www.w3.org/2000/svg">
<path d="M20.0468 0.2112C20.2901 0.0722261 20.5656 -0.00042181 20.8458 0.000524902C21.126 0.00147162 21.4011 0.0759791 21.6434 0.216594C21.8858 0.357209 22.0869 0.559001 22.2268 0.801779C22.3667 1.04456 22.4403 1.31981 22.4404 1.6V14.4C22.4403 14.6802 22.3667 14.9554 22.2268 15.1982C22.0869 15.441 21.8858 15.6428 21.6434 15.7834C21.4011 15.924 21.126 15.9985 20.8458 15.9995C20.5656 16.0004 20.2901 15.9278 20.0468 15.7888L8.84683 9.3888C8.60211 9.2488 8.39873 9.04663 8.25728 8.80274C8.11583 8.55886 8.04133 8.28193 8.04133 8C8.04133 7.71807 8.11583 7.44114 8.25728 7.19726C8.39873 6.95337 8.60211 6.7512 8.84683 6.6112L20.0468 0.2112ZM3.24043 16H0.0404301V0H3.24043V16Z" fill="#4355D7"/>
</svg>
