<svg width="74" height="74" viewBox="0 0 74 74" fill="none" xmlns="http://www.w3.org/2000/svg">
<g filter="url(#filter0_d_62_92)">
<rect width="59.2405" height="60" rx="29.6203" transform="matrix(-1 0 0 1 66.2405 3)" fill="white"/>
<path d="M45.0468 25.2112C45.2901 25.0722 45.5656 24.9996 45.8458 25.0005C46.126 25.0015 46.4011 25.076 46.6434 25.2166C46.8858 25.3572 47.0869 25.559 47.2268 25.8018C47.3667 26.0446 47.4403 26.3198 47.4404 26.6V39.4C47.4403 39.6802 47.3667 39.9554 47.2268 40.1982C47.0869 40.441 46.8858 40.6428 46.6434 40.7834C46.4011 40.924 46.126 40.9985 45.8458 40.9995C45.5656 41.0004 45.2901 40.9278 45.0468 40.7888L33.8468 34.3888C33.6021 34.2488 33.3987 34.0466 33.2573 33.8027C33.1158 33.5589 33.0413 33.2819 33.0413 33C33.0413 32.7181 33.1158 32.4411 33.2573 32.1973C33.3987 31.9534 33.6021 31.7512 33.8468 31.6112L45.0468 25.2112ZM28.2404 41H25.0404V25H28.2404V41Z" fill="#4355D7"/>
<rect x="-1" y="1" width="57.2405" height="58" rx="28.6203" transform="matrix(-1 0 0 1 64.2405 3)" stroke="white" stroke-width="2"/>
</g>
<defs>
<filter id="filter0_d_62_92" x="0" y="0" width="73.2405" height="74" filterUnits="userSpaceOnUse" color-interpolation-filters="sRGB">
<feFlood flood-opacity="0" result="BackgroundImageFix"/>
<feColorMatrix in="SourceAlpha" type="matrix" values="0 0 0 0 0 0 0 0 0 0 0 0 0 0 0 0 0 0 127 0" result="hardAlpha"/>
<feOffset dy="4"/>
<feGaussianBlur stdDeviation="3.5"/>
<feComposite in2="hardAlpha" operator="out"/>
<feColorMatrix type="matrix" values="0 0 0 0 0 0 0 0 0 0 0 0 0 0 0 0 0 0 0.22 0"/>
<feBlend mode="normal" in2="BackgroundImageFix" result="effect1_dropShadow_62_92"/>
<feBlend mode="normal" in="SourceGraphic" in2="effect1_dropShadow_62_92" result="shape"/>
</filter>
</defs>
</svg>
